<mxfile host="Electron" modified="2024-04-20T20:19:40.887Z" agent="Mozilla/5.0 (X11; Linux x86_64) AppleWebKit/537.36 (KHTML, like Gecko) draw.io/24.2.5 Chrome/120.0.6099.109 Electron/28.1.0 Safari/537.36" etag="DG7QnvdBZSwjBCzfBbXF" version="24.2.5" type="device">
  <diagram name="Page-1" id="u0dxBIsWc2-prqW3W8IX">
    <mxGraphModel dx="1061" dy="1536" grid="1" gridSize="10" guides="1" tooltips="1" connect="1" arrows="1" fold="1" page="1" pageScale="1" pageWidth="850" pageHeight="1100" math="0" shadow="0">
      <root>
        <mxCell id="0" />
        <mxCell id="1" parent="0" />
        <mxCell id="g7xP1a6qRHzM_47NsmWZ-7" value="&lt;h3 style=&quot;color: rgb(248, 214, 67); font-family: Quantum;&quot;&gt;&lt;br&gt;&lt;/h3&gt;" style="ellipse;whiteSpace=wrap;html=1;gradientColor=#F9895C;fillColor=#65BCD8;strokeColor=none;" vertex="1" parent="1">
          <mxGeometry x="110" y="235" width="630" height="630" as="geometry" />
        </mxCell>
        <mxCell id="g7xP1a6qRHzM_47NsmWZ-16" value="&lt;h3 style=&quot;forced-color-adjust: none; border-color: rgb(0, 0, 0); font-style: normal; font-variant-ligatures: normal; font-variant-caps: normal; letter-spacing: normal; orphans: 2; text-align: center; text-indent: 0px; text-transform: none; widows: 2; word-spacing: 0px; -webkit-text-stroke-width: 0px; white-space: normal; text-decoration-thickness: initial; text-decoration-style: initial; text-decoration-color: initial; font-family: Quantum;&quot;&gt;&lt;span style=&quot;font-weight: 400;&quot;&gt;&lt;font style=&quot;font-size: 30px;&quot;&gt;0 1 0 1 1 1 0 1&lt;/font&gt;&lt;/span&gt;&lt;/h3&gt;" style="text;html=1;align=center;verticalAlign=middle;whiteSpace=wrap;rounded=0;fontColor=#545A5E;textOpacity=40;" vertex="1" parent="1">
          <mxGeometry x="270" y="449" width="30" height="70" as="geometry" />
        </mxCell>
        <mxCell id="g7xP1a6qRHzM_47NsmWZ-17" value="&lt;h3 style=&quot;forced-color-adjust: none; border-color: rgb(0, 0, 0); font-style: normal; font-variant-ligatures: normal; font-variant-caps: normal; letter-spacing: normal; orphans: 2; text-align: center; text-indent: 0px; text-transform: none; widows: 2; word-spacing: 0px; -webkit-text-stroke-width: 0px; white-space: normal; text-decoration-thickness: initial; text-decoration-style: initial; text-decoration-color: initial; font-family: Quantum;&quot;&gt;&lt;span style=&quot;font-weight: 400;&quot;&gt;&lt;font style=&quot;font-size: 30px;&quot;&gt;0&amp;nbsp; 1 1 1 1 1 1 0&lt;/font&gt;&lt;/span&gt;&lt;/h3&gt;" style="text;html=1;align=center;verticalAlign=middle;whiteSpace=wrap;rounded=0;fontColor=#545A5E;textOpacity=40;" vertex="1" parent="1">
          <mxGeometry x="300" y="542" width="30" height="70" as="geometry" />
        </mxCell>
        <mxCell id="g7xP1a6qRHzM_47NsmWZ-19" value="&lt;h3 style=&quot;forced-color-adjust: none; border-color: rgb(0, 0, 0); font-style: normal; font-variant-ligatures: normal; font-variant-caps: normal; letter-spacing: normal; orphans: 2; text-align: center; text-indent: 0px; text-transform: none; widows: 2; word-spacing: 0px; -webkit-text-stroke-width: 0px; white-space: normal; text-decoration-thickness: initial; text-decoration-style: initial; text-decoration-color: initial; font-family: Quantum;&quot;&gt;&lt;span style=&quot;font-weight: 400;&quot;&gt;&lt;font style=&quot;font-size: 30px;&quot;&gt;1 0 0 1 1 1 1 0&lt;/font&gt;&lt;/span&gt;&lt;/h3&gt;" style="text;html=1;align=center;verticalAlign=middle;whiteSpace=wrap;rounded=0;fontColor=#545A5E;textOpacity=40;" vertex="1" parent="1">
          <mxGeometry x="360" y="495" width="30" height="70" as="geometry" />
        </mxCell>
        <mxCell id="g7xP1a6qRHzM_47NsmWZ-20" value="&lt;h3 style=&quot;forced-color-adjust: none; border-color: rgb(0, 0, 0); font-style: normal; font-variant-ligatures: normal; font-variant-caps: normal; letter-spacing: normal; orphans: 2; text-align: center; text-indent: 0px; text-transform: none; widows: 2; word-spacing: 0px; -webkit-text-stroke-width: 0px; white-space: normal; text-decoration-thickness: initial; text-decoration-style: initial; text-decoration-color: initial; font-family: Quantum;&quot;&gt;&lt;span style=&quot;font-weight: 400;&quot;&gt;&lt;font style=&quot;font-size: 30px;&quot;&gt;1&amp;nbsp; 1 0 1 1 1 1 0&lt;/font&gt;&lt;/span&gt;&lt;/h3&gt;" style="text;html=1;align=center;verticalAlign=middle;whiteSpace=wrap;rounded=0;fontColor=#545A5E;textOpacity=40;" vertex="1" parent="1">
          <mxGeometry x="390" y="589" width="30" height="70" as="geometry" />
        </mxCell>
        <mxCell id="g7xP1a6qRHzM_47NsmWZ-21" value="&lt;h3 style=&quot;forced-color-adjust: none; border-color: rgb(0, 0, 0); font-style: normal; font-variant-ligatures: normal; font-variant-caps: normal; letter-spacing: normal; orphans: 2; text-align: center; text-indent: 0px; text-transform: none; widows: 2; word-spacing: 0px; -webkit-text-stroke-width: 0px; white-space: normal; text-decoration-thickness: initial; text-decoration-style: initial; text-decoration-color: initial; font-family: Quantum;&quot;&gt;&lt;span style=&quot;font-weight: 400;&quot;&gt;&lt;font style=&quot;font-size: 30px;&quot;&gt;1 0 1 0 1 0 1 0&lt;/font&gt;&lt;/span&gt;&lt;/h3&gt;" style="text;html=1;align=center;verticalAlign=middle;whiteSpace=wrap;rounded=0;fontColor=#545A5E;textOpacity=40;" vertex="1" parent="1">
          <mxGeometry x="420" y="482" width="30" height="70" as="geometry" />
        </mxCell>
        <mxCell id="g7xP1a6qRHzM_47NsmWZ-18" value="&lt;h3 style=&quot;forced-color-adjust: none; border-color: rgb(0, 0, 0); font-style: normal; font-variant-ligatures: normal; font-variant-caps: normal; letter-spacing: normal; orphans: 2; text-align: center; text-indent: 0px; text-transform: none; widows: 2; word-spacing: 0px; -webkit-text-stroke-width: 0px; white-space: normal; text-decoration-thickness: initial; text-decoration-style: initial; text-decoration-color: initial; font-family: Quantum;&quot;&gt;&lt;span style=&quot;font-weight: 400;&quot;&gt;&lt;font style=&quot;font-size: 30px;&quot;&gt;1&amp;nbsp; 0 1 0 0 0 0 1 1&lt;/font&gt;&lt;/span&gt;&lt;/h3&gt;" style="text;html=1;align=center;verticalAlign=middle;whiteSpace=wrap;rounded=0;fontColor=#545A5E;textOpacity=40;" vertex="1" parent="1">
          <mxGeometry x="330" y="382" width="30" height="70" as="geometry" />
        </mxCell>
        <mxCell id="g7xP1a6qRHzM_47NsmWZ-34" value="&lt;h3 style=&quot;forced-color-adjust: none; border-color: rgb(0, 0, 0); font-style: normal; font-variant-ligatures: normal; font-variant-caps: normal; letter-spacing: normal; orphans: 2; text-align: center; text-indent: 0px; text-transform: none; widows: 2; word-spacing: 0px; -webkit-text-stroke-width: 0px; white-space: normal; text-decoration-thickness: initial; text-decoration-style: initial; text-decoration-color: initial; font-family: Quantum;&quot;&gt;&lt;span style=&quot;font-weight: 400;&quot;&gt;&lt;font style=&quot;font-size: 30px;&quot;&gt;1 0 1 0 1 1 1 0&lt;/font&gt;&lt;/span&gt;&lt;/h3&gt;" style="text;html=1;align=center;verticalAlign=middle;whiteSpace=wrap;rounded=0;fontColor=#545A5E;textOpacity=40;" vertex="1" parent="1">
          <mxGeometry x="450" y="434" width="30" height="70" as="geometry" />
        </mxCell>
        <mxCell id="g7xP1a6qRHzM_47NsmWZ-35" value="&lt;h3 style=&quot;forced-color-adjust: none; border-color: rgb(0, 0, 0); font-style: normal; font-variant-ligatures: normal; font-variant-caps: normal; letter-spacing: normal; orphans: 2; text-align: center; text-indent: 0px; text-transform: none; widows: 2; word-spacing: 0px; -webkit-text-stroke-width: 0px; white-space: normal; text-decoration-thickness: initial; text-decoration-style: initial; text-decoration-color: initial; font-family: Quantum;&quot;&gt;&lt;span style=&quot;font-weight: 400;&quot;&gt;&lt;font style=&quot;font-size: 30px;&quot;&gt;1 0 1 0 0 1 0 1 1 1 1&lt;br&gt;0 0&lt;/font&gt;&lt;/span&gt;&lt;/h3&gt;" style="text;html=1;align=center;verticalAlign=middle;whiteSpace=wrap;rounded=0;fontColor=#545A5E;textOpacity=40;" vertex="1" parent="1">
          <mxGeometry x="480" y="582" width="30" height="70" as="geometry" />
        </mxCell>
        <mxCell id="g7xP1a6qRHzM_47NsmWZ-36" value="&lt;h3 style=&quot;forced-color-adjust: none; border-color: rgb(0, 0, 0); font-style: normal; font-variant-ligatures: normal; font-variant-caps: normal; letter-spacing: normal; orphans: 2; text-align: center; text-indent: 0px; text-transform: none; widows: 2; word-spacing: 0px; -webkit-text-stroke-width: 0px; white-space: normal; text-decoration-thickness: initial; text-decoration-style: initial; text-decoration-color: initial; font-family: Quantum;&quot;&gt;&lt;span style=&quot;font-weight: 400;&quot;&gt;&lt;font style=&quot;font-size: 30px;&quot;&gt;1&amp;nbsp; 0 1 0 0 0 0 1 1&lt;/font&gt;&lt;/span&gt;&lt;/h3&gt;" style="text;html=1;align=center;verticalAlign=middle;whiteSpace=wrap;rounded=0;fontColor=#545A5E;textOpacity=40;" vertex="1" parent="1">
          <mxGeometry x="510" y="504" width="30" height="70" as="geometry" />
        </mxCell>
        <mxCell id="g7xP1a6qRHzM_47NsmWZ-37" value="&lt;h3 style=&quot;forced-color-adjust: none; border-color: rgb(0, 0, 0); font-style: normal; font-variant-ligatures: normal; font-variant-caps: normal; letter-spacing: normal; orphans: 2; text-align: center; text-indent: 0px; text-transform: none; widows: 2; word-spacing: 0px; -webkit-text-stroke-width: 0px; white-space: normal; text-decoration-thickness: initial; text-decoration-style: initial; text-decoration-color: initial; font-family: Quantum;&quot;&gt;&lt;span style=&quot;font-weight: 400;&quot;&gt;&lt;font style=&quot;font-size: 30px;&quot;&gt;1&amp;nbsp; 0 1 0 0 0 0 1 1&lt;/font&gt;&lt;/span&gt;&lt;/h3&gt;" style="text;html=1;align=center;verticalAlign=middle;whiteSpace=wrap;rounded=0;fontColor=#545A5E;textOpacity=40;" vertex="1" parent="1">
          <mxGeometry x="540" y="482" width="30" height="70" as="geometry" />
        </mxCell>
        <mxCell id="g7xP1a6qRHzM_47NsmWZ-38" value="&lt;h3 style=&quot;forced-color-adjust: none; border-color: rgb(0, 0, 0); font-style: normal; font-variant-ligatures: normal; font-variant-caps: normal; letter-spacing: normal; orphans: 2; text-align: center; text-indent: 0px; text-transform: none; widows: 2; word-spacing: 0px; -webkit-text-stroke-width: 0px; white-space: normal; text-decoration-thickness: initial; text-decoration-style: initial; text-decoration-color: initial; font-family: Quantum;&quot;&gt;&lt;span style=&quot;font-weight: 400;&quot;&gt;&lt;font style=&quot;font-size: 30px;&quot;&gt;1 0 1 0 0 0 1 0 1 1 1 1 0&lt;/font&gt;&lt;/span&gt;&lt;/h3&gt;" style="text;html=1;align=center;verticalAlign=middle;whiteSpace=wrap;rounded=0;fontColor=#545A5E;textOpacity=40;" vertex="1" parent="1">
          <mxGeometry x="570" y="519" width="30" height="70" as="geometry" />
        </mxCell>
        <mxCell id="g7xP1a6qRHzM_47NsmWZ-39" value="&lt;h3 style=&quot;forced-color-adjust: none; border-color: rgb(0, 0, 0); font-style: normal; font-variant-ligatures: normal; font-variant-caps: normal; letter-spacing: normal; orphans: 2; text-align: center; text-indent: 0px; text-transform: none; widows: 2; word-spacing: 0px; -webkit-text-stroke-width: 0px; white-space: normal; text-decoration-thickness: initial; text-decoration-style: initial; text-decoration-color: initial; font-family: Quantum;&quot;&gt;&lt;span style=&quot;font-weight: 400;&quot;&gt;&lt;font style=&quot;font-size: 30px;&quot;&gt;1 0 0 1 1 0 1&amp;nbsp; 0 1 1 1 0&lt;/font&gt;&lt;/span&gt;&lt;/h3&gt;" style="text;html=1;align=center;verticalAlign=middle;whiteSpace=wrap;rounded=0;fontColor=#545A5E;textOpacity=40;" vertex="1" parent="1">
          <mxGeometry x="240" y="565" width="30" height="70" as="geometry" />
        </mxCell>
        <mxCell id="g7xP1a6qRHzM_47NsmWZ-40" value="&lt;h3 style=&quot;forced-color-adjust: none; border-color: rgb(0, 0, 0); font-style: normal; font-variant-ligatures: normal; font-variant-caps: normal; letter-spacing: normal; orphans: 2; text-align: center; text-indent: 0px; text-transform: none; widows: 2; word-spacing: 0px; -webkit-text-stroke-width: 0px; white-space: normal; text-decoration-thickness: initial; text-decoration-style: initial; text-decoration-color: initial; font-family: Quantum;&quot;&gt;&lt;span style=&quot;font-weight: 400;&quot;&gt;&lt;font style=&quot;font-size: 30px;&quot;&gt;1 0 0 1 1 0 1&amp;nbsp; 0 1 1 1 0&lt;/font&gt;&lt;/span&gt;&lt;/h3&gt;" style="text;html=1;align=center;verticalAlign=middle;whiteSpace=wrap;rounded=0;fontColor=#545A5E;textOpacity=40;" vertex="1" parent="1">
          <mxGeometry x="200" y="504" width="30" height="70" as="geometry" />
        </mxCell>
        <mxCell id="g7xP1a6qRHzM_47NsmWZ-41" value="&lt;h3 style=&quot;forced-color-adjust: none; border-color: rgb(0, 0, 0); font-style: normal; font-variant-ligatures: normal; font-variant-caps: normal; letter-spacing: normal; orphans: 2; text-align: center; text-indent: 0px; text-transform: none; widows: 2; word-spacing: 0px; -webkit-text-stroke-width: 0px; white-space: normal; text-decoration-thickness: initial; text-decoration-style: initial; text-decoration-color: initial; font-family: Quantum;&quot;&gt;&lt;span style=&quot;font-weight: 400;&quot;&gt;&lt;font style=&quot;font-size: 30px;&quot;&gt;1&amp;nbsp; 0 1 0 0 0 0 1 1&lt;/font&gt;&lt;/span&gt;&lt;/h3&gt;" style="text;html=1;align=center;verticalAlign=middle;whiteSpace=wrap;rounded=0;fontColor=#545A5E;textOpacity=40;" vertex="1" parent="1">
          <mxGeometry x="600" y="600" width="30" height="70" as="geometry" />
        </mxCell>
        <mxCell id="g7xP1a6qRHzM_47NsmWZ-42" value="&lt;h3 style=&quot;forced-color-adjust: none; border-color: rgb(0, 0, 0); font-style: normal; font-variant-ligatures: normal; font-variant-caps: normal; letter-spacing: normal; orphans: 2; text-align: center; text-indent: 0px; text-transform: none; widows: 2; word-spacing: 0px; -webkit-text-stroke-width: 0px; white-space: normal; text-decoration-thickness: initial; text-decoration-style: initial; text-decoration-color: initial; font-family: Quantum;&quot;&gt;&lt;span style=&quot;font-weight: 400;&quot;&gt;&lt;font style=&quot;font-size: 30px;&quot;&gt;1&amp;nbsp; 0 1 0 0 0 0 1 1&lt;/font&gt;&lt;/span&gt;&lt;/h3&gt;" style="text;html=1;align=center;verticalAlign=middle;whiteSpace=wrap;rounded=0;fontColor=#545A5E;textOpacity=40;" vertex="1" parent="1">
          <mxGeometry x="630" y="495" width="30" height="70" as="geometry" />
        </mxCell>
        <mxCell id="g7xP1a6qRHzM_47NsmWZ-9" value="&lt;h3 style=&quot;forced-color-adjust: none; border-color: rgb(0, 0, 0); font-style: normal; font-variant-ligatures: normal; font-variant-caps: normal; letter-spacing: normal; orphans: 2; text-align: center; text-indent: 0px; text-transform: none; widows: 2; word-spacing: 0px; -webkit-text-stroke-width: 0px; white-space: normal; text-decoration-thickness: initial; text-decoration-style: initial; text-decoration-color: initial; color: rgb(248, 214, 67); font-family: Quantum;&quot;&gt;&lt;span style=&quot;font-weight: 400;&quot;&gt;&lt;font style=&quot;font-size: 60px;&quot;&gt;metron&lt;/font&gt;&lt;/span&gt;&lt;/h3&gt;" style="text;html=1;align=center;verticalAlign=middle;whiteSpace=wrap;rounded=0;" vertex="1" parent="1">
          <mxGeometry x="320" y="270" width="210" height="60" as="geometry" />
        </mxCell>
        <mxCell id="g7xP1a6qRHzM_47NsmWZ-10" value="&lt;h3 style=&quot;forced-color-adjust: none; border-color: rgb(0, 0, 0); font-style: normal; font-variant-ligatures: normal; font-variant-caps: normal; letter-spacing: normal; orphans: 2; text-align: center; text-indent: 0px; text-transform: none; widows: 2; word-spacing: 0px; -webkit-text-stroke-width: 0px; white-space: normal; text-decoration-thickness: initial; text-decoration-style: initial; text-decoration-color: initial; color: rgb(248, 214, 67); font-family: Quantum;&quot;&gt;&lt;span style=&quot;font-weight: 400;&quot;&gt;&lt;font style=&quot;font-size: 80px;&quot;&gt;deepforge&lt;/font&gt;&lt;/span&gt;&lt;/h3&gt;" style="text;html=1;align=center;verticalAlign=middle;whiteSpace=wrap;rounded=0;" vertex="1" parent="1">
          <mxGeometry x="210" y="710" width="430" height="60" as="geometry" />
        </mxCell>
        <mxCell id="g7xP1a6qRHzM_47NsmWZ-11" value="&lt;h3 style=&quot;forced-color-adjust: none; border-color: rgb(0, 0, 0); font-style: normal; font-variant-ligatures: normal; font-variant-caps: normal; letter-spacing: normal; orphans: 2; text-align: center; text-indent: 0px; text-transform: none; widows: 2; word-spacing: 0px; -webkit-text-stroke-width: 0px; white-space: normal; text-decoration-thickness: initial; text-decoration-style: initial; text-decoration-color: initial; color: rgb(248, 214, 67); font-family: Quantum;&quot;&gt;&lt;span style=&quot;font-weight: 400;&quot;&gt;&lt;font style=&quot;font-size: 60px;&quot;&gt;ai&lt;/font&gt;&lt;/span&gt;&lt;/h3&gt;" style="text;html=1;align=center;verticalAlign=middle;whiteSpace=wrap;rounded=0;" vertex="1" parent="1">
          <mxGeometry x="380" y="320" width="90" height="70" as="geometry" />
        </mxCell>
        <mxCell id="g7xP1a6qRHzM_47NsmWZ-32" value="" style="shape=image;verticalLabelPosition=bottom;labelBackgroundColor=default;verticalAlign=top;aspect=fixed;imageAspect=0;image=data:image/png,iVBORw0KGgoAAAANSUhEUgAABEwAAARMCAYAAACDAQa6AAAAAXNSR0IB2cksfwAAAAlwSFlzAAALEwAACxMBAJqcGAABUolJREFUeJzs3QeYFEXeP/DfzOzs7M4msiJRUECCAhIFCQoqiqiIOZ3pTk+91/fe87w7z/u/F7zzwnuGU1HPHEBBgphQRECSkkHJknNmw+zMTvz/qkdOXFmoru6e7pn+fp6nn7rQ1VUPVdvV/ZuuKg8BAAAAAAAAAMD3eOyuAAAAAAAAAACA0yBgAgAAAAAAAABQCwImAAAAAAAAAAC1IGACAAAAAAAAAFALAiYAAAAAAAAAALUgYAIAAAAAAAAAUAsCJgAAAAAAAAAAtSBgAgAAAAAAAABQCwImAAAAAAAAAAC1IGACAAAAAAAAAFALAiYAAAAAAAAAALUgYAIAAAAAAAAAUAsCJgAAAAAAAAAAtSBgAgAAAAAAAABQCwImAAAAAAAAAAC1IGACAAAAAAAAAFALAiYAAAAAAAAAALUgYAIAAAAAAAAAUAsCJgAAAAAAAAAAtSBgAgAAAAAAAABQCwImAAAAAAAAAAC1IGACAAAAAAAAAFALAiYAAAAAAAAAALUgYAIAAAAAAAAAUAsCJgAAAAAAAAAAtSBgAgAAAAAAAABQCwImAAAAAAAAAAC1IGACAAAAAAAAAFALAiYAAAAAAAAAALUgYAIAAAAAAAAAUAsCJgAAAAAAAAAAtSBgAgAAAAAAAABQCwImAAAAAAAAAAC1IGACAAAAAAAAAFALAiYAAAAAAAAAALUgYAIAAAAAAAAAUAsCJgAAAAAAAAAAtSBgAgAAAAAAAABQCwImAAAAAAAAAAC1IGACAADgcKOuv7k5J334aMNHMR9n8tGWj5P5KOHDx0eUj4N87OBjLR9VfGzk44t3xrw214ZqgwJu6w70/bbuzEdrPhrzUUTpZ7cwH/v52MrHKvp+Wy/LfK0BAAByEwImAAAADsMvzV5ORlD6xbknH+cZvOQGPibRdy/VSw1eD0zCbX0SfdfWIjjSy+AlV/DxBn3X1jsMXg8AAMC1EDABAABwCH55Fl+LPMTH3XyUWljUV3yM5pfp0RaWAcfBbd2D0kGSf1lc1HRKt/UEi8sBAADIOQiYAAAA2IxfngdROlAyxIbi/83HI/xCvcWGsl2H2/peSgfEOma46D18iACZaOt4hssGAADISgiYAAAA2IRfngdTOlByvs1VSdJ3L9O7bK5LTuK2voHSgZJ+NlflG0p/cfJPm+sBAADgeAiYAAAAZBi/PDeg76beFNpcnaNV8HEPv0y/YXdFcgW3tVic92k+LrS7LrWIxWFFW8+zuyIAAABOhYAJAABABvEL9FWUfoFubHddjkN8fSC+Njlod0WyGbd1X04mUno3IydK8XEbt/MrdlcEAADAiRAwAQAAyBB+gb6Hk6fsroekfZT+AmG83RXJRtzWt3Lykt31kPQZpdt6jd0VAQAAcBIETAAAADKAX6Cf5+ROu+uh4F5+kX7a7kpkC27nMyj9BdFgu+ui0wE+RnJbf253RQAAAJwCARMAAACL8Uv025xcbXc9DPgrv0j/yu5KOB2380BKT8FpYHddFImgyS+5rbPlyxgAAABLIWACAABgIX6JfoeTK+2uhwke5xfp/7a7Ek7F7TyU0sGSYrvrYoK7ua2ftbsSAAAAdkPABAAAwCL8Ei3W/xhlxrU8/nzKO6kF5TVpRr4GTchbUp+8hUVE/gB5PB5KJROUqolQsrqSkuUHKH5gN8X3bKPE/t1mFH/Eo/wi/WszL5gLuJ27UzpY0sqM63mDxZR3civyNW5KvnqNua3LyFsQJE9evvb/pxJxSkWqKRmqoMTh/dzGuyi2ayslKw+ZUfwR13NbjzXzggAAANkGARMAAAAL8Ev0K5zcYugiPh/lt+5A+W07k/+U1vwm7dN9iWQ4RLEtaym6fgXF9+00VJ1v/ZRfpEebcaFcwO3cnJM5ZDBY4ikIUuA0buc2nSivUVOlayTKD1Bs02qqWbecklXlRqpzxBBu6+lmXAgAACAbIWACAABgMn6J/h0nv1fNL74mCXTsyUeP9FckJhEBk8jyuRTbut7opUbxi/QEM+qU7bit3+VkhGp+b3EZFZzVj/JP60Ien/6A2DGlUhTbso7Cy+ZQ4uAeI1day+3cwZxKAQAAZB8ETAAAAEzEL9B3caL8BUag3VlU2GOw9sWBVcRUner5H/PL9F7VS4i38A78Mn3YxGplHW5rMd1KadtlT56fCrr1p4JOvZS+HJKTouj6r6l64XRtCo+i33I7P2JmrQAAALIFAiYAAAAm4Rfo0zlZw4dXb15vsISCA4aT/5RTza/YsSST2hcI4osT8UWCgn/wi/QDZlcrW3BbX8PJWyp5xTo0RQNHaOvQZEKqJkzVcz+i6OY1qpf4Fbf1X82sEwAAQDZAwAQAAMAkquuW5J3ckorPG2npVyV1ie3cRKEZk7WXagXX8Yu0UtAgm3E7N6J0YKyh3rximlWw1xAir+6YmmGRlQsovGC6aoCsJ7f1IrPrBAAA4GQImAAAAJiAX6L7czJbb778U8/QvjawblrGiYnFQqumjtV2XdHpIKWn5uyzoFqOxW39GCf3680X7D2EAmIKjo3E+jVVMyZxo8f1Zp3M7XyFFXUCAABwKgRMAAAATMAv0cs5OVNPnvw2ndLBEo/9w7HYVaXyg9coGarUm/UJfpHWHTzIVtzOZ3Myl4+AnnzBvhdS4IyzramUTrEdG6lq2nhu9ISebNv56M9tvcWiagEAADiO/U9oAAAAWY5fon/Byd/15PE3a0PFQ6+2ZWpGXcSXJpXvvUqpaERPtigfbfhFeodF1XIUbuuJnOj60qKw+wAq6NrfohqpiW5aTSHxpYk+H3A7D7eiPgAAAE6EgAkAAIBB/BK9gZM2sud7SxtQ6YhbyZOv6yOFjNC+Pvjkbb3rXIzmF+mfWlUnp+B2bsmJri8stClXg505kyW85HOKLJujN9u13NZvW1EfAAAAp0HABAAAwAB+ib6BkzekM3i9VHrpj8jX8GTrKmVQeNFMiqyYpysPv0Tn/DMFt/VznPxY9nxvST0qvfx28vidFxjTpFJU+dGbFN+9VU+uWdzWg6ypEAAAgLPk/MMNAACAlfglWvxE30/2/IJu51IhH46WTFLFuy9S4pCutVzv4BfpF62qkt24ncWOOPv15CkZdj3lNW1tTYVMkqw8TBUTn6eUvkVgW2MtEwAAcAMETAAAABTxS3RbTr6RPd9bXEalV95FHp99O+LIiu/aon19oMNifonuYVV97MZtfSsnL8me7+SpOLVFls6m8FJdGzxhWg4AALgCAiYAAACK+CV6FCfjZc8vGnAp5Z/WxcIamavqk7cotn2jniyd+UV6pVX1sRO39ROc/EzqZK+Xyq78CXlL6ltbKZOk4jEqH/c0pSLVslm2cDu3trBKAAAAjoCACQAAgCJ+iZ7OyXky54r1LMpG3e2ILYRlxfds17Ya1iEnp+VwOxdxcogPv8z5+W07p7eLziKR5fMovHimniyDuK1nWVQdAAAAR8iepzYAAAAH4Zfo5pxskz2/sOdgKujS15SyEwf3UM36FRTftZWSlYe09Sc8+QXkq9+E/C3aUuD0M8kTKDSlLG0tkwN7ZE//M79EP2RKwQ7CbX0dJ2Nkzy8ZfgvlNWlmQskp7Quf6MaVFN+7k5KhCm2hVm9hEfkaNaX81u21qT/kNT7FS3xdcvitfxElE7JZfsVt/VfDBQMAADgYAiYAAAAKdE3H8Xio7Jr7yBssNlRmsrqKqud/TLEta49fXJ6fCrr2p4IufQx/0VKzaiFVfzFN9vSv+SU6e+YcSdIzHcdb1oDKrrzLcJnx/buoeu6HJwxWeYtKKdj3QvK3PN1wmVXTJ5ywbx3leW7rnxguFAAAwMEQMAEAAFDAL9G/5ETqF/a8k1pQySU3GSovcWA3VX7yNqXCIek8/uZtqei8kVoARVUyVEnlb/9LT5az+UV6iXKBDsRt/R4nw2XOLTjzHCrsMchQedENX1No9gd6vvbQAmSF3QcYLHclhWa9K3v6GG7nGwwVCAAA4HAImAAAACjgl+g/cPKwzLniRVa80KpKVhyiivdeoVRNWHdef4vTqHjIVYa+NKmY9G89Wwzfwy/SzygX5kDc1jM4GSRzbsmwGyivaSvlsmJb1lHVZxO0qTd6GZ32pU3LGfO47OmruJ07KRcGAACQBRAwAQAAUKBnwdeSYdfzS3RrxZJSVPneqxTft1MxP79I9zqfCjr3Vs5fPe8jqlmzVPb0/+MX6V8oF+ZA3NZi+5gTLwrj9VK9m35BHl+eUjliylXFxOcpFY0o5RdBsZJLf0R5jZqq5WcVE56jRPkB2dN7clsvUi4MAADA4RAwAQAAUMAv0Qc5kdo3tt4NPydPoECpnOjGVRSaOVkp7xGe/ACVXX2vlqoQwRIRNJH0HL9EG1/Ew0G4rT/jZPCJzvPVb0ylV9ypXE71vKn8b21sNpP4ukV85aIqNPNdbZFZSfdxWz+lXBgAAIDDIWACAACggF+ipeZMeAqCVO/6+5XLqfzwDYrv3qqc/4jgORdRoEN3pbzxXZup8iPpTWI+45fo85UKciBu5xacSDWAv1V7Kj7/SqVyUvEYlY95XEuNKr3yJ+Qra6iUN7zkc4osmyN7+mPc1j9XKggAACALIGACAACgQDZg4mvQhEovv0OpDPHyfPj1fyitZ1Gb2EVFW8tEQaL8IFVMeFb29HX8Et1eqSAH4nYW/2jjZM4NnNGDgn0vUContmMjVX38llLe2gp7D6GCTr2U8tasXabtziPp39zWP1YqCAAAIAsgYAIAAKBANmBiZIpEYv9uqpjyklLe2rwl9ajsqp8q5dW5GOg+foluolSQA3E7P8jJozLnGtmpJvL1lxReMF0pb22BdmdRsP8lSnmjm9dQ6LOJsqe/w22tFoUDAADIAgiYAAAAKJANmPibnUrFF16nVEZs52aqmio9Fea4PPkFVO9GtdkTqVgNHX79/2RPr+CX6DKlghyI2/mPnPxW5tzC7gOpoGs/pXJ0ToU5LiNTg2Jb11PVp+NlT3+P23qEUkEAAABZAAETAAAABfJfmLTWdslREd+7gyrff1Upb23eYAmVXXufUl6xnfHhNx+TPf0gv0SrLaDhQLq+MOl2LhXyoSKyfB6FF89UyltbftvOVDRQLY4R27KWqqZPkD19Erf1SKWCAAAAsgACJgAAAAqk1zBpdDKVjrhNqQydgYrjMjI1KFl5mMrHPyN7+iZ+iW6jVJAD6VrDpFMvCvYeolSOzqkwxyWCNgWKgZvo+hUUmv2+7OmvcFvfqlQQAABAFkDABAAAQIFswMQbLKaya3+mXE7F5BcocXCvcv4jxNoaYo0NFTq/dJnPL9HnKBXkQHp2yck/tSMVDb5cqRxtnZixT5iywG/JJTdR3kktlPJGVsyn8KIZsqc/ym39a6WCAAAAsgACJgAAAAr4RTrESVDm3Ho3P0CePL9SOZFlcym8ZJZS3v/weKhs1N3awq8qohu+ptCsKbKnv8Ev0TcpFeRQ3NafcTL4ROf5GjWl0hHqH1xUfvQmxXdtUc4veEvqU9lVd5HqI171nA+pZt0y2dN/y239iFJBAAAAWQABEwAAAJ34BfrvnPxC9vyS4bdQXpNmSmXp3NL3mALtu1Gw3zDl/OGFn1Hkqy9kT3+WX6LvVi7MYbit3+REahEajy9PC46JAJWKmjVLqXreR0p5jxBrl4g1TFRVvvcKxfftlD39em7rscqFAQAAOBwCJgAAADroDZYIhb3Op4LOvZXLrJj8IiUO7lHK6y2tr62h4skPKJdf+cHrFN+zTfb0X/JL9N+VC3MQPcGSI0ovu418DU9WKs/otBwju+No5Sfi6d2QkgnZLG24rTcpFwgAAOBwCJgAAABIUgmWCP7mbaj4gmuVy1XdQcVbVKot9CqCJqpSsSgdfvOf/BKdlM0ygF+iZysX6BAqwRKhsMdgKjizr3K5VVPHUmyn/hiEWNS3eOjVylO/hNiOjVT18Vuyp8/mdh6gXBgAAEAWQMAEAABAgmqwRBBrh5Rd9VPlslPRCNWsW06xTaulp0v4m7el4LnDyVtYpFyuEN20ikIzJsuenhM75KgGS4RAu7Mo2P8S5bIT5QcounYZ/7uvpmSo4sQZPB4KdOxJwZ6DuaP5lMsVqudNpZo1S2RPn8BtPcpQgQAAAA6HgAkAAMAJGAqWFJVQybAbDX3lcbRkVbkWxIhtXkvx/bu+N31DfF2Q1+xUCnQ4m/ycmqFq2jiKbftG9vQX+SX6DlMKtomRYEle09ZUPPQqQ195fCdF8b070229ZZ3W7kfzFAQpv+Xp2lbGvvqNjReXTNDhsU9qW1lL+ju39S+NFwwAAOBcCJgAAAAch5OCJbWl4jFKVh7WUk+ggHzF9bhQr2nXFy/p5eOf0bOmxkP8Ev1n0yqQYc4JlvxQMhxKf3GSTGpfDXlLysjMxzidOyEJV3JbTzStAgAAAA6EgAkAAEAdnBwsyYTq+R9TzerFerKczy/Rn1lVHys5OVhivRRVTHqBEof2yWao4qM+t3XcwkoBAADYDgETAACAY3B7sER8uVI+4Tk9O6Zs5xfoFlbWySruDpYQRTeupNDMd/VkeZDb+m9W1QcAAMApEDABAACoxe3BEqHq03cotnWdnixZOR3H7cESsQtSxcTn5RaY/c5AbuvPraoTAACAUyBgAgAAcBQES0jboSU0Y5KuPPwCnXXPFG4PlgjV8z+hmtWL9GTZzG1tzorCAAAADpd1DzcAAABWQbAkvdBrxeQXta2MdZjCL9GXWVUnKyBYQhTbup6qPh2vNxum4wAAgGsgYAIAAEAIlghiekblB69R4uBevVl780v0AivqZAUES4gSh/dT5fuvUipaoyfbVm7nVlbVCQAAwGkQMAEAANdDsIS0xV2rpo2j2I5NenNO5pfoK6yokhUQLOGmDlVqgTHxNZFOv+a2ftSKOgEAADgRAiYAAOBqCJYQpRJxCk2fQLHtG/Rm3cHH5fwSrWsRDLsgWJKeclU5dQwlKw7pzbqK27mTFXUCAABwKgRMAADAtRAs4RfocIhC09+h+N4dKtl/yy/Rj5hdJysgWEIU37+LQp+Op2R1lUr2wdzWM02uEgAAgKMhYAIAAK6EYAm/QO/aQqFZ76q+QK/lF+gOZtfJCgiWENWsWULVX35KlIirZH+E2/q3ZtcJAADA6RAwAQBX4Bemrpz04aMNH8V8lPDh40OseCi+TRdvjBv5+IJfDNbYVU/IDLcHS8RCn+Els6hm9WL+LynVywzhv5XpZtbLCm4PliQrD1P1/KkU275R9RJb+ejAbR02sVrKuD3Poh/ey/MI93IAALAAAiYAkHP4gfpS+v4DdUs+ztRxCbHbB79Jfu/Be5nZ9QR7uDlYItYqia5ZSuHlcykVqTZyqev5b2KsWfWyipuDJWKqVc1XX1Bk9SKiRMLIpS7ltn7frHrpwe03nH54Lz9LxyXEvXwJff9evtTsegIAQO5CwAQAcgI/WPel9IP1w3xY8Ta7go/R/LD9rAXXhgzJ2mCJ+ArEoz5kJ8oPUHT9V1SzbpnRQInwOP8d/LfRi1gta4Mlhto6RfE927mdl1N04yrV6TdHu53b+iWjF9GD2603pe/lv+OjgQVFfEXpe/loC64NAAA5BgETAMhq/HAtXtzu5uP0DBY7hdJz+hdksEwwKFuDJYmDe6jq47fIW68x+U9pTXlNTiFfg5PIEyisI0eKklUVlDiwh1+et2rbBCcO7TOrOm9wv7/JrItZJVuDJdFNq6h67lSuQyvy8+FrzG1dv3HddUkmKVFxkBL7d1F891ZtlyPF9WiO5S/c1r8x62Inwm32X5S+l7fPVJlMfDkj7uVfZLBMAADIIgiYAEBW4ofrByn9cN3KxmrMoPTDtuPXcXC7bA6WVH40hlI1P1w+wpMfIG9hsZaSx0upZJzPi/ALc6XRKRh1Gcd9/RorLmymbA6WhGa+e8w1ZTwFQW7rIvL487X/noqLtq5OB0fU16A5nqe4re+z4sK1cXs9QOl7+amZKK8OMyl9L//UxjoAAIADIWACAFmFH64HcvI0H53srstRXqP0w/Y6uysCP5SLwRIbjOX+rRSEyKRcDJbY4Alu6/utLoTb6lxK38u7WF2WDm9Q+l6OxWIBAECDgAkAZAV+uBbzDx769nAi8aZzD+bFOwuCJaZ4jvv1XXZX4kQQLDFMLG7zZ27rR6wshNspQOn7+MNWlmPQvfzv8LTdlQAAAPshYAIAjvftTgni4bWl3XWR8BN+0H7e7koAgiUmuZ/78xN2VoDbsS19f6cUMS8lSUftfELpBUIRLFEngiUjua0/trIQbsuLKX0vb21lOSYRAfBn7K4EAADYCwETAHA0fsC+jZMX7a6HTnMo/bC9wu6KuBWCJYYdonQfztjWwdxmLej7gZGL+Kjho59VZSJYoplP6ba2dLtdbt8fcfKylWVYQATjxL/NErsrAgAA9kDABAAcix+w/8LJr+yuh6JKSv9ii0UEMwzBEkNEoOR1Sq/jsDcTBXJ7XUXpRT8HZ6K8IxAsydz2utzGYppPxnbcMZn4gxT38ql2VwQAADIPARMAcCR+wP4XJ/faXQ+DRNDkdn7QHm93RdwCwRJDZlL61/RVVhfE7dSO0utY3Gx1WceCYAlNpnRQbJHVBXFbiyldP7O6HIuJP8zbM/nFFQAAOAMCJgDgOKY/YHs85KvfmHwNmpC3uB55g8Xp7Tn5fxfbryajEUqFKilRfoASB/akt2U116X8oP2+2ReF70OwRJl4aRZfGrxkdUHcRn0pHSi5xOqy6uLyYMk0SgdKZmWiMG7vxzgxb8edI/fy+nwvL6n33VbLXu/37+UVBymxf7cV9/LL+d/uXbMvCgAAzoWACQA4Cj9gi8Ubf2/0Op78Aspv3YH8rdpR3skt0w/VkpKVhym2YyNFN6+h+K4tZrzcxPjozw/aC4xeCI4NwRIl4/j4fYa+KGlK6UCJmHrjtbq8urg0WCIKFNNuRKBkZ6YK5TYX7f0no9dJ38vbk78l38ubttJ3L68qp9j2DRTbvJZiuzab8W8vFhsW9/L5Ri8EAADZAQETAHAMfsAWvzpPpPQuGErEr48FnXuTv01H8vjyDNdJPHDXrF5ENWuWUioWNXKpRfyQ3dNwheAHECyRto/SL86H+ZjC/XFDJgrl9rmR0jujlGaivLq4LFgidg8Sbb2H0m1dnqmCBW7zCyl9Lw+qXsNXrxEF+F6e37aTSffyiqPu5TVGLrWU/z27G64QAABkBQRMAMAR+AFbBBPE7jJKwRJvUSkV9hjMD9cdyYpbm3ipDS+dww/bi/nJO6l6mf/iB+0nzayX27k4WHKAj4Z1/H/irXwLH8voqK13ue99pFqYKm6fazh5K9Pl1pblwZIQH0V1/H/i67VvKD2t6ui2nqNamFHc5t0ofS9XCpaIv0vtXt6mU3rapMnE31xk2VyKrF5k5F7+c/43fszMegEAgDMhYAIAjsAP2WK6itIXGIEzztYesPV8qq1KvOiGPn+PU+UNRMTn3HPNrJNbuThYIqbR/K+JVTIdt00rSn9VYttaJUdkebDkOm5r2wNOenDbz+Okr0reQIduVNjz/Azdy/d+ey/fo3qJQZlaCwYAAOyDgAkA2I4fsO/jRPeXF2Jue9GAS8nf8nQLalW3VCJB4S+nUc2aJSrZRaRFBE3Wm1wtV0GwxLm+/VpMTMdobnddECzJLG57sUbNM3rzefID397L21lQq+NIJqj6y+naVB0FByl9L19tcq0AAMBBEDABAFt9u2vGi3ycoSeft7iMii+8lnxldc1KsF7N6sVU/cUnKi9E0/gh+wIr6uQGCJY4F7fNUEoHS4rtrguCJZnFbd+Lkxf46KInn5hOqd3L6zWypmISxLom1fOnqrTXDG6n86yoEwAAOAMCJgBgK37IFtvt6vpsX7zsai+9/PJrt+iGlRT6fIrKg/bN/KD9uhV1ymUIljgXt01/SgdLGpt1TRHsEAs5e8sakDdYQp5AAXm8Pv5zS1EqWkOpcIgSFYcocWgvpSLV/8mHYEnmcfuL7XZH6MkjtgbW/iaLbV0PWBPdtJrbbbJKu93G7fWyFXUCAAD7IWACALb59tfoT/TkES9NJcNvccQD9hE165ZT9ZwP9Gabzw/Z51hRn1yFYIlzcduIuRRioU/DwRJfg5O0LcHzmrehvIYnSy/8maw8RLEdm7XgSWHP8xAsySBuf/GVxXQ9ebzB4m/v5WUW1Uq/6PoVFJr9vt5sC7nNellRHwAAsB8CJgBgG37InsnJQNnzxdaSJcNvJp94iXKY8KIZFFkxX2+2e/lB+2kr6pNrECxxNm6faZwMUb6A10eB0zpToGMPLWCSjdwaLBG4/UWwRH5qiriXX3IT5TVqal2lFIUXz6LIct3rct/PbfeEFfUBAAB7IWACALb49hfptXryBPtfTIF2XS2qkUH8klT50ZsU371VT66V/JDd2aoq5QoES5yN2+dmTl5VzZ9/WhcqPHugtpZFtnJ5sKQNJxv05AmecxEFOnS3qEYGiXv51LEU37VZT6613H4drKkQAADYCQETALAFP2SLF6ybZc/3tziNiodebWGNjEtWlVPFxOcpFY/pydaDH7QXW1WnbIdgibNx+4i3XrFuSSu9eUW7FJ07nPJOamF+xTLIzcESgfuAWLT7Ntnz/c3bUPEF11pYI+OSoYr0vTwW1ZOtD7fjl1bVCQAA7IGACQBkHD9gN+Nku+z5Yi2C0it/khW/QEe++oLCCz/TkwXTcuqAYImzcfuIbYPFuiW6gyX5bTtR8Jxh5PHnm1+xDEKw5GYxf2q3dAZfHpWJe7mD1i2pS83KBVT95ad6smBaDgBADkLABAAyjh+y7+bkGdnzC87qp32ynxWSCSp/51ntaxMdGvKD9kGrqpSNECxxPpVdUYTCswfx33T2r3fs9mCJwH3gTk6elz2/4My+VNhjsIU1MlEySeUTntMWE9bhJG7TvVZVCQAAMg8BEwDIOH7I/gMnD8ucK74uKbvmPm070WxRs3YpVc/9SE+WW/kh+xWLqpN1ECxxPm6jUZyM15sv2PdCCpxxtgU1yiwES9K4H/yOk9/LnKvdy6++hzwFQYtrZR6FHdDu5HZ9war6AABA5iFgAgAZxw/Z+zhpJHOueLkSL1nmSFF8z3aK79pKCfGrYSKhBWJ89ZuQv3lb07YqTiXiVP7Wv/S8OD/HD9l3mVJ4lkOwJDvo3hWFFfY6nwo697aoRpmDYMl3uB/s4kRq27JA+24U7DfMpJLFvXwHxXdvoURF7Xt5G/Om/CQTdFjcyyPVsjle5La9w5zCAQDACRAwAYCM4gfsizmR/smu9PLbTdlmNLrhawovmX3cz6v9LU+nwp7nka+soeHyqr+cRjUrF8qePosfsgcZLjTLIViSHbidxAvhv/XkMTfwaR8ES77D/eACTj6WPb9kxK2mbCMc3bCSwkv5Xl5R9yxGsUi4di+vJxWXP67wgukU+Vp6Lde53L79DRcKAACOgYAJAGSUnuk43rIGVHalsQ8vxC4HoVnvUmzrerkMPh+/2F1EgXZnGSo3vncHVb6va6fV1vygvcVQoVkMwZLswW0ldnWS3hM2r/EpVHLJzdxQXgtrZT0ES75Pz3Qcb0k9Krvqp4bKE7uPhWZNodgWyd3oveJefoH2ZYsR8f27qHLKy3qynMbtrGubZQAAcC4ETAAgo/gh+w1ObpA5t6BTLyrsPUS5LDE1pmrqWIrv2aY7r+G1Fvil6vDYJ/R8yn0tP2S/rV5g9kKwJHtwW3Xm5CvpDL48Kr38DvKVNbCuUhmAYMkPcV94hZNbZM4NdOxBwT4XKJeVSiSo6mO+l+/eqjtvsM9QLr+nctli+s/hsU9SKhySzXAjt/WbBgoEAAAHQcAEADKKH7Inc3KZzLnFQ0aRv2U75bKq531ENWuWqmX2eLRfxfOaNFMuv2r6BPlfQ4l+ww/Zf1EuLEshWJJduL2e4uQe2fMLuw+ggq7ZPUMBwZJj477wDidXypxbdN5Iym/dQbms6vkfU83qxWqZxb384hsp76QWyuWHZkzifrBa9vTfcXv/UbkwAABwFARMACCj+CF7ByenyJxbdu3PyBssVipH4TPqHxBrp5Refhup3iojy+dRePFM2dP/zA/ZDykVlKUQLMku3F5iVWSxCJDU3BpvsIRKr7qbPL48aytmIQRL6sb9QUwhbClzbtnV9yovqp04sJsq3n1JKe8RvvqNqfQKsfSO4r38q/kUXjhD9vS/cZs/qFQQAAA4DgImAJBR/JAt9ebh8Qeo3k3/o1xOaOZkim5cpZz/iOILryN/s1OV8sa2rKOq6e/Inj6ZH7KvUCooCyFYkn24zW7k5HXZ88UUDDEVI1shWHJ80vfyPD/Vu/kB5XLEuiVi0W6jii+4RtsNTUVs2zdUNW2c7Onvc7tfqlQQAAA4DgImAJBRsg/Z6V8E71QrRGwF+cY/tUUCjQp06EbBc9S2wtT5y+gSfsg2sGhK9kCwJDtxu43iZLzMuZ78gPaFmHhZNkMqGqH4zi2UOLyPkjUR8vh83AcaUN7JLchXav76KAiWnJj0vbysIZVe+RO1QpJJOvzmP7XFu40SC3kH+1+ilDdxcC9VTH5B9vQV3PbGVg0HAADHQMAEADJK9iE77+SW2rxzFeLFtmLyi0p5a/M1PJlKL7tNKW8yVEHlbz8le/o2fsiW+rw9myFYkr247aZzcp7MuYEO3Sl4zkWGy0yGKimy9HOqEV8YJBLHPMfXoAnln3oGHx1N6RsIlsiRvpef1Dy9S5KCxKF9VDFJ1w7WdRL9RCxArCJZXUXlbz0pe/oubn+paacAAOB8CJgAQEbJPmSLT6fFJ9QqYts3UtUn5ryviDVUxC/lKsTL9eE3H5M9/QA/ZDdSKihLIFiSvbjtmnMivd1UySU3GVpkU4htXkuh2e9TKlYjncfX8CQK9ruY8ho1VS63fNzTlKwqV83uimCJIH0vP+VUKr7oOqUyYjs3aTudmcFTEKR619+vlDcVraHDb/yf7Onl3AfqKRUEAACOg4AJAGRURgImOzZS1ccImDgJgiXZTd90nAKqd8N/a7uTqIpuWEmhz6cofeVhZOqFUD33Q6pZu0wlq2uCJYL0vbzZqdpaUCpiOzdT1dQxSnlrQ8AEAABUIGACABmVkSk5Jn7Gndf4FCq59EdKecWv1OLXaklb+CG7tVJBDodgSfbjNvwlJ3+VOdff8nQqHnKVclnalLopr2hrEanQAjbixdgrtZnPD2jBmlnv6s3mqmCJkJEpOeUHqGLCc0p5azM0vbK6ksrf+pfs6Tu4LzRXKggAABwHARMAyCjphQLrNaLSkT9WKySVSi8UGJX/lL8ugY49KdhnqFJenVsbL+KH7J5KBTkYgiW5gdvxD5w8LHNuYfcBVNC1v3JZle+/SvG9O5TzC8VDryF/C7UdUZIVh6j8ndF6srguWCLI3su9ZQ2o7Mq71AoR9/Ixjxv5O/yPwBlnU7DvhUp5da6LtYz7QzelggAAwHEQMAGAjMrYVpSz36fo+hXK+Y8oGX4z5TVR+7EwunkNhT6bKHv6O/yQrf6zvAMhWJI7uC3F/thXypxbdN5Iym/dQamc+O6tVPnhG0p5j5Z/WhcqGqC4syu/pB96jbtuIi5zdpLb2qdWUHbjPpEkmedIXx7Vv+UBqVOPxcAUqe8RXyyKLxdVYIt4AAD3QsAEADKKH7I3c9JK5tyyq+8hb3GZUjmJw/vT03LUd7rQFq0Ui1eqiiydTWE+JL3CD9m3KhfmMAiW5BZuz4Wc9JA5t2TErcqLrlbP/4RqVi9Syns0o+uolE94lpLlB6XO5fZ25bMU94lvOJH6jKfsqrvJW6L296xNyxH38mRSKb+Q16QZlQy/RTl/ZPlcCi+eJXv6I9wnfqtcGAAAOIorB3kAsA8/ZIuFI0fJnGvkl2ohvHgmP+jOU8rr8eVpL36++o2Vy6+aNo5i276RPf13/JD9R+XCHATBktyTqUBn5XuvUHzfTqW8tZVe+RPylTVUq8cHr1N8j9ymQC4OmIjta66VObdo0OWU36ajclnhJZ9TZNkctcx8Ly+99EfatsKqqj59h2Jb18me/mvuE48qFwYAAI7iykEeAOzDD9liUY8fyZxrZM65JpWiqs8mUmzLWn35vF4qHnQF+Vu3Vy87maTDYx7Ts47KBfyQPU29QGdAsCQ3cbvu5UQqeigWXBU7kqgQC2uKBTbNUHzR9eQ/pbVS3qqPx1Jsxyapc10cMBEra98hc26gfTcK9humXhjfy0MzJmnTHHXxeNLBmlPPMFS22O0sFY3I5riG+8Q49QIBAMBJXDnIA4B9+CFbLBz5B5lzvUWlVHbNvcYKTCapesF0qlm1UOp08aJXNHAE+Zu1MVRsfNdm7QVc0i5+wD7FUIEOgGBJ7uK23ceJ1LbXjgmYXHidtqWtCrEtudieXIaLAya/5uTPMud6gyVUdq24lxv4p0qlKMz38sjKBVKnewKF6Xt5c7XFf49QWFenFfeJrYYKBQAAx3DlIA8A9uGHbLHlzCey54vtKMW2lEaJz+vDi2bW/Zm9z6f9ClrYtb/yy97Rqud8SDXrpBcqnMIP2JcZLtRGCJbkNm7fLZxIrZhZdvW95C0uVSqnYsrLlNi/SylvbaVX3Kk8pQ5Tck6M+8RgTj6TPd/IoqtHi+/dnr6X764jJiHu5e26UmG3c825l8+bSjVrlsiePpP7w2DDhQIAgGO4cpAHAHvxg7ZYpEBqVUhDu10cg/jyI7x0zncP2748LVBScGZf8gaLTSkjFavRfilPxaKyWR7nh+z/NqVwGyBYkvu4jRdz0l3m3NLLbiNfw5OVytH5clonjz+f6t3wc216nYqKic9rC0fLcGvAROB+IW6kLWTOzW/biYoGmhcXju/aQuFlc7RUowVK+F5+Vl/tixYziHt4+l4uPbXyKe4P95lSOAAAOIJrB3kAsI+eaTnk9VHZ1T817QH4CPGQHdu1mQIdzjYtUHJE5KsvKLxQ+odX4Vp+yH7b1EpkCIIl7sDtLPbHltoqtfj8K8nfSm39H51T2eqU37azNh1D1eHX/k6peEzqXJcHTKSn5YjgVdmonyp/fVQXEfwW682INa/MvpfXrFxA1V9+qifLjdwf3jS1EgAAYCvXDvIAYB9+yL6Zk1dlzw906E7Bcy6ysEbm0X6RHP8MpSLVslnET5f1+SFb+c3dLgiWuAe39Z84eUjm3MKzB1LBWf2Uy6qY8hIl9u9Wzi8Y+colWVVB5eOekj19K/cFqd2DchH3i+s5kQ4QBNp3pWC/iy2skXlEwKyC7+XJcEg2S4LS93JzFuEBAABHQMAEADKOH7LrcXJIOoPXyy9Atxva4jdTxNz6yApdWxnfzA/Yr1tVH6sgWOIu3N6/4uQvMuf6W7Wj4vOldg4/JrGtcOUHr2kLNqsInNGDgn0vUC5f7KpVNX2C7OmTuD+MVC4sy3G/EJ90iHt5nlQGjycdzGpwkqX1MoPCVsa3cV942ar6AACAPRAwAcgAfqgUW6704UOk4gHTz4d4Y6viQ2zF8IXbVtXnf5NnOLlb9vy8Js20BWDFA7dTJQ7tpYp3+Xk5mdCTrR23/Xqr6mQFBEvch9v8ak6kpo2J3UnETjlG/lZr1i2n6jkf6M4nFhUtueg6bSqfquovPqGaVYtkT3+d+8TNyoXlAO4bT3IivW5HXuNTqGT4Lc6+lx/ez/fyF/k/6LqXd+S+sNqqOgEAgD2cO1oBZCF+cBxI3w+MiNXyN/DRXyL7TD7EKqH/CaJQevcUuYn0WYb/rZpxsl1PnsLuA6mgq/qn/lZKJeJUKXb4OLRPT7b53L7nWFUnKyBY4k7c7mJ7ky2y55cMv5nymhjb3Sq64WuqnvuR9Foi+aeeQcFzh5Mnz2+o3PLxoylZKf0BnKv7hcB9Q3wuomsOVUG3c7VdbJxIu5e/96p2z9BhIfeDXlbVCQAA7IOACYBB/LDYg9JBEvESafZcdjF5ejQfs/lhbIrJ17Yd/9t9yMkw6QweDxVfcA35m7WxrlKKQp9Poeg3X+vNllXTcRAscTdu/xmcDJI5N9CxBwX7qE+LOSJZcYjCi2dSdPMafpNNHfMcX1lDKug+QAuYGBXfv0sLfOowjPvGVMMFZznuG+9xMlw6g7iXD72a/M3bWlcpRaHZ71N0/Qq92TAdBwAgRyFgAqCIHxDvpfSUko4ZKvIwpYMnj/CDmfQqdE7G/4bicxFdk8Q9/gCVXHKjo+bAh5fOpggfOk3jdjT+Rpkh3FbXcPKWSl4ES3KD3mk5ZdfeRx6f3NIWJyIW3oxv30Dxg3u1thTXFf0pr2krymsktUO5lOp5H1HNmqWyp+/lvuGcG5GNuG+IHw3m68kjtn4uufhG5cV5rRBZNpfCS2bpzTaD+8F5VtQHAADsh4AJgE78YPggpQMldu6M8CylAye6prQ4Ef97ij1Er9OTx1MQ5Bfw68lXv4lFtZIXWTGfwotm6M22l4/+2bJ2CbeRmFqma5/kIxAsyR3cD27h5BXZ84PnDKNAh27WVchkop+Uv/2U9BQg9hL3j9utrFM24f7xGic36ckjAmvavdwBAfDI119SeMF0vdkOUvpejrVLAAByFAImAJK+XZ/kaT462V2Xb63kYzQ/qD1td0WM4H9X8e/5L0qv9yLNk19AxUNGaYs82iNF4YUzKPLVFyqZ3+R2u9HsGlmF22gVJ7rnOyBYklu4H4iGPCh7vre4jEqvvIs8PvUFWDNJYYerH3Mf+bdV9ck23D/ac7JGbz5PfkDbVUl8LWQPvpcvmqW37Y94i/uAroA/AABkFwRMAE6AHwLLOHmIjwfsrksdvuTjHn5oW2x3RVTxv/FVnIzTndHrpWCvIdp6CZkkXsJDn79HsW3fqF4ia3ZT4Lb5NSd/1psPwZLcxP1BTAu8S/b8wp6DqaBLXwtrZI5kVTlVTHhOW/BTh5O5n+haGTTXcf/4KaV/WNBH3Mt7nkeBTpldNzUVjaTv5VuVP/brwn1A9+JVAACQPRAwATgOfvgbSemHP+dMsj62CB8j+cHtI7sroor/rcWitpeq5BULBwb7Xay9pFtNBEnEzh3J6krVS9zH7fSUmXWyEreL2O66hZ48CJbkLu4P3TmRDs6KHWtKr7iTvCX1LKyVcVXTxukNgGI6Th24jzzKyYMqef3N21DwHL6XF5eaXKsfim3fyPfyDykZqlC9xP3cB54ws04AAOA8CJgA1IEf+sSvqKPtrocOImjyND/AKe1iYjf+9xYv5WIBWKU5NmIBwYIz+2q/UBrdVvRYEuUHtCk4sa3rjFzmj9w+vzOrTlZTWbsEwZLcx/3iK046y56fd1ILbXFPsTOKE9WsW0bVcz7Um60t95WNVtQn23H/EJFrMTXnFJX84v79n3s539fNlig/qK07Fduy1shlrub2H29WnQAAwLmc+fQCYDN+4Huck/+yux6KxvCD3A12V0IF/7ufzclEUgyaCFYtNFn5wesU37PNyCVu4HYZY1Z9MkHvdBwES9xBZdpFQZfeVNjzfItqpC6xfzdVfPAa/wddU3GwK8oJcB+5nJNJRq4R7HshBc4426QafafyozcpvmuLkUu8x+0/wqz6AACAsyFgAlALP+iJRfzusLseBk3gB7pRdldCBf/7ix2InlHN79CAyVRuj2Fm1icT9PwtIFjiLtw3xNdg/fTkCfbjv832ztk1R6xbUvn+q5SsrtKbdQj3F93bqbgN95Efc/Kcan6HBkzEFEWxK46h6DkAAGQPBEwAjmJFsMRbVEq+eg35RbIBeQIF5MnL1xa4E79opiJhbf60mO6ROLyfKJUys+hsDpr8P07+VyWvAwMmuyj9gJ11n+9zO4zl5FqZc4sGXU75bTpaXKNjq5zyMsX371LN/iS3TbZ+TWYb7hviK7Y3dGXyeKhowKWU31Z6No9lxBpElR++QcmKQ3qz4usCHbifPMzJH1TyOjBgso+PYdm8wDoAAOiHgAnAt/jB7jFO7jd6HTH/2t+qHfmbn6Ztk+gNFkvlS8Vj2gt5bNsGim1erfKr57Fk7ZaH3B7iIfthvfkcFjARb/FiMV6lvYftpieAqG0NeuF1lNdYadkCQ5JVFfwSxC+/lYdVL4GgiQLuH1M5uVBXJo+Hgr2HZnxnq6OJ4HTVJ29rX5joJHa2upX7ypcWVCtnqQbAHRYwEcEScS+fY3qFAADA0RAwASDtge5OTp43cg3xBUlBlz7ar+yGF6pLpSi2fQNFVi6g+M7Nxq5F9C9+yPuZ0YvYgdtFBLAe05PHQQET8TJ5TzZ+WXKE3jVMEDRxF+4fbSm9ULPuXcTE1JzCPheQx+czv2LHEduyjkKz36NUtEYl+8+4j/zL7Dq5AfcVMQbp2lHGQQGTTyl9Lze04jcAAGQnBEzA9fhB7jJOJqvmF2s3FPY4Lz0dwYJdIOJ7t1N4wXROdxi5TNau6M/tIxZXFAvBlsmc75CASdYt8HosKrvkIGjiLtxH+lL671N30MRXv7E2RcfX0Ppd21OxKIUXfkY1a5aoXmIh941eZtbJbbivDKR0X2kgc75DAia3cLu/ZnolAAAgayBgAq7GD3BivozY/rCZSv6CTr2ooPsAS7Y+/L4U1axdpgVOxIO/okH84DfLzFplCrfTs5z8ROZcJwRM+N85Z+6t/G8vFjlsoScPgibuwn3kHk6eUsrs8fDf69lU2K0/eQqC5lZMSKUouuFrbRtZA9McxU1XrEO00MSauRL3FdFP7pE51wkBk1y6lwMAgBoMBOBq/PD2F05+pTefeLAvGjiC/M3aWFCruiUrD1HV9InariAKVvLDn/2rLSpAwMQ+eqflHIGgibtwPxHr9PRWzS/WfhJ/t4EzepC3pJ7h+qQScYpuWEk1X3+ZXlDbmOHcHz4wXClAwAQAALIOBgJwLX5w60Pp+fe6JtH7yhryi+C15C2WmiFiOrE4bGjWu9pcfAW/4gfAv5pdJ6shYGIv/vdfxckZevMhaOIe3EfEm624nxYYvZZYLDu/dQfyN29D3hL5bapTsRrtRTjK98bYlrWq65TU9jD3gz+ZcSFAwAQAALIPBgJwLX5wE1sDdteTR8y1L7nwWms+HdcjldIWLox+87XenOIp8RJ+CFxpQa0sg4CJvVTWMjkCQRP34H4yjNJrVBgOmhwhdhnzNTiJvGUNtfWivIFCvhH7uHGT2vTEZLiKkhWHKXForxVbsz/B7W945zT4DgIm4DTcJ7tyIn5AE58Mi2naPfnoxEdhHVnEFD0xlXsRH2Ken1jY/QvsngWQuzAQgCup7L4iviwpueQm+4MlR4igyYxJFN28Rm/OsTywX29FlayCgIn9uA2u4eQtlbwImrgH95MrOXnH7nqY4Glu93vtrkSuQcAEnID74cWUDpKIRf/PNOmya/kYzcduPqZw3wmbdF0AsBkGAnAlHizFwNZO9nxPoJBKL7vNtmk4dRHz9KvEi/z+XXqzts2m7W4RMHEGbgex3s9fVPIiaOIeene2cqC/cHv/xu5K5CIETMAu3PcCnDzEx918NLK4ODEfUARPHuE+ZHgRJQCwFwYCcB0eNG/n5AU9eYqHXkP+Fm0tqpExyVAFVUx6gVLRiJ5sL/EgfrtVdTIbAibOgaAJyOB+IhaYfpqPAXbXRacfcTu/anclchUCJpBp3Oe6UDpQco1NVRALRovAyXybygcAgzAQgOvw4CnmnUo/hYldG4J9L7CwRsaJ3SDEQrB6ZNODIAImzoKgCcjivnIHJ/+2ux4SNvFxD7fvR3ZXJJchYAKZwn2tBaUDJVLPDhnwNqUDJ1/ZXREA0AcDAbgKD6BiIS/plVK9hUVUOuou8vgDFtbKHFUfj6XYjk16stzAA/cYq+pjJgRMnAdBE5DFfeUuSn9t4rW7LnX4A6VfZKJ2VyTXIWACmcD97EeUvuc4ZNG5/xALw47GV2wA2QUDAbgKD6LiQe0p2fOLzh1O+aebtR6YtRKH9lHF5Bf07BIxhwftc62sk1kQMHEmBE1AFveV0yn9a+8tdtflKMsp/VXJXLsr4hYImICVuH+JoKy4z/zB7rqcwHRK33vW2l0RADgxDATgKjyYiq9LOsmcKxZ4LRt1N/8Hp/4o+kOhmZMpunGVnixZsfgrAibOhaAJ6PHtFtXiheZ8G6uxgdK/8v6fjXVwJQRMwCrct4ZS+quS0+2uiySxGOxI7mOz7a4IABwfBgJwDR5MxZPXItnzg32GUqBjT5NKT1F8/25K7N2hLdIqvgLxFBZRXqOTKe+klqYFZcRuOZVTXtaTJSum5SBg4mwImoBe3GfEzVUETi7LYLHatp/cZk9ksEw4CgImYAXuVzdw8obd9VAggiZ/5X72D7srAgB1w0AArqFrOo7XR/Wu+5m2nbAxKYqu/4rCy+dRsuLgMc/wFASpoGMPCnTuTZ48v8HyiComv0iJg3tkT3+YB+o/GS7UYgiYOB+CJqCK+86PKb3VZ1cLLi9eSMT2nh9wO31pwfVBBwRMwGzcpx7g5G9218Ogf3Bfe8DuSgDAsWEgANfgQVV8fv1zmXP9LdtR8ZBRhspLRaqpauZkiu/cLHW+t7Q+FZ9/JfnqNzFUbmTFfAovmiF7uvhl41eGCswABEyyA4ImYAT3H7FgVB8+2vBRzEcPPnrruMQyPsSbcBUfYqrhF9wuH5pdT1CHgAmYifvTg5w8asW1xY9ZYuH/Iz9kpeIxStWEKRkO6VkrTo9/cn/7HysuDADGYCAA1+CB9TlOfixzbrAfv3S3V3/pFoOqeMFOHN6vK58nv4BKLr6BfA1OUi5bW/x1kvQunst4gDY/umAyBEyyB4ImYCbuT+3p+0GU+nwU8BHno4K+HxxZYVc9QQ4CJmAW7kvimeBZM64lxh5/szaU17QV+Ro1JV/9xuTx5R375GSCn+0OaFOg47u3Umz7Bu0HMpP8gfvc/zPrYgBgDgwE4Bo8uK7n5DSZc8Vir+KLD1UKW/z+h1hstvTyO7QBXNXhMY/rGcDPcvqLBgIm2QVBEwA4FgRMwAzcj/pyMpGPk41cx9+8rfa8IFIxFVtJKkXx3VuoZu1yim5ezQNJ0kiVhBu5371p9CIAYB4MBOAaPMBKfUMpvvKod6PUzJ1jim5cSaGZ7yrnFwKdelGw9xDl/FWfvK396iHpJzw4P69cWAYgYJJ9EDQBgNoQMAGjuA+15WQOGQiW5J/akQq69SdfvUbmVYyJRf0jy+dRzbplRgMnF3Dfm2ZWvQDAGAwE4BqyAZO8Js2oZPgtyuVUTH6BEgf3KucXxKegZWLR2fwCpfzhhdMp8pX0+oaOX8cEAZPshKAJABwNARMwivvQVE4uVMkrptoE+12sPedZSUzHrp43VZuyo0h8Ed2B+5/hz1UAwDgMBOAasgGT/LadqWjgCKUyEuUHqGLCc0p5aysacCnln9ZFKW/N6sVUPf9j2dOf5kH5XqWCMgQBk+yFoAkAHIGACRhhZPvggi69qfDsQepTb3RLUeTrBelF+NW+Nvkd978/ml0rANAPAwG4hmzAJNCxBwX7XKBUhthCODT7PaW8P6gHPyiKB0alemxaTaEZk2RPH8eD8jVKBWUIAibZDUETABAQMAFV3Hd6cfJPPvrpySd2uQmKH6Bad7CmYicQ37Odqqa/o7IwrIiy9Oc+ON+CagGADhgIwDVkAyYFZ55DhT0GKZUh5q6GF89Uylubv+XpVDzkKqW8sW3fUNW0cbKnv88D8qVKBWUIAibZD0ETAEDABFRx3xGLw+n6/NfjF2PHNZTXpLlFtZKTrDhElVPH8HhSrjfrUu6D3a2oEwDIw0AAriEdMOnajwq7D1QqI7JsLoWXzFLKW5u/xWlUPPRqpbyxbRuoatrbsqd/yAPyJUoFZQgCJrkBQRMAd0PABFRwvxnGyYd68nj8+ekxw+L1SmSJ8aPyg9coWV2lN+vPuR8+ZkWdAEAOBgJwDemASefeVNjrfKUyxMro1XN0jel1CrTvRsF+w5Ty6pySM54HY7XITIYgYJI7EDQBcC8ETEAF9xuxK478VByPh4qHXkP+5m2sq5QCsSGACJqkYlE92dZzP2xnVZ0A4MQwEIBrSC/6eloXbcFVFYmDe6hi8otKeWsL9r+YAu26KuXVuejrMzwYSz3A2gUBk9yCoAmAOyFgAnpxn+nLyTw9eQp7DqaCLn0tqpEx0c1rKPTZRL3Z/ov74pNW1AcATgwDAbiG9LbCTVtRybAblMspHz+aX6gOKefXeL1Uds195C0sUsouVmWPrJBeJ+xvPBA/qFRQhiBgknsQNAFwHwRMQC/uM+9zIj1t2H/KqVR80bXk5Fcc8SWy+CJZhzXcF8+wqj4AcHzOvZsAmEw2YOIpCFK96+9XLqdmzRKqnjdVOb8QaHcWBfurLytS9el4im1dL3v6XTwQm7MXskUQMMlNCJoAuAsCJqCX7LObIHbEKR35Y/IWl1lZJcNS0RqqmPic3vVMenN/XGBVnQCgbhgIwDV40N3KSQuZc8uuuZe8RaVqBaVSVPn+qxTft1MpuwjYlF5xp/LXJUL52CcoGQ7Jnt6VB+HlyoVlAAImuQtBEwD3QMAE9OD+cjsnL8ieX9C1PxV2H2BhjcwTXb+CQrPf15MF03IAbIKBAFyDB97XOLlJ5lyxholYy0RVMsQvU++/pqV6eHx5VHwRvwCeJBXXOaZE+UGqmPCs7OnLeQBWWyglgxAwyW0ImgC4AwImoAf3l0WcSHUCT6CQyq6+R9sdJyukUlQx8Xl+Zjsgm+MQ98cGVlYJAI4NAwG4Bg+8z3Byt8y5+ad2pKLBlxsqL1lVTlXT36HEgT1S53uDxVzmSMo7qbmhciMrF1D4y09lT3+MB+CfGyowAxAwyX0ImgDkPgRMQBb3lU6cfC17fkHXflTYfaCpdUhFqilZXakFNzyFxdpzmplq1i2n6jkf6Mkygvvke6ZWAgBOCAMBuAYPvr/g5O8y54p5sGXX36+lhiSTWgBDLMCaqgkf+xyfjwLtuvFAf672C4lRlVNepvj+XbKn/5EH398ZLtRiCJi4A4ImALkNAROQpWs6jsejfV2iPJX6KGJdkZpVCym6afUP7ukiYOJv1Z4CnXqSr9T4xx6pRFybQi3WNJH0Z+6TDxkuGAB0wUAArsGDb39OZsueb2Rb39pSsSjVrFlMka++1H6x0PjyKNC+GxWc2YcH4RJTylHY1vhWHnxfMaVwCyFg4h4ImgDkLgRMQBb3lUc4+Y3MuUZ3NzyiZuVCCi+eSal47Pgner1U0LkPFZ49UAvWGCG+MBFfmkh6i/vkdYYKBADdMBCAq/AAvIGTNjLn+uo3ptIr7iAz/0zEICx20UlVV1GgSx9DC7seS2j2exRd/5WeLGfw4LvG1EpYAAETd0HQBCA3IWACsrivPMHJz2TODfYZSoGOPQ2UlqLquVOpZu1SXbn8zdtS0fmjyOPzKZcc2/YNVU0bJ3v6Z9wnz1cuDACUYCAAV9EzLUcoGnwF5Z96hoU1Mk+i4qC2gJiYBiRpAQ+8va2sk1kQMHEfBE0Acg8CJiCL+4pYv6STzLliZ0HxI5eq8JLPKbJsjlLe/NM6U9GAEcpliy+QD7/5Tz3Pbi24X25XLhAAdMNAAK7CA7D4CUJ6H3tvST0qHfljbfcap6uaPoFiW9bqyZIV03EEBEzcCUETgNyCgAnI4r4yg5NBJzpP3Ovr3SjWrldrKrHmW+V7r2gLu6oqPu9K8rdur5y/4t0XpTcIYFdxv3xHuTAA0A0DAbgOD8KrOJH+bKTgrHOo8OxB1lXIBLGt66nq0/G68mTTgyACJu6FoAk4AfdDsX1ZH0pP6RRbZVTxsZGPL/BrrzwETEAG95OWnEg1kthZsOSSm5XLqvrkbYpt36CcX/DVa6T9uKZK53TqB7lf/k25MADQDQMBuA4PxPdx8qR0Bo9HG4zzmjSzrlIGJMMhqpj8AqU41eF1HnDVnzAyDAETd0PQBDKB+1kH+n5QZCilpwSIX7rPO07Wz/gQ0xvn01GBFD6mcPtJb3/hBgiYgAzuJ1dz8rbMufmndaGiAZcqlSOen8rfetLQ1yVHlFz6I+VxRkwHEtOCJGXF7oYAuQQDAbgSD8biF0HpCIjYxabksttMX6TVsGSSKqeOofjurXpzduABV9f8HTtlW8CE3cj/vm+aXgkXQ9AErMJ960ec3M1HL5MvLfaSH83HQkoHT6pNvn7WQcAEZOi53xd06UOFPY8Xz6xbdNMqCs2YrJS3NvElsvgiWUXNumVUPedD2dNf4H55p1JBAKAEAwG4Eg/GYh/7P+nJ42vUVNu2zuPPt6hWeqUoNPsDiq5foTfjBB5sR1lRI6tkYcBEQNDEZAiagFm4L4kvScQ4MDxDRUYpHTx5hNtyX4bKdBwETEAG9xPxfPaQzLlia9+Cs/oplaPzy47jyj/9TCo6V+12Et20mkIzJsmePp775dVKBQGAEgwE4Fo8IIvtdHWt0pXXtBUVD7nKAUGTFFXPn0Y1qxfpzXiQjyE82OrbO89mWRowERA0MRmCJmAE95+LKP0i1t/GaoyhdOBklY11sAUCJiCD+8mjnDwoc25hj8FUcGZfpXLCi2ZSZMU8pby1iR0Vxc6KKsSC/WLhfkmTuF+OVCoIAJRgIADX4gFZ7GX/qd58Yi2TovNH2Tc9J5mk0NwP9CwQdjTxkP5bs6tktSwOmAgImpgMQRPQi/tMD0oHSi63uy7f2k/ffXHimnVOEDABGdxPfs+J1Dodhd0HUEFXtfhnZMV8Ci+aoZS3tkD7bhTsN0wpb3TjKgrNlJ4a9Bb3y+uUCgIAJRgIwNX0vIgfzVtcRkXnjaS8Rk0tqFXdktVV2mebii/uYqETsXZJ2ORqWS7LAyYCgiYmQ9AEZHFfuYHSa5Sofbdvrc183MNtKr2AQTZDwARkcD95gBOpnWACnXpRsPcQpXJi2zZQ1TSptWVPKNhnKAU69lTKW7NmCVXPmyp7+mjulz9VKggAlGAgAFfjQbkFJ2JqTlB3Zq+XCrudSwVd+mr/2Wpijmv1/I8pFVFeN/BSHmTfN7NOmeKEgEl085r0L0DJpOolEDQxGYImcDzcP9py8jQfF9pdFwm3cpu+YnclrIaACcjgfnIlJ+/InGtkKkwqFqXDYx4nSsSV8h+t9MqfkK+soVLe8OJZFFk+V/b0v3O//KVSQQCgBAMBuN63OyS8rJrfV7+xtkK7v3lb8yp1lMShfRReMJ1iOzYaucztPMC+ZFadMs0JARMBQRPnQdAEjoX7hVjUYCIfJ9tdFx2u4TYdZ3clrISACcjgfiJ2Mdwuc66vQRMqvfwO5bLE2iFiDREj8k5uSSUX36icX3w5LH4Uk3Q398tnlQsDAN0wEACQNjiLaP1fjVyj9LLbyNfQ/GfzQ69wtZIJI5d4jgfXu8yqjx2cEjAREDRxHgRN4GjcH8T9brTd9VAkvgIUU3R07xWfDRAwARncT8SWMXLrDXm9VO+mB8jj8ymVZXhrYY+HSobfYmgMKX/nWUpWHJQ9vRv3y2XKhQGAbhgIAL6lup7JEaUjbiNfIysCJo8aeTl/hwfWq8ysjx2cFDAREDRxHgRNQOB+8BtOHrG7HgaJxZJGcrvq3gbN6RAwgRPRFSz5VsklN1HeSS2UykvFY1Q+5nEtVVF49iAqOOscpbxCMhyi8rFPyJ6+gvvkWcqFAYASDAQAR+GB+nVOlL6rdGDAJGe2nnNawERA0MR5EDRxN25/sQ3po2ZeU2whL6ZdekvqaTujefwB7RflVCJBqWiEkqFK7ZfhRPkBfvNKmVm0CJr0z7UvTRAwgeNRCZYIImAhAheqdE6J+a7cM/tq2xobEf3mKwp9/p7s6a9zn7zZUIEAoBsGAoBaVIMmDguY5EywRHBiwERA0MR5EDRxJ273Wzh5xfCFPB7tl2p/q3bkP+VU8tVvRDKPSuLX6fje7RTfvlG7LySryg1Xhb3PbXqpGRdyCgRMoC6qwRKhsPtAKuiqvglWKhHnv90NFN24mmLb1p/waxNvsISCfS4gf+v2ymUeUfXpOxTbuk72dOyQA2ADDAQAx8AD93Oc/FhPHgcFTMbzgHq16RWxkVMDJgKCJs6DoIm7cHsP48TQtrye/ALtvhHocDZ5i0sN1ijFL+RbKbJqkeHFJCnHFoJFwASOxUiwxIyvPI4mgiWxbd/w3+46iu/boX1FRqkkeQuL+RmvKeW3ak/+NmeQx5dnvKxINR1+60k9zw8PcJ/8h+GCAUAXDAQAdeAB/CFO/iR7vkMCJs/wYCr1MJpNnBwwERA0cR4XB02Wm1mfLCEiHKeqZBQvPYEuvamgS5/0dBuTabucLZqhvYAZ8L98f/i9WXWyEwImUJuTgiWZFlk2l8JLZunJci73yTlW1QcAjg0DAcBx8EAuFt2TemJzQsAkVx/unB4wERA0cR4XB01AQl7T1lTU/2JtfRKriU/uq+d+pC3wqOinfH/I1p1//gMBEziam4Ml2mKz457WvjKRtJH7Y1sr6wQAx4aBAOA4EDBxBm4H8Qnq/8icK15wxYuueOHNNARNnAdBE/gBj4dftAZpX5Vk8jFIvBiFZk2h2I6NStn56MD3B+nFDpwIARM4ws3BEiG85HOKLNP1scjV3B/HW1UfAKgbBgKA40DAxBm4HcQiZ0/Lno+gCRwNQRM4Qux6U3TeSPI3a2NPBVIpCi+YTpGVC1Ryv8b3hlvMrlImIWACgtuDJcnKQ1Q+8d9EibiebC25P26zqk4AUDcMBADHgYCJM3A7dOdksZ48CJrA0RA0AbGwa/FF3I6NmtpdFYosn0vhxbrWLhB2UXqrYaVPVJwAARNwe7BEBE21Prhb147hM7gvnmdVlQDg+DAQABwHAibOwW3xFSed9eRB0ASOhqCJe3ny/FR80fWU16SZ3VX5DxEwEYETnabyfWGYFfXJBARM3M31wRJSmoojYDoOgI0wEAAcBwImzqF3Ws4RCJrA0RA0cafi80eRv1U7u6vxA6FZ71J0w0q92W7g+8IYK+pjNQRM3AvBEn4m2LSaQjMm6c32HvfDEVbUBwDkYCAAOA4ETJyF22M+J3305kPQBI6GoIm7OPllK5WIU+WUl7Xth3WYw/eEc62qk5UQMHEnBEuIYjs3UdW0cUSJhJ5sYt5Of6xdAmAvDAQAx4GAibN8u5aJ+Ja1UG9eBE3gaAiauIOvQRPt3kxer91VqVPi4B6qmPKy3vtD22xcywQBE/dBsIQotu0bCn02UQuQ6jSJ++BIK+oEAPIwEAAcBwImzsNtchEnEwlBEzAIQZPcVzLiVkcs8noi4YWfUeSrL/RkycppOQiYuAuCJUQ1qxZS9Zefaou9KujBfVDXgvcAYD4MBADHgYCJM3G7vMKJ0vaaCJrA0RA0yV35p3WmogHZMfU/FYtS+fhnKBWpls0S5qM+3w9qLKyW6RAwcQ+3B0tSNRGqnveRtm6Joge5//3NzDoBgBoMBDmGB6iWlF7joQ0fxXx04EP8bw35KOBDhLhDfIgJ05v5qOJDfNb7Bd+YP7ehyo6GgIlzIWgCZsnWoEmqJkzJUEXGy80W3uJ6tvyNq4qsmE/hRTP0ZMm6nTMQMHEHdwdLUtpCztULplMqHFK9yMPc9/5kZq0AQB0GgizHg5IIhIif0ESQRGwBMMjA5Tbz8SV9F0CZYrR+2Q4BE2dD0ATMkq1BE8iMZHUVxXdv1b7oEesQeAMF5K3fhPJOak4eX54pZaSiNVT+1pOUisdks/yT7wP/Y0rhGYKASe5zb7AkRbGt6ym8bA4l9u82cqF1fHTgvqc0hwcAzIeBIEvxgNSL0kGSJywsRnzrPZqPp/nGvcPCchwLARPnQ9AEzIKgCdQW37uDIks+13a4OBaPP0CBdmdRQdd+5AnoXlbpB6rnfEA165bLnj6Z7wFXGC40gxAwyW3ZGSxJabtU+eo3UcqdKD9IsU2rqWb9CkpWHjKjQkO5331qxoUAwBwYCLIMD0Y/4+RuSk+1yaTpfIzmm/iEDJdrKwRMsgOCJmAWBE1Ak0pp02NkF2L1FASpaOAI8jdrY6hYbevRqWNlT9/Jf//NDBWYYQiY5K5sDZZUz/uYatYsIW+wmPJObsnPcU3JV68xeUvKyMt/15SXTx7uBal4nFI11dr6UYnD+ylxYDfFuB+ZvI5UVi7mDJDrMBBkCR6IbqN0oKSHzVV5l4973PLFCQIm2QNBEzALgiZul6LQrPcouuFrfdm8XioePJL8rdqpF833gcNv/lNbBFZSVv0ajYBJbsr2YIlD3Mv97Wm7KwEAP4SBwOF4EOrIibiBDrK5KkfbzId4QHuEb+6b7a2KtRAwyS4ImoBZEDRxL4XFV//Dk+fXtjL21WukXH7VJ29TbPsG2dOzanFIBExyD4IlholPVH7Bfe1FuysCAMeGgcDBeBAaxMlEPurbXJW6iO0M78nlmzwCJtkHQRMwC4Im7pOsKqfyCc8SJRLK1xCf9ZdcfKNy/vDS2RThQ9LL/Hd/m3JhGYaASW5BsMQwESwZyf1MLUILABmBgcCheBB6kJNH7a6HpN/wzV7ppcLpEDDJTgiagFkQNHGX6nkf8YvUUsPXKRl+M+U1aa6UN7ppNYVmTJI9fTz/zV+tVJANEDDJHQiWGDaL0j86rrS7IgBwfBgIHIYHoIGUnoLTye666PQG3/RvsrsSZkPAJHshaAJmQdDEHZKhCiofP5r/g/rXJUcEOvagYJ8LlPLG9++iyikvy56+kP/eeykVZAMETHIDgiWG3ZHLX2cD5BoMBA7CA9BVnIyzux4GTOIBYKTdlTATAibZDUETMAuCJrmvej6/TK1ebMq1xE4bpSNuVcqrTQsaJ7324xb+W2+tVJANEDDJfgiWGPIVpb8qkZ5zBwD2w0DgEDwA3czJq3bXwwSTeSC4wu5KmAUBk+yHoAmYBUGT3JWsrqTy8c8YWrvkaJ7CIqp33X8p5U1FqunwmMdlT9/Pf+eNlQqyAQIm2Q3BEmWb+BjN/envdlYCANRgIHAAHoDE4CMWdzWlPTyBQso7uQXlNWpK3rKG5C0uIy//b+TLIzFwpGIx7YEsWXWYEof2U3z/Tkrs2U6pRNyM4oWcCZogYJIbEDQBsyBokpsSB/dSxeQXTLuepyBI9a6/XylvqiZMh998TPb0A/w3rr4lT4YhYJK9ECxRsp+P0ZTeVbLGrkoAgDEYCGzGA9A5nMwhg20hHs7y23am/FPPSD+Me/RdTgRL4js3U3TjKu0ljYwHTybw4DDK6EXshoBJ7kDQBMyCoEluqvr0HYptXWfKtXz1G1PpFXcq5U2GKqn87X/Jnr6d/75bKBVkAwRMslP2BkummrKIswKx6434omS8HYUDgLkwENiMByFxJ++qmt9bUp8KzjpHC5Z4fD5T6iR+3RLzuCNfL6BUNGLkUs/xYHGXKZWyCQImuQVBEzALgia5J3FgN1W8+5Ip18o//UwqOne4Wj0O7qGKydLrQS7jv+1uSgXZAAGT7INgiZTlfIzlYyMfX3C/2ZapggHAeq4fCOzEg9DPOfk/lbwef4AKuw9IP0x4vSbXLE0ES8JLZ1PNqkX8X1Kql7mBB44xZtYrkxAwyT0ImoBZEDTJPVXTxlFs2zeGr1M85CrytzxdKa/4ykV87SLpXf67VnqZtQMCJtnFpcGSf/LRkY/WfDTho4jS70thSk+x2crHaj6q6LsAyXKDlQYAB3P1QGAnHoT+h5N/qOT1n3IqBc8dTt6iEpNrdWzxfTsp9PkUSpYfVL3EUB5MPjWzTpmCgEluQtAEzIKgSW7RuaXvMfnqNUpPx9E5NfaIyIr5FF40Q/b0R/lv+tdKBdkAAZPs4dJgSc7t9ggAxrl2ILATD0JiCo7S3byw27lU0K0/ZbrpUrEoVc9+P72+iX5iUngHHoSUP1OxCwImuQtBEzALgia5pXruR1SzVv1T/pJh11Ne09bK+UOfTdQz1v6W/54fUS4swxAwyQ4IlgAAfMeVA4HdeCASi0DpWxDV66Wicy+l/LadrKmUlBSFF86gyFdfqGR+mAeiP5ldI6shYJLbEDQBsyBokjvEIuhV4qV67w7decWLonhhNFA6HR7zhLaTnaTr+W95rIECMwoBE+dDsAQA4PtcNxDYjQei5pTeFaeVdCavl4oHX0H+Vu0tq5ce4SWfU2TZHL3ZdvIxmAckc7YgyBAETHIfgiZgFgRNckcqVkOhzyZRbMdGuQw8Tgd7nk+BTj0NlSumwFa+94qeLG3473iToUIzCAETZ0OwBADgh1w1EDgBD0bvcjJCTx7ty5LTu/x/9s4DXKri/P/v7t67t98LiCACIiCCYgEVVASVYkGxgSL2Gk2iJjH1l/JPN72ZxJaosUUBQSxEQASxUUSxIBZQUQQRpN1e9u7u/33PcgWRMmfOnD3t+3me8wwmM2fee860892Z93XJIj0aFsyyIunY5D6elLQ+TL0Cgkk0gGgCTAHRJExkqfnd160fCDL1NbvMVbDv/lQ6eCQlOnR2XGPjS09bEeoUeZ777/GOK80jEEz8C8QSAADYOZGZCPwAT0ZyDMdWTPbiQ4+hkkEjXLLIAdks1c56iFo/+dBuyb14ctL2HptvIJhEB4gmwBQQTUIGz3cpnutaP/2IMjVbKJtOUayohBIdOlFhtwMoUdXBTD2ZNG2Z+A87x3Hu5L77FTOV5wcIJv4EYgkAAOyaSEwEfoEnpDmcKKsfBZ26UsXpl2p72nebTGM91Uz7t53FnfAXnqC+45ZNpoFgEi0gmgBTQDQBdmlZ8QbVPz/dTpGrud/e5ZY9bgDBxH8EVix5caYT58wQSwAAyoR+IvALW32XfKxcIFFAlWdfbe6XK5doWfk21T8zzU4RiWPfnieqZpdMMgoEk+gB0QSYwoloApzj2x2aO4P7bfXUOyhTu9lOqU7cZz9zyyQ3gGDiLyCWAADAngn1ROAneFL6ASe/U81fPGAolRwRjKPJdbMeotQaWz7nxvNkZetokldAMIkmEE2AKSCaeEiigKrGXkPxinZeW7JHmt9aTA0LZ9spciP31b+5ZY9bQDDxDxBLAABAjdBOBH6DJ6YPSTEyTqy4lKrO+zrFCpPuGmWI9KZ1VPOorV3BgTmWA8EkukA0AaaAaOIdhd16UfnJE7w2Y7dkGmqpZuq/rMg8NjiW++lCt2xyCwgm/oDfwx2cXKNTFmIJACBqhHIi8Bs8MZ3AyTzV/LKzRHaYBIm6px+m1KoVqtnrKXcsJ+WiSUaAYBJtIJoAU0A08Y7SIaOpqN9Ar83YBVmqmzmRUp/Y2qW5nPtnX7cschMIJt7D72A8J5N0ykIsAQBEkdBNBH7E1nGceILaTbjB2mXinCylVq+k1EfvUOuGtZRtbLAcyMbLKqmgc1dK9uxv7ANfFnt1Mx+yU+RcnrymGqncRSCYAIgmwBQQTTwiUUAVp19CBR27eG3Jl2h89Xlq4ssmgTyOI0Aw8R5+B69zcpjdchBLAABRJXQTgR+xs/WxsEdfKh85znGdrZ+uooYFsyi9eff+4Aq79qQSXpQkKp06l81S9aRbKFNfo1rgTzyBfc9hpa4DwQQIEE2AKSCaeEO8tJwqxlxG8fIqr035nJb3l1H9s4/ZLfYK98mj3LAnH0Aw8RZ+/qdzYisUkwCxBAAQZUI1EfgVnqDmcqI005SdcBYle/d3VF/Tm4uocTFXmc0q5RdfKWUnnkOF3Xs7qrdx0dPUtOwl1eyP8CTmXBlyGQgmoA2IJsAUEE28IV7RnipOu5jiZRVem0KpVcupbu4jOv0ycKGEtweCibfo+C6BWAIAiDqhmgj8CE9O3TlZpZq/3UU3UqyoRLu+5rdepoaFT9kvGE9QxSkTqKCLkl/anZJa8wHVzZqomv0pnshO0a4sT0AwAdsD0QSYAqKJN8gOk3Ke6xJVe3lmQ8uKN6j+xSd1+uOz3A9PNG9R/oBg4i12j+NALAEAAAgmrsOT03mcTFbJm2jXkSrHajktt0hv/JRqnrhH+6MoXlJGleOu5Q+6Yq3y2VQLbXngz6o7W+p4MvP+Z749AMEE7AhEE2AKbktXcnILX3qDLtBC5riyE86kwu4H5Ldi7nuNLz9j7QLVYAtfQ7kPLjNsVV6BYOIt/PxrOSlXyeutWDKDmt99TfcGEEsAAEYJ1UTgR+w4fE32PsRaxOliZxGwK5xOkDVT76B09UaVrIH4pQyCCdgZEE2AKbgtyba+H/P1Fa9tiRpFBx9lzXexgkLX60pv2UANz0+n1s8+0b3FCO57z5i0yQsgmHgLP3+lX7Qk8EC7C7/ltjk7AWIJAMB/hGoi8CM8Of2Kk5+o5C054gQqHnCcVj2yGKt55F9aZbdHfnlrd+E3rSM6OtgML7w/T2zOFB6XgWACdgVEE2ASbk8dORHF/Bi+elHuV+CjPTUqODTypXWWVY7olAwaQcme/ciNJVG2pZma3phPTW++xH0urXub/+M+93uTdnkFBBNvURVMZMdx1QXfdNucHYBYAgDwJ6GaCPwIT053c3KFSt6yYWMo2cd2pDeLpqULqHGxmR+fKkZfpO3LRCLzNL/9imr2CTy5TdKqKE9AMAG7A6IJAN7D/fBUTh4hTdFESHToRMWHHpsTTjR/MNieTGO9NReKX7FsS5OTWy3jvnaIY4N8AgQTb/GvYAKxBADgX0I1EfgRnpymcXK2St7ykedSYY8Dteqpf/Zxann/Ta2yO1J6zMnWVmUdGpc8R02vvaCa/Uc8wfna6SEEE7AnIJoA4D3cD+VY06+d3keOIiR7HmTNxQWdu1MsUaBcVkSS1tXvW31LnKA76FvbcyL3s2dN3MgPQDDxFn8KJhBLAAD+JlQTgR/hyelJTkar5C0/+Xwq7KYX2rfuqUmU4oWaCYoHDKWSI47XKtv0+nxqfGWeavbf8CT3Y62K8gQEE6ACRBMAvIf74d84MfeVl0hQQYfO1u4TCUksH5FWP43FKZtupWxzE2UaaihTvYlaN66jTM0mY1VvZTz3r4dN39RLIJh4i/8EE4glAAD/E6qJwI/w5DSdk9NV8pafNF7ba3/dnKmU+uhdrbI7UnLkiVR8+BCtsrK7RHaZKPIrnuh+qlVRnoBgAlSBaAKA93A//Acn13tth0OkM17F/eoerw0xDQQTb/GXYAKxBAAQDEI1EfgRnpwe4mSCSt6yE8+mZK+DteppfGmObqjCL9sx/BxrS7KWHYvZjqXKdvyAJ7s/aFWUJyCYADtANAHAe7gfylHP//PaDk2kE47l/vSY14a4AQQTb/GPYAKxBAAQHEI1EfgRnpz+yolSbLbSo0dRUf/BWvVIZBqJUOOYWIyqzr+B4qXlWsVt+lI5jye8KVoV5QkIJsAuEE0A8B7uh1dz8m+v7bDJq3xdx/1ogdeGuAUEE2/xh2ACsQQAECxCNRH4ETthhcXRqjhc1SGbTlP1pH9QtqlBq3wbhV178Qeb0oaYnVI7/T5qXb9aNXt3nvSUM3sBBBOgA0QTALyH+6GEab6Fr25e26LAt7nv/NVrI9wGgom3eC+YQCwBAASPUE0EfoQnJwkpfLdKXgnlKyF9dWletpgaFs3WLi9UjLmMCjp11SydpS33/4WyqWaVzHN50hupWVHegGACdIFoAoD3cD8s40Sci//Qa1t2w43cZ/7mtRH5AIKJt3gtmMhzl+evCcQSAIAnhGoi8CM8OYkzkLdU8sYKk9Tuom/zTBXXqyybzS0EPl2lVbz40KOpZJC+hpHe/BnVTFPeAb2MJ75DtCvLExBMgBMgmgDgD7gvyuQmu036em3Ldkzi6ybuK0u9NiRfQDDxFq8Fk9QnH1LdzAd1ikIsAQB4RqgmAr/CE9RLnAxSyVtx+qVU0Fl/93C2uZFqeTJKb1xnq1yyd38qO/5My4eJLs1vLaaGhco7XP7Ok18+YtY5AoIJcApEEwD8A/dH2W3yNb50t1Ka4HnKCSWzPLTBEyCYeEtABROIJQAATwnVROBXeIKayckpKnmd7vIQsqkWalgwk1reU3C+Gk9QycBhVHz4seS0OdhZhDC/4Qnwx44qzAMQTIAJIJoA4C+4T/6AcsJJjzxW+xTlhJLn8linr4Bg4i0BFEwglgAAPCdUE4Ff4QnqVsotzPZIvLSCqs6/3tFOjzZa131MTa++wBPUyp1UFKdk70OoZMBxFK9o77iuTF0NVT98i3UsSJGreRK8y3HFLgPBBJgCogkA/oP75QmcHMPXz/gqcaGKFXzdFgWHripAMPGWgAkmc/j5jzJuBAAA2CRUE4Ff4QnqUk7uVc1fPnIcFfYwd8xaotZYwsmaDyyhpOiAw6j48CEUr2hnrI7GV56lptdftFPkEJ4IlxkzwCUgmACTQDQBwJ9w35SOJVF1RDzpxddefA2zeRvZ1ilzRh1fPOHSwjCHCNYBgom3QDABAAD7hGoi8Cs8QYkysVk1v0SpkWg1pmndsJbixaUUL68yel85AlQ9+RbLf4oir/AkeJRRI1wCggkwDUQTAIIB99WetE1AKedLBniZQBN8STi4TfRFcWSJR6YGBggm3gLBBAAA7BOqicDP2DmWI5SfNJ4Kux/gokXmaHr1eWp89Xk7RQJxHEeAYALcAKIJACCKQDDxFggmAABgn1BNBH6GJ6lTOZmhmj9e2YEqz/kKxRIJF61yTqa+hmqm3kHZ1pRymSAtQCCYALeAaAIAiBoQTLwFggkAANgnVBOB3+GJSmL9dlLNX3zYsVRy1HAXLXJKlupmTcr5RlFnOk+AZ7hlkWkgmAA3gWgCAIgSEEy8BYIJAADYJ1QTgd/hiernlPPEr0YsRhWnXkAFXfZ3yyRHNL25iBpfmmO32LE8AS50wx43gGAC3AaiCQAgKkAw8RYIJgAAYJ9QTQR+hyeqQk5kl4lyHN9YcSl/iF9h3FGrU1rXfki1syba/Vh6kSe/oS6Z5AoQTEA+gGgCAIgCEEy8BYIJAADYJ1QTQRDgyeomTn5kp0y8qgNVnHaJNYH5gfTGT60FR7al2W7R03jyU/bj4gcgmIB8AdEEABB2IJh4CwQTAACwT6gmgiDAk1UpJ+/w1d1OuUT7va0PonhpuTuGKWKJJTMfshNCuI3/8cQ3xg2b3ASCCcgnEE0AAGEGgom3QDABAAD7hGoiCAo8YYnT08ftlpNjORJuWMQTL0h9/D5/FE2jbKrFbtFFfN3IE98CF8xyFQgmIN9ANAEAhBUIJt4CwQQAAOwTqokgSPCk9VdOvmW3XKwwSaVDTqVk70NcsGoXZLPU+Orz1PT6i9a/NbicJ717TZuVDyCYAC+AaAIACCMQTLwFggkAANgnVBNBkOBJqyPljubspVM+uX8/KjnmZNeP6KQ3raOGF2dQ62ef6N4i0BMeBBPgFRBNAABhA4KJt0AwAQAA+4RqIggaPHGdz8lE3fKxgkIqPvQYKh44zKBVOeTYTeOi2dS84g3dXSXCBr6G8oT3rkHT8goEE+AlEE0AAGECgom3QDABAAD7hGoiCCI8ed3Ayd+1bxCPU/vL/8+cQVtJb/6Maqb92+ltjufJ7nkT9ngFBBPgNRBNAABhAYKJt0AwAQAA+4RqIggquv5MLPwrmHyDJ7p/mLLHKyCYAD8A0QQAEAYgmHgLBBMAALBPqCaCIMOT2B2cXGO7oD8Fk5/xJPdLk/Z4BQQT4BcgmgAAgg4EE2+BYAL8DLfPgzg5hq9efImTxmK+pM3Wbb0+4Gsht4v3PDMSRJJQTQRBhweKWzn5mq1C/hNMfsoD2a9M2+MVEEyAn4BoAgAIMhBMvAWCCfAD3A7bcXImfVEcSfI1SPEW8/laT18UUWa4YCoAFqGaCMIADyK/5uTHygX8JZhcwwOWY8cnfgKCCfAbEE0AAEEFgom3QDABXsFtT0SRNpHkBheq+Iyv2/iaxe1mvgv3BxEmVBNBWOBBZRwnU5Qy+0MwWcPXdTxAPWbcEI+BYAL8CEQTAEAQgWDiLRBMQL7hNteZcj8Eyw76gjxVK0d2buP285c81QdCTqgmgjChOqn5RDBZxoPSIcaN8AEQTIBfgWgCAAgaEEy8BYIJyBdb/ZGIUHKRh2aspdyuk5u4LWkvOgAI1UQQJiCY+AMIJsDPQDQBAAQJCCbeAsEEuA23MekzbTtK9vXYnDZWUG4n/GyvDQHBJFQTQZiAYOIPIJgAvwPRBAAQFCCYeAsEE+Am3L7kfd3C14Fe27IL/k653SbrvTYEBItQTQRhAoKJP4BgEm34/Z9EX/TifhxfXRSKNvG1hK859EUv7qtdsvMegmgCAPA5EEy8BYIJcAtuWxdyEoT5eDPldps85LUhIDiEaiIIExBM/AEEk+jB7/xkyokkXyU1ccQOcynniEzNqbMNIJoAAPwOBBNvgWAC3IDblfgJ+arXdtjkW9y+bvbaCBAMQjURhAkIJv4Agkk04PecoG1nbs2/xJ0zmXJbQ98wdUOIJgAAPwPBxFsgmADTcJuStcx5Xtuhyd+5jZlv6CB0hGoiCBMQTPwBBJNww++3K20TSrxiHuWEk6dN3AyiCQDAr0Aw8RYIJsAk3J6mcXK213Y45C5uZ1d7bQTwN6GaCMIEBBN/AMEkvPC7vZFyQkkfr23ZyiOUE06WOL0RRBMAgB+BYOItEEyAKYyLJYkCKmi/N8XbdaR4eSXFi0qs/03Iploo21RPmdpq6/skXb3RWLVbuZPb2ldM3xSEh1BNBGECgok/gGASPvidHks5L+4DvbZlJ7xAOR8nyivKXQHRBADgNyCYeAsEE2ACbkfih22c0/vEK9tTcv+DqLD7Ada6Q75pVMi2NHEfXkUtq5ZT6qPl1n8b4C/c3r5j4kYgfIRqIggTEEz8AQSTcMHv8yzK7eRQm5W9YyblvLh/4OQmEE0AAH4Cgom3QDABTuE2dCcnVzm5R2GPvlTcfxAV7LOfY3uy6VZKffA2NS1bROlNjqMFX8NtTvnjB0SHUE0EYQKCiT+AYBIe+F3+g5PrvbbDBmv5GsvvdKGTm0A0AWGB27I0xDPpi6G+j+Crw26Kpflawdci+mKI7/nuWgt2BgQTb4FgApzA7UeOMd+qW76wWy8qGTSCEu07GbSqjSyvG96lxsVzKVO7xcmNzuZ295gpq0A4CNVEECYgmPgDCCbhgN/jJE7Ge22HBiKa/Jrfq/YCRYBoAoIKt92DaZtIIiG/Swzd+j2+JBTm+3w9zu1Ebc4FjoBg4i0QTIAu3HbkCM4UnbKx4lKrPyd7HmTYqi8jO06aljxHTW8u4v/QGtbX8NWP216dYdNAgAnVRBAmAiaYCP/mweUa44Z4TNAEE2Yyv4fzjRsRYELixf1n/F5/6eQGEE1AkOD2KitrEUnuzkN11ZQTT27CItldIJh4CwQToAO3m3acvMNXZ7tl5dhN2fBzrDaVT6SP1z0zjbJNDTrFf8dt74embQLBJVQTQZgIoGAihE40CaBgIkA02YobYolM+vGqvSheVkmxZDHFEgnrVwzx4p5prLO2gqZrNjn5wN8V/4/f66+d3ACiCfA73EavoFz0qkEemSC70UQ4WepR/aEGgom3QDABOnC7+SMn37VbrujAw6l0yGhlZ66mydTVUN1TEym9ZYPdoo18DTURtRCEg1BNBGEioIKJECrRJKCCiRB50cSUF/dYUQklexxIBd16U0GnbhQvLd9jGdkSmt74KbXy4lC8uKc3fOrUjDau5ff6Lyc3gGgC/MjWHSUSvWq417ZQzu9J244TY50XQDDxGggmwC7cZmSn39N82doiUtR/EJUefZI7Rtkg29zIff5BSm9aZ7eo+Lo61g2bQPAI1UQQJgIsmAihEU0CLJgIkRVN+L39h5PLndyjoEsPa7Ge3O9Ax7+OpKs3UvM7S6hl+evWThSHHMHv9VUnN4BoAvwCt8VKTn7M19W0e+etXiBHda5DmzEHBBNvgWAC7MJt5glOxtgpU9RvYG5niU+QYzm1/7vfWovZ5DqnPuRAOAjVRBAmvBZMsqlmqp1+nyWcaBIK0cQPgknd0w9TatUK3eKRE034nX2bkz/rli/o3I1KjhphpaaRXzqa3lhATW8tJkqndW/zIeW2iq5xYgtEE+A13AbPodyuki5e27IHvsVt5mavjQgDEEy8BYIJsAO3l4Gc2DqWUti1J5WfPIG/MP3VdeS4dM3j/7HWYTZ4k9vgoW7ZBIKDv1oz+ByvBRPBUmR5YRFl0cQPggll0lQ39xGIJgrw+7qYk/t1yoo/ktKjR1Gyz2GGrfoymZrNVP/ik8qL9p3wGL9Tx75ZIJoAr+C2dy0nt3tthw1eodyvjYu8NiTIQDDxFggmwA52jzbHyyqo8uyrraPMfiT18ftUN3uS3WKXcTu8zw17QHAI1UQQJvwgmAhRF018IZgIEE32CL8r+ZVavLhX2i1b0KkrlQ0fa032+SNLTW8spMZX5umGvjuX3+lUp1ZANAH5htuc7Nb4htd2aNDK11huN094bUhQgWDiLRBMgB2Uv0W2Un7KBCrs2sstc4zQMH+mdUTaBvBlAiCY+BW/CCZClEUT3wgmAkST3WJnIb49yT6HUtlxp3FfSrhg1Z5JrVlJ9fxe5RicTebw9Q1+p285tQGiCcgX3Nbu5eRSr+1wgIgm13O7ucNrQ4IIBBNvgWACVOG28lXKOb9WItmrP5WdeJaLFpkh29JM1VNvp2xjvZ1ifbktLnfLJuB/QjURhAk/CSZCVEUTXwkmAkSTncLvaQQns/my5Z3VL17cJaJO7cyH7J6tFR7k93mRCRsgmgC34TYmx+UuNn3fWHGptTtMtoHHEgU8YWW2hvluoEx9tRN/QbvjqxBN7APBxFsgmABVuK28zonaGeVEgqrGfY3i5bY3+HpC8zuvUsP8GXaK4FhOxAnVRBAm/CaYCFEUTXwnmAgQTb4EvyfZbTHCTpmifkdQ6ZBTXbLIPhJ6uHbGAzpRdMQB7IsmbIBoAtyC25aEXbvaxL1knC3sdgAV7NOdCvbaZ/fn5bNZStdsovT6Tyi1dqV1hl1DmNwV53C7edTUzaIABBNvgWACVOB2MoAT5Wh8fltP7RFeK1RPuY0yddWqJV7jtjjQTZOAvwnVRBAm/CiYCFETTXwpmAgQTT6H39EJnMyzU6awW28qP2m877y4p1aLQ7LJdn2azOB3eZopGyCaANNwm/o5Jz9zcg/ZRSKhKov6HE7xinb6N+L2Icfgmt9d4mT8bEM6qgiW853eKCpAMPEWCCZABbvHcSrP/SolKs1Ehc+2pqj1k5WU3riOMnJshr9z4uVVlq+5gr27Glu3Nb25iBpfmmOnyOHcHt8wUjkIHKGaCMKEXwUTIUqiiW8FEwGiiQW/o6c4UT5XIx9blWddaUXF8SNNr71AjUues1usO7/L1aZsiLBogiMW7jCer/Y6BUUoKTl8CCX7HZE7bmOQ9JYN1PTq89Sy8m0nt8EvjzaAYOItEEyACtxO/sDJ91TyFuyzH1Wc5vykZba5yVr/NC9/bZc7bWX9VszzQdGBh5PTT1j5ltky8e921gvXcnv8l6NKQWAJ1UQQJvwsmAhREU18LZgIERdN+P0kObHlLbXi9EuooHN3lywyQDZLtf+7j1rXr7FT6nZ+j18zaUaERRPgE4r6DqCSQSNcFzdbP11FDS/OoHT1Rt1bfIf7319M2hRWIJh4CwQToAK3k1s5UVpTyFEcOZLjhNb1qy3n95mGOqX8BV32p/IR5zgOX1z31CRrZ68iv+f2mP8PLuALQjURhAkerOZxcoJKXlF2ReHNN1EQTfg9/J6T76vkLRk0nIoP9SDyWIRFE34/v+Dkp6r5ZUt/6ZDRLlpkBulTNY/dZfejvwO/x80m7YBoArxAdpWUHX8mFXbLX3jKbLqVGhfNtpwBanIl97//mLQpjEAw8RYIJkAFbicSEaaPSt6q8dc7cvYqgnXdrInWGGyHRPu9rR/AnAjqzW+/Qg0LZqlmv4Xb4/XalYFAE6qJIEzwYDWdk9NV8sYKCqn85PMhmrgAv4f/x8kvVfOXHnMyFR18lIsW7YKIiib8ftZzsrdK3lhhEVWd9zXrYywINMyfyR9vS+wUuZzf4b2m7YBoAvJJokMnKh813rNoC83LX89FT7DfbsSTbD/ug6tcMCs0QDDxFggmYE9wG5Ff/pT8MolvkarxSt15p8iOkppH77S+JXQo3K8Pzxfnaddv/Tg17d+q2ZdxezxEuzIQaEI1EYQJHrD+zskNqvkhmrgDvwcJ2fqAnTIQTfIDvxvZKvKkav7iw4+jkiOVNm35gkxDLVVPvtV6r4oYP5bTBkQTkA8KOnez5jERN70ktfoDqp8zxfYvnsy/uA9e64ZNYQGCibdAMAF7gtvIjZwoHTFM9jyIyoafo11X/XOPU8t7b2qXF8pHjqPCHn01S2dpy/1/Vo1OmOX2GNesCAScUE0EYYIHrAs5sRWxAaKJefg99ObkPbvlPBVN5kyl1Me2TW4jMKKJreM48QRVnX+9tQg0goQq3biO2/t6yjQ3UozvH69sb3lwjxWZ87dQ//wT1LJiqWr29fzuOhurfAcgmgA3sdrIqRdSrDDptSkWIprUPT1Zp90M4n74shs2hQEIJt4CwQTsCW4j/+BE6ehJycBhVMyXDtaPQpP+aTcq4JeQuaPijMu1y9c8/h9Kb1irlDds4wFQBy/ep/CAVc6J+COwFRYAool5+F28wMlxdstBNHEXfi/3c6Lkmt3pryBtSLi75jdfouZ3Xtm5c7J4nAq796GSAcdRYi/nDoDFEVrt9PvsFBnN726m44p3AUQT4AZW5Cpe8PrtuJyIlSJa2uRR7oPOB5uQAsHEWyCYgD3BbUR8MV2ukrds2BhK9jlMqx6b/kN2S9X5N1C8rEKrrDiblTWCCmEbD4A6ePE+xu6xnDYgmphF51hOGxBN3IPfi5w9OkAlb/nIc6mwx4GO6pOoNfLRnamr3nPmWIyKDxtCJUccb/3bCdWTb1GrM8cv+L393FGFewCiCTBKooAqz7iMEh1c2xzliIYFT/HC3vaGkS7cDz91w56gA8HEWyCYgD1hx4di+UnjqbC70jLsS9Q/9wS1vKe8g3a3lI0YS8n9+2mVteMvLmzjAVAHL97H8KAlK0iRPdvZLQvRxCz8LuRX+1N0ykI0MQ+/jyGcvKiUOZGgdhd92+oTurSu5UXeU5Nt+zRIHnAIlR1/BjkZam1+sN3P7+xS7coUgWgCTFF69ElU1H+Q12bskmw6TbWP3213Pvsn90PbP3ZEAQgm3gLBBOwJbiNzORmukrdi9EVU0KWHVj213A5auT2YoPQYnkcO1ptHGhfPoaali5Tyhm08AOrgxfscHV8mbUA0McdWXyZyNEfrnAVEE7Pw+/g2J39WySvtX0Jv6yK7O2oevYuyLU1a5UuOPJGKDx+iXX/qo3etd6jINH5fY7UrswFEE+CUgk5dqWKM6Hv+XorI7rLa6bYCUImn5vbcF2tdMimwQDDxFggmYE/kSzCpm/kQt4eVWmV3BIIJcBu8+ADAg9e3OPmrTlmIJubYGmrtEYJo4jl2Ft3Fhx5NJYNGatdVN3uyk2eXczg79hrLKawOlmO0if9Qzb6G31U3rYo0gGgCnFBx5hVU0LGL12YooRHN4WLui1o/doQZCCbeAsEE7AluI+K4aYxK3lAcyVkwy/KnokLYxgOgDl58QIBo4g/4PciXt4gmlTrlIZqYwc6HetmwMyjZ51CteiQKTs20O7XKbk9R34FUetxo7fJbHviL8g6XfE/oQRVNWj9dRektG/NeL8gRKyqiZM+DvTZDmUztFqqeersdkQ3HcnYCBBNvgWAC9gS3kbs5uUIlryOnr+8ssfyHmKBq/PUUL9dallP9M9OoZeXbSnnDNh4AdfDiAwREE38A0cR7+B3M4+QElbxyHEe33Te+Mo+aXp+vVXZ7YslianfRjdoOYOVIUHrTOqW8XkzoQRVNQHjIppqtOSbb1Gj5LYqXV1GiqgOZXObIrqSWD95Szb6B++LexioPCRBMvAWCCdgTdgJOSEjhEt2wwvUSVlh59+wuSXTsQpVnKuk7O6X28f9QK8IKgz2AFx8wIJr4A4gm3sLPX75aDlLJWzn2Gkq066hVj52F9R7tOOcrlGiv9/1UN2sipdZ8oJTXqwkdognwgtSqFdS0bDG1fsr9NPvFb8EYf/QV9epPRYceTfFSvZCT2yO7kmqftBUw7XTuj086rjhEQDDxFggmYE/Y+c5I9jyIyobrR1Gv/d991LputXZ5QeoXO/TI0pb7/0zZVItSZm6Pcc2KQMAJ1UQQFSCa+AOIJt7Bz34VJ91V8ladfz3Fy/S2alY/fKu1Fd8E5SedT4Xde2uVtd7XR+8q5fVygQ/RBOSLTGM9NTz3hJKQKPNeyeCRVNTvCIe1Zql60i2Uqa9RLfAr7o8/dVhpqIBg4i0QTMDu4PZxGydfVc0vO/mqxit1553S/NbL1LDwKe3yhfv2pPJTL9Aun67eSDVT71DN/g63R11lBgScUE0EUQKiiT+AaOIN/Nw/5kTJuWnV+TdQvEzv1+XqSf+083G0W8pHnUeF+/XRKls/9xHLUakKXi/wIZoAt8nU1fA88oBtMbP4kMFUMtjZ95cdB4HMf7k/6ofoCiEQTLwFggnYFXbFkjZEMBHhRIdMQ13uWE5WqVl+gXhlB6occynFiku16hZs+lG5jdvj17UrA4EmVBNB1IBo4g8gmuQffuYrOFFyzV517te0I9TYOdu6J5xEBKl7ahKlVr+vlNcPC3yIJsAtsulWq1/qzh9Ox9vUquVU9/QU1eyPcX88W7uyEALBxFsgmICdoSuWCKVDTnW0e08Ei+YVbxDx2K5KQaduVDZynNVOnWAzCuIfuT1+31GFILCEaiKIIhBN/AFEk/zCz3shJ0er5K0443LrI1yHhvkzqPmdV7XKfoFEgtpd/B2KJQq0itc+cQ+1fvaJUl6/LPAhmgA3aHx5HjW94cARM/fBqnHX6v8i2lhP1Q/drJp9HfdHrTD0YQWCibdAMAE74kQsSVTtReWnXexYuBAfIqmPV1jRalKrP9ileCK+qIoPOzY3Lmg60f+8zuZG2jLx71xXWrXI17g93u6oUhBYQjURRJUoiyZ8PcdXL77Kt17SpiX+ah1fcrh9IQ9wavHCHALRJH/ws35YEpW8ZSPGUnL/flr1yMRd99RErbLbU9j9ACo/abx2+Wqe1GXrqgp+WuBDNAEmEbGi5uFbKduacnQfx2G+H/ybNX+p4Kf+6AcgmHgLBBOwPX4QS3ZExJPWT1ZS64ZPKctjvggjEjJYdpVY3yoOhZI2mpctpoZFs+0UGcjt8TUjlYPAEaqJIMpEWDRRYTFfIiF/LqLw9TgPfBtNVwTRJD/wc/4lJ/9PJW/JEcdT8YChehVls1Qz7d+U3rJBr/xWyo4/g5IHHKpnQksTbXngL6rZxRnuWH4Xyk4W3AaiCTBF4+I51LR0keP7xAqLcmG+43oBD2qn30ut69co5Q3bB7dTIJh4CwQT0IYfxZK8wWu76im32fGD9Qa3xcPdNAn4m1BNBFEHoolt/sWX7O0W8WSzqZtCNHEffsZyjvT3KnkL9zuQykcpbUbZKa1rP+T2qbzA+zJyHOfCb1kfaTrYXGAKEE1A6JB5onryLY53l7Th5Khe3ZwplPpouVLesH1wOwWCibdAMAFCpMUSpmXFG1T//HQ7Ra7itni3W/YA/xOqiQBANHGAnEu8iQdEZwHhtwLRxF34+YoC8rBK3lhRCbW7SLqF/nDX9Pp8anxlnlZZp4JN45LnqOm1F+wWg2gCQkXj4rnUtHShsfuVnXg2JXsdrFW2/rnHqeW9N5Xyhu2D2ykQTLwFggmIulgiR34klHCmodZOsf7cFt9yyybgf0I1EYAcEE0cIQ4rRDhRWw3vBogm7sHPVkIKf6yav2LMZVTQqaujOpuWLrAcTtoJfxcrTFLZCWdphxMW7Dh83QGIJiA01EhkHEMRq4SyYWMo2ecwrbLyy6T8QqlC2D64nQLBxFsgmESbqIslQsOip6l52Ut2irzM7XCQW/aAYBCqiQBsA6KJI6RymVREOGlxcqMIiyaT+NlNMGnSjvCzncPJCJW8xf0HU8nRztdd4reg8aWnd+u/QPqPCCTJngdRQbfe2pFx2mh6/UVqfOVZ3eIQTUAoaPngLaqf96ix+5WPOk9byKx/9jFqeX+ZUt6wfXA7BYKJt0AwiS4QS7SPWOM4DoBgEmYgmjhmJV/X8UA5w8lNIJq4g61jOcWl1G7CDbwKTBipO73xUyuCTnrTesq2NFqhSuMV7alwn+5U0LWX1X9M0vTai9S4BKKJANEkohhywNxG1fjrtEMLS+QsK/SlAmH74HYKBBNvgWASTSCW8JK2vpZqHrtLOcLZVpZzG+zrlk0gOIRqIgBfBqKJES7nAfNeJzeAaGIefqZXcKKs+jvZgu8HIJpsA6JJNGn5YBnVz3vM8X0S7femynO+ol3eEm4U56awfXA7BYKJt0AwiR4QSyTaYDPVPnm/9SOXTW7kNvg3N2wCwSJUEwHYORBNjPAvHjSvdXIDiCZm4ee5FyfKPzfHKztQ1dhrtEOJ+gGIJtuAaBJBZJfJI/+idLWziPClQ06lon5HaNuw+b4/EqVbVXKnub85O5MXMiCYeAsEk2gBsUScvDZT3axJ1LredkyHJdz+zA9AIJCEaiIAuwaiiRGm8OB5npMbQDQxCz/POzi5RjW/WwvwfALRZBsQTaJHavX7VPfUJO3y1u6Ss67SFk5lLpIdJoos4752iFZFIQWCibdAMIkOEEt46dpYb80XcozaJmm+hnL7MxeaDQSaUE0EYPdANDHCozyAnuPkBhBNzMHP8lhO5qvmjyWLqXLsNRQvLTdpRt6BaLINiCbRo3HxHGpaush2OWkjEjEr0a6jdt3N7yyhhvkzVbPfzv3sa9qVhRAIJt4CwSQaQCzJOemvf+YRy3eJBn/jtnejaZtAcAnVROA1PECN4eQYvnrxJV9kg/nqvIdiTXy9ztdzfNXxJZ7kFnJH1f4q3YONoRFN5IiF/FqYqGhHMR7YJYSrRbqVMs1NPEjWUGbLhpxjTrXt06pANPGXaLKcE+VwF4XdenM7Hk9BH/4gmmwDoknUyG4NDblYuYTMEeUnjaeCjl0c1Vz39MOUWrVCNfufuI99z1GFIQOCibdAMAk/kRdLeJ3a9MYCanztBf53RucOcuazH7c9Mx7GQSgI1USQb3hQ6sDJmZQTSeSoRgeDt5dfzWXQm8+dVs0dvyJBFk0aX32BCrrsR4VdelCsqEStIA+YrRvWWlu5Uyvfdnz+fStT+b2c6+QGEE3MwM9RfgX4i50yJUeeSMWHDzFlgmdANNkGRJPo0fLhO9S46GlLHN8dyZ4HU8kxJzn+CMimWmjLg39T9V8ifJ37122OKg0ZEEy8BYJJuIm6WCLr0saX5jhd50/gdqd/7hOEklBNBPmCB6TunPyYL0dOQG3wAl+3cQe2HTx8VwRVNDGBOH6SXyZlsS0O/BxwN7+Tq5zcIKiiSTadpvq5vhJNXuVkgJ0yZSPGUnL/fqZM8AyIJtuAaBJBMmlq+ehdSq16j9Kb1lln1mNWmO92PEd1p2Sv/o6O4GxP87uvUcOLT9opcgT3rVeNVB4SIJh4CwST8BJZsSSTseaA5jcXUetnnzi92ze4zf3DhFkgXIRqInAbHoyOo5xQMtojE96mnHBipDNHWTQR0ls2UOPiuU4++oXr+X3c4uQGEE2cw89QHL/eYatQPEHlo861jugEHYgm24BoAtzCTjhhZin3qeDGMXcJCCbeAsEknARVLGn9dJXVJgq7H0AFe+2j7Ixbdvu1fvoxrz+XU8uH71o70A3wT25vN5i4EQgfoZoI3IIHooMoJ5Rc5LUtW5GD29dxx1Y/wL0Loi6aCKmPllP9/BmUbazXvcV4fhcPO7EBoolz+Bk+z8lQW4XiCSo74UxK9jzIhAmeAtFkG/GySr4qzBoEjCIOmMtHnReYMN+pVcup7ukpdorcwP3pn27ZE1QgmHgLBJPwEWSxRCLYZFtT1n/LN0WiQydrR2C8vMo6di//W1Z2gqeaKdPYQJm6LZZoLT94OtwhviP3clu73OQNQbgI1UTgBjwQXc+JH7dntfAlsQ1v4k6+1smNIJrkQo/VP/sYtfJkroH85CgOojY5sQGiiTP4+cmvuXJ8zfaXcvHAYVQyYCg36GAPiQZEEwmj97FBkxzhRDQB/sczP0x2yWSo5tE7c4t0dQZxX3rZLZOCCgQTb4FgEi7CIpZ4zH3czrDOALslVBOBSXgQKqbcrpKfeG3LHhBvd7Lb5AEnN4FoQtaiuGHhLGp+R+vI+V/4HXzHqQkRFk3+wc/vG07t4OcnwstDOmULuvSgsmFjrF82goxD0eQJfg9nmrTHKRBNwosV5nvctb4/N9+0dKF1fNMGb3E/6u+WPUEGgom3QDAJDxBLjIDQ70CJUE0EpuBB6HROxC9FD69tscF3uNPbihSyIxBNcsjCWBbIdovxNYrfwXyn9UdYNDmbn99jTu3g5/c/Tk7TKSvtuPjw46jokMGW48ig4lA0cXzEzDQQTcJL4X59ckdzfIrsKql97G67oelxHGcXQDDxFggm4QBiiWM+pJxPyD94bQgIBqGaCEzAg9AVnNzttR2a3MGdX2sAbQOiSY6G+TOp+Z0ldos9yc//dBP1R1Q0WczPb7BTG/jZ7U+5ozldde8RLy2nov6DqajvAOtX8CDiQDR5ht/DCNP2OAWiSXgpOXoUFfd33PWNI4v62ifusePoVdjA/Wdvt2wKOhBMvAWCSfCBWOKYDynnsw0RzIAyoZoInMKD0Pc5+b3XdjjkQR4EHDmnhWhCljOputmTKLX6A7slj+Tnb1tp2RkRFU1O4uf3tFMb+NnJ15c8O23RRJBdJoU9DqTC/ftRYdeeFCu0EXmF25CEuJNQp0X9BpIXw60D0WQ/P/kyaQOiSUiJxaj8pPH+ilglc8CcKZRatcJuyV9x3/mpGyYFHe6/N3OifPQSgolZ+PlP4mS8Sl4IJv4EYoljZBezuDFY47UhIFiEZiJwCg9C3+PE+NasWHEpJSraUYwHqFhBMudUMt1KmeZGytTXUKZ2i2lPz8JEHgwucHIDiCb8Wvgd1Tx6l/WebPAIP/txpmyIoGhixJeJwM/uYk7uN3EvC+674sFdQt/FKztYkVhiRcWWqJLNZHgl2EKZxjrK1Gym1s3rKf3ZWsqmmq2iRQceTqVD5ZRQYEQT3x3LaQOiSTix5o1TJlBB5+5em8JkqeGFJ6l5+et2Cy7gazj3nWYXjAo03G/lmPPX7ZSBYGIOO2KJAMHEf0AsccQcyh3BmeqlESC4hGIicAoPQldycpeJe8Ur2llnsgu77E+Jvffd4+Ak56LTm9bnYpGvft9KDQkojkNkQTSRyX0lT+72fIiaXmBFTDQxciynDX5213Byh6n7OSFgosn/8Xvw7W47iCbhROaNspHjqLBrL++MyGSo/vnp1PL+mzqlL+V+Y06kDQncX2UMvsZuOQgmZrArlggQTPwFxBJtNvMlz04iijZ4ZQQIPoGfCJzCg9AYTp5wdJN4gpK9DqaifkdQQSdHJwCs8LYtK96g5rdfsbuzYWf8jgeIHzq5AUQTovpnH7e7eJbtfreatCFCoslGfnYdTdrAz+5CTv5r8p66JPscRmVDT/ckfLFN0eTX/B7+n5v2OIXfq+wI/J7XdgDDxONUevRJrnwo7wkrvPy8R5U/pndgNveZk03bFHS4n8qPUVfqlIVg4hwdsUSAYOIfIJZo8QltE0qMb+MH0SPQE4FTeBAq4eQdvvS+6HlhV3TgACoecBzFSyuM2ia/cjW/9wY1LXmOMg11Tu50Og8WTzq5QdRFk0x9LVVPuZWIP/4VeZOf+aGm7QiyaFI98e/WEScFmvnZGfeyys9OFl2yJfxA0/e2i5eiiSxeZCebCkH4UOD3egrlwr8P89oWYJZkz4OodMipFCsqyUt9qTUrqeH5J3Tn2/V8DeU+Y9vhSZhxshNM3nvFaRdRon0ns0ZRdAQTXbFEKOzRl8pHGjtd/DkQTOwBscQW1ZQTSeaY8IUHwPYEdiIwAQ9Ev6bcYts2BR27UOmw012ZzLdHBpumJc9S07LFukd15Cy1LORedmJH1EWThgWzrF0/NjDm/HV7giqaVE/6hyU8qeDWApWfndxX+vuv3Li/HbwSTeTX85YP3lLKG6QPBX63Qzk5k69j+JLzHOV8VXlqFGhjLl9aUZfE91fpUSO4vxxCbi1XRCBpfHkutbyndQSnDZljXzRlUxjgPilHky7WKSu+3ypGX+ja+ioKgokjsaT7ATmxJJ4wbBUEEztALNkt/FFEEr5MFG6JzrCQr8exmwS4RSAnAhPwQCR7Df+mU7Z4wFAqGTgsrx87res+pvpnHuXFndpH5w68xIPI0U5t8Ktokt74qfV8MrXVlM1mKF5cRom9OlNBlx5WvSYQR57VU26zU8T4sZw2giia+EEwaYOf3yDKPb9ubtazJ7wQTcIqmAD/wv2tH+XCfO+lew9xtlx8+HGU3L+fsf4iQknzskXU/PYSpwv733Jf+ZERo0ICv3P5ItZyPC8h3ctHX2R98LlF2AUTv4olAgQTNSIslpxL2370kEGglK8MX7KA/Fwc4XbxtgFzAVAmcBOBCXggkp+rltotZzmkO/Fsy6mrF1jnq59+2ApVqsENPMD806kNfhFNRCRpWfm2dVmRhnZWX2GSivoOtI5MxZLOT3nYWWQxf+bn/V3Hle6CoIkmfhJMBH5+PSh3ROd0t+vaHfkWTSCYAC/g/nY85cYrR1/B8bIKSh5wGCV79qNEh862y2dTLZRa8wG1vL+MUh+vsI6+OuS/3E+0dlGEFX7XEzk5X6dsvLzK2lkSr2hv2KovEmbBxM9iiQDBZM9EWCy5kd+31g/ZALhNoCYCU/BgJGFPJtgpE0sW8cf+BMdOXZ0iA1H9nCnWeWubyFfSOTwYLXdqgxPRpLBbb0s00SW1agU1vDSHMjWblMvIL1ZlI8Y5fnfN77xKDfNnqGafy896pKMK90CQRBO/CSZt8DOUxvg1vk7IV507kk/RBIIJ8ArTEatkXJcQxImO+/BHQkdLTIkVlfIXQ8I6viriSLap3hLU05s/o9b1a3I/NmSUfVHtCaMh5MMAv+PJnJynU1ZEkorRF1G8XGs6s0VYBRO/iyUCBJPdA7EEAH8SmInAFDwYyYfRPDtlrJ0Rp17AH9ye7uD/HAlFLAOThif/+3hAMhKKU1c0cfqRXvu/+63jN3ax3uEpE6wFti6W81f+8LdBd37eq7UrVCAooolfBZM2+DleQjnh5Nh81y3kSzSBYAK8hPvZtzn5s9d2GGAa94+xXhvhJ/jdTuFES0BKtOvIa6wLLREsH4RRMAmCWCJAMNk1EEsA8C+BmAhMwgPSU5ycpFyAP2DKR57r2TGcXZFtaabaJ+6hdPVGu0V78sD0oQkbdESTynO+Qon2e2vVJ/5bqifaEiy+gDiSk/qdTCjVD99GmdrNqtnP42c9RbsyRYIgmvhdMGmDn6V0dHEcKiFr98ln3ck+h1LZ0DGuiiYQTIDXcB8TYdIV/0554mHuG1ofpmGF36nMP+folBX/NOWnXJDXD72wCSZBEUsECCY7B2IJAP7G9xOBSXhAkpCi79opI85diwf6M2KliCW1j91td6C6kwenr5iywY5oIrs82l3yXe0PwuZli6lh0Wytsm1Yv+QPG6Ndvn7eY/zBuUw1+w/4Wf9BuzIb+F00CYpgsj38TE+mbVFXevM11O063RZNIJgAP7A1zLeMVxVe22KTf3G/uNZrI/yEI7Gk4z5UccoFeQsd3UaYBJMgiSUCBJMvA7EEAP/j64nANDwo3cvJpar5xedFxemX5j30px2a332NGl580lYZ0wsAfq5KYbwSe+1DlWddqV1P7fR7rXPojojHqWr89dpbf5tee4Ealzynmv1X/Kx/qlWRBn4WTYIomOwIP18RTrYPWyvnu8Q7oXgUbqWcF/e1tM2Tu5a/BjdFEwgmwC9wfzqMco6XXRciDeFa5LOgwu/wQk7+q1NWjjiLPzPxD5dvwiKYBE0sESCYfBGIJQAEA99OBKbhQUk8fqr7k+AP68qzr7bO1vqd2icfsAYvG1zCA9UDpupXFUwKe/TNTdAaSISg6odu1iq7I6VDTqWifkdolW15bynVP/eEanZjPmNUcSqaVIy51BVfPWEQTOzC72IqJ1p+DkqOHkXF/QcbtgiCCfAfW53B3k7+XY+sp5xY4vrxyqCwVTwWsetUnfIFXXpQ+ajzrEh2+UY+8Goeu4sy1UqO4xv4vef/a1SBIIolQtPSBdS4+BnV7H/g5/8DN+3xEoglAAQHvy5QjGP33LT80i6/uAeB9KZ1VPPoXXaKzOfB6jhT9asKJhLit/S40Vp1pD5aTnVzzKxXnRzLSa1+35ooFJnBz/k0rYoc4EQ0KT9pvLWYMk0UBRNBVzSRUNglR5gP3APBBPgR7idDKPcBPsBrW7ajgS/5oLmJ+4Ky46qww+9KdtnJ/NJFp3xh115UNupciiUKzBqmgEROqps92c4PTOv53duPX+0yQRVLmt99lRpeVI40KPyUn/+v3LLHSyCWABAsIrMg5sFJPPN/WyWvTOSV46/zZDDSpX7uI9Ty4Tt2ivThQes9E3WrCibFhwymksF6uyub33qZGhY+pVV2Rwr37WlFPdJBJgvZ0aPIc/yMPQlXqyuaQDAxj45oAsEERJGtUXTkxw3zg5A9ZlFOKHneYzt8Bb+f4ZSbV9rplBfn+WXDx/IaK/8f6+Iov+6piXaP9S7kNuBJ5LRdESGxRLiYn7/WkS8/A7EEgOARiQUxD05ySFZ+IVLyLOZkJ8ROyWQovXk9ZeqqKcv/jheXWp7hTTo6a/3sEytqjg2MHcvJj2CymBoWOnP42kYUBBNBRzSBYOIOdkUTCCYgqnBfkXb3Y8oJJ/vmufqZlBNKXshzvb6H34vslpT5RMvpSLLnQVR2wlnWced8k21upNqZD1F646d2i/6N28KNbtikQ8TEEuEAfv7vm7bHSyCWABBMIrEg5gHqPE4mq+avPPsqSnRwvgszXbOJmt9YSC0r36ZsqvlL/39B5+5U1H8QJffvSyZehRzLkeM5ivyMB69fOq6UbBzJ6XeE5T9EB3mG9c9M0yq7I2E/krM9dkUTCCbuYUc0gWACwOfRdOQIiJvb8sVRc9vRm4yL9QQWfg8ybk3VLZ884BCec8/wxIG++D8TJ6PpzZ/pFB/BbULZ4YabRFAseZGffVAcQisBsQSA4BKJBbGd4zji5LVy7DUOa8xS0+sLqPHV56zdJXtCHKDJLy+6kVvaaFq6kBoXz1XN/kcewL7vqMKtqAomyf37UdkILR+Y1u6c6sm3aJXdkTA7fd0Z/H6mc3K6Sl4IJu6ivBsLggkAn8P9RjxRn0nbolQ58cElv1jLURuJZCVHLsxsXQwp/OxlO6ZyWJMdKeo7YOuOXQ/EkoZaqpvxIKWrN+oU981xnAiKJUKojuNALAEg2ERiQcwDlWxNOFslb/FhQ6jkqBMd1JalhheepOblr9sqFS+rpAoZECu0jgZbpKs3Uc3U21Wzv8+DmJEvY9WPwIKOXajizCu066l57G6dLbVfJBajqvNvCGVY4V0BwcQ/QDABwDncj3rTF0N896NcmO+9KBfmO025MN+y5XIlbQv1LR/BL3phcxDh5ywT9t265XPO808iT8SSumorfHCmdovuLc7gtjLdpE06RFQsmcXPXm87sg+BWAJA8InEgpgHK/kFScl5hvi2EB8XujS9+jw1vqrnJ04GxoqzrqRYQaF2/dWT/skfpjWq2YeaWDzy85VtNHtsSxJCsN0l31HJulPkQ08++JyQPOBQKjv+DO3ydj44mR/w8/2DdmWGgGDiHyCYAACCAI9V8oF3m2754kOPoZJBIwxapE6mZnNOLFFfC+2IL3yXRFQskV/FhobFdwnEEgDCQSQWxDxgVZOiDwf5oI8Vavk0sxy7WuF9s0rfRDvF6SLDZrSc7/KA9mftyrbCz3cZJwer5JXjTnLsSZe6mQ9R6pOVWmVjxaVUefbVjo4+VT98q51frM7j52smFrIDIJj4BwgmAAC/w+PUNzi5Wbd8ycBhVMyXF6S3bLB8lmQa6nRv8SCPfReZtEmHiIolTZTzG7PAoEmeAbEEgPAQiQWx6kdKvLyKqsZfp12POCUV56ROkJDGVRNu0I6gI7tbmtR3uNzKg5r+H7wVfr63Ui6iwR5x4j9EyDY1UO3/7rd/Jpmfa8XJ51v+YnSRX6tkB48NuvPzXa1doSEgmPgHCCYAAD/DY9T3ONHeGVly1HAqPswb1x/i9F6i4cg6QZMHeNy7xKRNOkRYLBnLz1/7Bn4CYgkwCbcnOXa6/TFUOXoqu/tlYb39kVO9X5TBHonEgljZxwZ/TFeM1vthIZtqoS3//Ss337RW+e0RB2kS2lgHL5yS8vOVxdX3VPJak/lJWuuAzxGv9/VzplLrejUtIsaTTvmIsVZUIic0v7OEGubPVM0+l5/tSEcVGgKCiX+AYAIA8Cs8Pkk451/rlhd/JUUHDzJokTqtG9ZaO1CzLU26t7iXx7zLDZqkBcSS4AOxBOjCbWdv+qKD87Yt8YMVbyG/mMuxtu1FlKdN2xlFIrEgVo7i0utgKjtRyTfsl0h98qG1DdQEyd6HUNkJZ+rZseYDqps1UTX7U9yRTtGqaDtsnXXmibzdBd+kWFGxs0qzWWp++xVqemOB5Ql/Z8hunWTfAdb2YN0dO9tT++QD1oSiyJ/42SqJSG4DwcQ/QDABAPgRHpt+wYmek/JYjEqHjLYi4nhB67rVuQ+9VLPuLe7i8e5qkzbpALEk+EAsAXbhNiN+CtpEkq+4UMUnlPtGe5Lf0RIX7h8JIrEgVv1IyYW/O02rjublr1nRcUxQ0LkbVZx+qVZZ2XVRO/0+1ezzufM4Cc9owc9XVkmvquY3+itUNmsN9K3r11he8SmboVhxGSU67kOFXXtZjmZNkK7ZRDVTlCMQCV/nZ6vtMM8kEEz8AwQTAIDf4HHpN5z8UKtwLEZlw8ZYDtW9oHXtR1Q3e7KTD707eKzT+sA1CcSS4AOxBNiB24v4CJBdfW6IJLviTb5u4/d1ax7rDAWRWBArCyb9Blq/kuggux0aFszSKrsjTsLvinBQO/1e1eyyVcvIYWN+xhJH+TCVvPGK9lR17lethVZQkKM4ciTHBkfws1UWkdwEgol/gGACAPATPCb9iZPvaBWOx6nshLMo2fMgs0Ypklr9AdXNmUKUbtW9xS08zl1v0iYdIJYEH4glQJWtPzKLUHKuh2a8Rznh5C8e2hAoIrEgVj6S0+cw65cSHVpWvkX1zzgLeduGEz8fMvjJ0RFFnuXOcqJWRTtgNwSh9YtUHyV9xXMydTVUPZX/tLSyf5ql/Fx988dBMPEPEEwAAH6BxyP50PmmVuFEgsqHj6XC/fqYNUqR1EfLqe6ZaU78xt3MY9y3TNqkA8SS4AOxBKjA7aSUckKJBMlo77E5bbzG13X8Hud7bYjficSCWPUjRSb+8lHnadUhUVtqpt6hVXZHnHwspT58l+rmTlXN/gh3knFaFe0AP+P+lNvqpUS8rIIqx32VYgWFJqp3FTsfmVvxzXEcAYKJf4BgAgDwAzwW3cLJ13XKin+wslHnWsdevcD6gerZx4kyGd1b+MLHGMSS4AOxBKjA7eQMTmTMdRZ9wh1kXSrHMm/id9rotTF+JRILYtWPlMRe+1DlWVdq11M95XbK1GzSLt9GxZjLqKBTV62yzcsWU8Oi2arZjf7Cws/5ZU6OVM1f3H8wlRw9ylT1rmDTia6F3z40IZj4BwgmAACv4XFIft25Rqes+AWTH5YkqqAXtKxYSvUvTLf8l2nyWx7bfmTSJh0glgQfiCVABW4nV3Fyp9d2KCBRLWS3yXSvDfEjkVgQc2OVnyH2+LfKQqDdJd9RybpTmt96mRoWPqVVto14WSVVnX+dtg02fW2ImvgTrYp2gu1BIRajilMv4IXX/qZMMEq2uZFqpt25yyg8u2AqP1MvzyV+CQgm/gGCCQDAS3gMkjn6Kp2yscIiKj/lfCro1M2wVWo0v8Mf6/MdfWv/gse1nxsyR5vAiiXOnj/Ekq1ALIkOTsZbD7mK3/HdXhvhNyKxIOYGu5wTpYO2led+lRKVHfQqymSo5rG7KL35M73yTPEhR1PJ4JHa5Wsf/w+1blhrp8jPuGP8UrvCHbDzrIUYTxiVZ15pHdHxFdksTyoTKbVmpd2SvnH22gYEE/8AwQQA4BU8/tzDyWU6ZWNFJVR+ygTLKb0X2Nw9uzN+zGPab0zZowvEkuADsQSowO1E/COM9doOTf7A7/oHXhvhJyKxIOZGexcnSmdtSoeeTkUHHq5dl/gyqX3iXsq2NGmVrzjjcirYe1+tsjIIbnngzzrneo2JJvysb+TEltflRIdOVHHaJRRLFpkwwQiyMJAFgk2m83M8ww17nADBxD9AMAEAeAGPPfdzcrFO2VhxKVWceqE1V3tB0+vzqfGVeU5u8T0ez/5kyBxtIJYEH4glQAVuJ9M4OdtrOxwiUXS0/FyFkUgsiLnh3szJN1TyJvfvR2UjnAmC6Y2fUt3syZRpqLNVLtGuI1WO1TpWbJFatYLqnn5Yt7hJ0UTOBA20U0Z8tsivV7Ll12saF8+lpqUL7Rar52sUP0PbBd0Ggol/gGACAMg3PO48yMkFOmXjpeVULmIJr0+8oHHJc9T02gtObvFNHsv+bsoeXSCWBB+IJUAF02KJBMcQsTrObUh248tuP3G8LTvhs6kWyjbWU7puC6U3fUaZ2s2mqm3jVn7315m+aRCJxIKYG6+EzVPq7NIwqy78luPoLdmmBmrgD++W95bu1jmZ/HIjIk2y50FUsM9+ll8PXdKb1lHtjAct3xuaGBFN+Hkfy4mscOJ2yiU6dKbyk8+3FmiekMlQw4KZ1PzuazqlfeF1f2dAMPEPEEwAAPmExxzxWn6+TlnxqVZx2kUUr/AmAmbj4jnUtHSRk1t8lccxM+ELHQCxJPhALAEqcDt5hJNznN5HBOpC/i4s7NabCvbah/u/2ueUfHum1n5k/YCeWrXcElQM8BtuAz82caMgE4kFMTfgozlR/uW/bNgYSvY5zEjdmbpqKwRe67rV1r9FPIkVl3EH6EQF3BEKxeGpA5FkR2R3S+3Mh/wgmvyVE9sReEQsKRs+lgo659epXKax3vqYbOWBRoN1fPXj57bFsFlGgGDiHyCYAADyBY83kzk5T6esiCQVoy+keHmVYatUyFLDgtnU/PbLTm5yOY9h95qySBdHYsl+fahcdjxDLPEUiCVABSfHHi34WzDZ82Aq6j9I2zXD9ohY0vL+Mmpatogy1Y4juE7gtjDJsVEBJjILYm7I73DSVyWv7HSoPDtoTo234QfRhJ+37N+VZ76X7cLxOBUfNoRK+KMxHwuF1EfvUv2LMyxlVpNz+XlNNWmTSSCY+AcIJgCAfMBjzRROxumUtT7yRl/kzW7PbNYKW9u8XGunp3UHvi7k8WuiQau0gFgSfCCWABW4nXyfk9/rli/s0ZdKjhrObUYz6Mju4DG15b03LT9QNqN+7sgIbhPPmDIraERmQWznWI7g1odjvvCJaCLbgLUXLXEeOEoHjbQWDm6Q3rKBGl+aQ6nV7zu5zdf5Od1myiY3gGDiHyCYAADcxkl0hkT7vS2fJV585MnCvv65J6jl/Td17yALHhFLHjVolRYRFUvk+Y+DWAKxJEpwO7mck//olBVRuvS40/LyvSk7TsRHY/M7S3Rv8Ta3i4NN2hQkIrMg5gZ9DCcLVPPLoqHy7KuNHpfJNz4RTW7gxJHDtUTHfaj4kGMouX9fIwuI1vVrqHnZS9Ty4Tu79S+jwF38fK52bJDLQDDxDxBMAABu4uQMvcy1FadcYDkVzDuZTG58knlZD/F2KGLJTINWaRFhsWSsH56/CSCWABW4nXSn3G76UrtlC7v1orITzsr7eCv+TUSY1ozm+iNuH781bVMQiNSCmBv2u5wcqJq/ZPBI/lA/2kWL3Mcnosk/OLneyT0EGVTEQa4sKMRBbqwwqVaQF2Kt/BxSH79HKV6Myc4SA0zl53KuiRu5DQQT/wDBBADgFjy+SCScB3XKWpHqTp5AsWT+I9Vl02mqnzvVmqM1WcPXxTxmzTNnlR4QS4IPxBKgCreV2zm51m458VNSOniUZz/Kp6s3WW1FI6rOWr6Gcjv5wAWzfE2kFsTcsMUJ6V9V80vYpoqzrvQsnJ4pfCKa3MPJZU7u8QV4kJH3IjuB4uXteHIq5dXG1oVeutXyR5Kpr+FBYSP//eucTCA741F+Ho69YOcLCCb+AYIJAMA0PK705OQWvkbrlJcfIGTsV/4RwiAyN9c/PYVSn6zUvYWIJfKx/pJBs7SAWBJ8IJYAVbitjOTkabvligcM5fXd8S5YZI9MQx3VzXxQ50fkmdxWtOaaIBO5BTE3cHEVrBwjTz7IK8643HGYYa/xiWgiHusvdXIPHxAosUSAYOIfIJgAAEyyNQqgHMPRCqtQ2LUnlY06z/qBKN/Imfq62ZOtjz1NnuTrOh6rPjRnlR4QS4IPxBJgB24vczkZbqdM8aHHUMmgES5ZZB8RTWqn35uL4mqPi7jNaO1mDCqRWxBzA7+Jkx/ZKWNNZiPPDbQ/E8EnosmtnHzNyT08ZAr//VohGr0Egol/gGACADAFjycnUk4sUf4RaHtkbVM2fCzFEvn/UM+2NPNH3kTLp5gmF/ghEo4AsST4QCwBduD2MoyT5+yUEZcCZSPk91Z/La1kh0ntE/dYArYNXuB2M8wtm/yIv95aHuBGLo555vB1jJ1yyT6HUtnQMRBNzIgm3+Xkj07u4QF38N+tNZl6DQQT/wDBBABgAh5LTqWcWKLlMdBavJ94Nn+ox80apoCsP2QdIusRTabx+KQVBcg0EEuCD8QSYBduM9L2T1HNH69sT5VnXeXJsUcVZF0o60Ob9I6SL5NILoi5ocuxkHvtlkv26k9lx5/hyQLDJD4RTeQdyJnrcif3yROX8d97n9dG6ALBxD9AMAEAOIXHEfmZ8hHd8sneh+TWMh78AJRprM+dm9/8me4tHuGxaZxJm3SBWBJ8IJYAHVTXchY8zlacfqnlWNvP2FkfbiVSx3IiuyDmxj6bk1F2y4lztLLh53gyQJrEJ6KJjB4/Jv8e0RHl9LqgLwwgmPgHCCYAACc4iYQjFB04gEqPG+2NWNJQS3UzHrScsWvim+h0EEuCD8QSoAO3G3HrcJNq/qKDjqTSY5U3o3iGiNk1U2+3jkuqEqV1YmT+0B3hBi/hhV/ga2+7ZWWALB02hgq79TZvWB7xg2gi8LuQj3nZbdLD6b0MsZ4vmUhv4r/PaHgdL4Bg4h8gmAAAdOHx43JO/qNbvuigo3jhfhJ5sfQTp4K1M/5Lmdoturd4mMckLYHCNBBLgg/EEqALt52POemmkjdWWERV479OsSKtk5N5p+mNBdT48jN2ikzg9jTJLXv8RKQXxNzoh1JuW6tt0URI9jrY8nYcL6s0a1ge8ZFoUkzbdpvs5fR+DhAnciKUvOmhDUaBYOIfIJgAAHTgseNaTm7XLe9ldIZMzeacWFJfo3uLSTweTTBpky7BFUuWUMN8ba0DYslWIJZEG247MojOUc1ffPgQKjnyRPcMMoy0rerJt1C2qUG1yLPcpk50zyL/EPkFMTf+33DyQ+0bJAqoqO9AKj5kMMXLq8wZlkf8Ipq0we9E3ocIJ91N3VOBf1FOKNGOb+hXIJj4g61e1UWg7binvBBMAABt8NjxDU5u1i1fPHAYlQz0JqCBRGAQnyUSvlKTB3ksusikTbpALAk+EEuAE2wdx4nHqWr89RQvNeOqUd596ycfUnrTOso0NVKM7y/fnQX7dKdEh85G6hAalzxLTa+9aKfI/ty2PjJmgE/BgpisDvAAJ84m5FiMCvftScne/a0PTtvbrzIZal23iht/O4pXtHNkig5+E00Efi8S31yiGX2fLzceyr/5WsDX42y79qFqvwPBxHvsiCUCBBMAgMBjx/c4+YNu+ZKjhlPxYccatEgdWdhb6wr1Xyt35AEehy4xaZMuEEuCD8QS4BRuQ3dycpVK3sIefal8pHP/1DJ+Nr72ArUsf32XbSDRfm9LGJfoZ06R45Oyy8QGkTiWgwXxVrgTTOHEjOf1WIwSHTpRwd77UqLd3pYAEuNB1gonJY7WuMGLMJGpq7Gcn7VuWEvpzz6xYmDL8Z4KGZQhmnwBfj9nUk486UW5yDqd+BqkWPw1vsSLkfzEJY5cF1JOJNnggqm+A4KJt9gVSwQIJgAAu84Fd6T06JOoqL/qNGkWWdfUyXqipUn3FvfyGHS5QZO0gVgSfCCWABNwO3qVkwEqecuGn03Jngc7qq917YdU98yjyqKziDQSAc1p+OLa6fdS6/o1qtl/xG3st44qDABYEG8Hd4SpnIz12g6IJmrw+zqIviiiVFCuTYvxn4sjbM8b+bDHr0Aw8Q5+9sdTTiyx5ZcHggkA0YbHjp9z8jPd8qVDRlNRv4HmDLJB67rVuY+8lHq0hR24i8efq03apAvEkuADsQSYgNvRYZy8rpQ5Hqd2F95IsWSRdn2p1R9Q3dMPE2XStsoVdOpG5aMvpFiiQLvuptfnU+Mr81Sz/4bb2Y+1KwsIWBDvAHeIyZyc57UdEE2AKSCYeIOuWCJAMAEgujjyrRaLUdmwMZQ84FCzRinSuvYjqps92clH3h089mh93JoGYknwgVgCTMFt6RpO7lDJW9CxC1WceYV2XRJNrObRu7RF52Sfw6x5QJfW9aupdvp9qtnnc1s7TruygIAF8U7gTiGe6K/12g6IJsAEEEzyjxOxRCg74UxK9j7ErFEEwQQAv8Njxx85+a5W4Xicx46zKNnzILNGKSK/iNbPmULZdKvuLW7hced6kzbpArEk+EAsASbh9vQ7Tn6gkreo3xFUOuRU7bpkZ0lq1Qrt8kLF6ZdQQWe92Bkyhm+5j6eirFJgxyZub8GIm+wALIh3gR0l0U0gmgCnQDBxDj/DI+mLx7/68tWVrw58yWHRDF8SM3MdX+/xNYo0xZKSwSOp+JCjDVj9ZSCYAOBfeJyRj5xvahXmj/PyEefwx/qBZo1SJLVqOdXNnWZ7+/h23MxjzrdM2tQGP1d5KNuP3+JYoAfl/ErJQl/Gunq+PuPrQ75kkPy+Tl0BFkvEScI4iCUQS8DO4Tb1T06uU8lbeuwpVHTQkVr1iG/LmqnOPz8Lu/Wm8pPP1y5fPeU2KyS8ClFYL4b+D3QCd46zORFXwft6aQdEE+AECCb24WcmC+q2BbaMA/3zUa+bYokAwQQAf2JnMb4jcla9bOS5vEDuZdgqNVpWvk31zz5mRfvT5E883nzPlD38LLtw0uYovt/W1HUCLpbIzpJZBk3yDIglwA24XT3OyRkqectHnWeNBzo0vfYCNS55TqvsF3DoR0Wcdqc+WamUNwrrxdD/gU7hDiKORMWZzdf4qvTKDogmQBcIJurws7qScn39qHzX7bZYIkAwAcB/ODkGHCsotMbtgi49DFulRst7S6n++emqW7d3xm95rPmRCVv4Oco5ehFH/mTifnaAWOIPIJYAt+C2tYAUxdeKMZdRQaeuWvWID6jUx+9plf2SHaMv0p4b6uc9xuvFZUp5o7BeDP0faAruKMdSTjhR+vB0A4gmQAcIJrtn66+RbaJoPJ91t5EPsUSAYAKAv+Dx505OrtIpGyssovJTzreiInhB8zuv8of6DCe3+AWPMz93agc/w+9Qbvzu7fReOkAs8QcQS4CbcPuSCDmHqeStPPtqSnTopFWPOHtNb1qnVXZHJMSwrgPwhhf+R83L1YICRWG9GPo/0DTcYQZT7uPqTC/qh2gC7ALBZOfwcxH/I21CiWcOq/IllggQTADwDzwG3cPJZTplY8liKj/1Aisagxc0L1tMDYtmO7nFT3iMucnJDfj5idAk47eeswADQCzxBxBLgNtwG3uDEyX1ofKcqynRXlcwuZPSm9Zrld2RsmFnULKPpmDy4pPU/O5rSnmjsF4M/R/oJl79qgHRBNgBgsmX4WciocPFP9Hebte1O0qOHkXF/QfnrT4IJgD4Ax6D7ufkYp2yseJSqjj1Akp06GzYKjWa3lhAjS8/4+QW3+PxRfvYDD878Skl47f52Os2gFjiDyCWgHzA7WwhJ0q/blWccTkV7K3n/rLuqYlWxDETiKheuG9PrbI4kvNFQv8H5oPtzs2KxzU5ujPQ7TohmgBVIJhsg59FKeV2lRg5M++EfIslAgQTALyHx6H/cnKhTtl4aTkvgi+kRLuOhq1SQ5wRilNCB3yTx5a/6xbmZzecciHb87/42Q6IJf4AYgnIF9zWnuBkjEpeJ2tpA2Nsjlgs5/S1qFirOJy+fpHQ/4FewJ1K9j9tH8JO5L3OW/8ts6tMWBv5WsVXHV/X69QD0QSoAMEkBz8H8W4uv0rqBaY3iBdiiQDBxDncjo6gbRE42sZ4b85FgEhhzfmjL6J4ZXtP6m9cPJeali50couv8riiHS+T+56EXPb8IxFiiT/g9nAr5XZ52wZiCbBL3sIKb1pvHctxiuwskR0mulRPvZ0y1ZuU8kZhvRj6PzAIcCf8Myff1ikL0QTsCQgmn591dz4DGcArsURCftY+eT+1rl+jkruV30Oh2yYFCW5Dwyi3O+kUr20B0UPmeEssKa/yoPYsNSyYTc1vv+zkJlfwmHKPTkHue7INXsRuz3yVtAGxxB9ALAH5htvc7zj5gUpeEUtENNGlbtZDlFqjtrtjV5SfMoEKu+qFms+mW2nLfX9UjX7WxG3SMz+A+QKCiU+AaALcIuqCCf/9P+fkZybvqUvp0aOoyCOxxNpd8uE7qiW28Hvw5mdsH+KnNgSih/WBN/pCipdW5L9yXjA3vDiDmperOf/bBRfyePKQTsGtOwPlCE6BEwNMALHEH0AsAV7A7e4aTpR2yIn/EvFjoku6ehPVPnaXdltJ9jyIyoafo12//LBWO/1e1ewLuF0O0a4sIEAw8REQTYAbRFkw4b/9t5z8n6n7OSFAYomwhN+D57/m+gEni3MAnJJov7fls8SLDzwRS+qfe4Ja3n9T9w6yKLiIx5JpOoW5743jZIpu5SaBWOIPIJYAr+C2JyGF1eLsxuPU7qIbrdDvuqQ+fJfq5k2z1nB2SOy1j/U9GCtMatdt07H377ht/lC7soAAwcRnQDQBpomqYMJ/9085+YWJewny4VLQuTtPRp2thZf82ms507IW0FnKtrRQtrGe0rWbKL3pM2r9bA2l1622tjYGTCwRbuX3oHRWN8xALAFeYi18T72AxxkPdjvrjx1tbKbczhKtL33Tzl3FWW7BPvtRomMXy2GuHG2S5xoryJ08lA/ZbFMDZeqqKb3lM0p/tpZS/JEr/xvEEn8AsQR4DbfBVzkZoJJXdnjITg8npD5+j+qffZzXl01K+eUITtnws62w806o/d991MrrV0Uch4gPAhBMfAhEE2CSKAom/DdLuM77nd4n0aETFfU5nAr378d9y/52eBFL0ps/o4KOHvgEdfbBc2pYFtm6QCwBXlLQqSuVnzyBF776v1Dqkk2nqf6ZRyi1aoXuLT6h3M6SeTqFt4YNljARjhYyMf44LjrgUEr2OtgSn+yTpdYNn1IBzwMQS7wFYgnwA9wO7+bkCpW8hT36UvnIcY7rzDTUUeMr83I7/Xax20QE4JKBwyjZR2KOOFtCi2hcPfkWO0W0j1wGCQgmPgWiCTBF1AQT/ntP5sTRIrGwa08qHjDU2lESSJyJJZE/jgOxBHiJ7ISQsdjJlmpdROStf/phJw4HRSyRD/VFujfg/jePkxN0y8crO1DJgOMo2au/tTU+iEAs2QbEEuAXuC3+hJNfKWXmsafq/BuMtb1M7RZqen0+Nb/3xufCiXznFR9+nCUMmxrrNMIa9+J26sxDbQCAYOJjIJoAE0RJMOG/VX4GFJVA64+QxVXJsSdb4dgCi4glzz5GLSvf1r3DOH4Hj5g0KUhALAFeImNP2ahzPz8qkk+yqRaqmz3Z+tDTZAZf1zlZPDuJaCb+AkqOPJ6K+h0ZWKFEgFiyDYglwE9wexzFyWzV/CJmlByprf3uFNkB0vTmIirYax9K9j7E6Fgngnn1pH9aRxEVeZ7b6fHGDPAxEEx8DkQT4JSICSbafkuKDz2aio84kWKJ/G+9NoZzsSTSvksglgAvkbG3bMQ4T8agbEszf+BNVA07vjMcb8vm/nc1J//WKVvQZX8qO/4MraOTfgJiyTYciyUShru03LBVewZiSbjhdimD5L4qeUXErRr/dW/8UGnQtHQhNS6ea6dIJI7jCBBMAgBEE+CEqAgm/HeO5uRJu+VkQis78SxX/u684lwsmcLP/jyTJgUJiCXAS5L79+Nx6GxPdkbIHF076yFKb/hU9xbTeOwY68QG7n+yrU92B9o+h1R8+BAqOeIEHsyDvaSFWLINiCXAr9g6lsMUHXQklR57iosWmUF2lVRPuV3ZwaxgMqql34nMHxp0IJoAXaIgmPDfKItsWWzbOksjTgErTplAiQ6d7VbpLyCWOMLJ4jxe0Z4Ku/QwbBGIEjH+sBOHfV588Gca66lu5oOWc2pNHuGxw7FnQ+6DcgznKluF+HmVHncaFR14uNPqPcehWFJPuaOUEEsglgCX4fYpA7V6rF8epypOv9Ry5O1n6p97nFresxVC/lJur46DKwQFCCYBAqIJ0CEigokcw/mpnTKx4lKexC6xFliBBmKJIxyJJVUdqGL0xZ4szgFwikRfqJvxX0pXb9S9xVQeO851agf3QTkD/6ytQvwRIkdwrDP8AceAWCI7S54yaJJnQCwBQYDbqYiTJ6vmF0fUlWdd6YkjbxVk/Vj/zDS7xQ7kNqsdSi1oQDAJGBBNgF3CLpjw31fKyYd87a1aRhwqWmKJVqhJHwGxxBEQS0BUEceBtTMepEztZt1bPMxjx3gTttj9+BBKjzmJig4eZKJ6T4FYsg2IJSAo6Ii81rHLEeeQ3z6901s2UO0T91hOv22wgNvsELds8iP+emtACYgmwA4REExu4uRHdsqUjRhrTV6BBmKJIyCWgKiSqdlMtTP+y2Nyje4tJvHYMcGELdwPD+PkdTtlivoOsI7iBB2IJduAWAKCBrdZ8Y463E6Z4kOPoZJBI1yyyD6yy7D2f/dZIYttEqnjOAIEk4AC0QSoEgHBZBMn7VXzB8UB126BWOIIiCUgqsivieKzRBbKmjzEY8eFpuzhvjiJE+WdKon2e1PFmVdQLFFgygRPgFiyDYglIIhwux3JydN2y4m/qmLxWeUxlv8qOZLJc4JNZnO7tbUjMAxAMAkwEE2ACmEWTPhvO4OTx1Xzx8urqHLsNdaRnMACscQREEtAVElvWs9z74NWNARNHuCx4xKTNnF/zCpnFueJZ1xOBR27mDQh70As2QbEEhBkuP3ewck1dssV9R9MpYNHehbZy9pl+NREK7XJer6GRsl3SRsQTAIORBOwJ0IumDzIyQWq+ctHnkuFPQ5Uze4/slmqn/coxBJNIJaAqNK6YS3VzZroZM69l8eOyw2aJP3xUrmvav6ifgOpdMhokybkHYgl24BYAoIOt+H9KBehscRu2cJuvanshDMpVmS7qCNSq9/ndeRjtsIHb8dPuO3eZNqmIADBJARANAG7I6yCCf9d+3OyUtUGCelWMeYy1ez+A2KJIyCWgKjSun411c3iD7xUs+4t7uaxw17IXwW4Ty7g5BiVvHIEp3L8dRQvKTNtRt6AWLINiCUgLHBbvoKTu3XKShsWf0xurLt3RJy6Nr4yj5rfeln3Fu9y2w248z99IJiEBIgmYFeEWDD5Bic3q9rg1t+WFyCWOAJiCYgqrWs/orrZk5184P2Lx45rTdokcJ+UrX7vquYPuu8piCXbgFgCwga36R9w8jvd8oU9+lLJUcO5fXcwaNVWeP3Y8v6blliiug7fBaO4/c4xZVbQgGASIiCagJ0RYsFEHA/+VyWvtOuq82R95nzIE5VehIvUx+9RevNn1rbGWCLBdbSngn26W9F3Eh06O65nW4UQS5wAsQREldSaD6j+6SmUTbfq3uJWHjuuM2lTG3aP41SOu9b6WHZOllKrV1Lqw7etY0qW89tYjPt4BRXsvS8V7teHCvftyZ0/bqCuHBBLtgGxBIQVbtv3caLt40l87FWNNz/cylpVRHOHXMjt9yET9gQVCCYhA6IJ2JEQCybPczJUJa8pr+Sy8G185dk9tlP50E72PIivg62oDk6of/Zx69cBTSCWQCwBESS1agXVzX2EKJPWvcXNPHZ8y6RN28N98+ec/Ewlr6njlK3r11DDi09aQvfuEJ8CyR59qZDH8MJ993fkmLFlxRtU//x03eIQS7YCsQQEAW7jPOjSOTplfSyY/Jbb749M2RNU/j979wFuRXXuDfzdZ59eaQooUlQEaWJBUFBBsAsKaOw1mlii3pibnpvv5uZ6k5iYxCTGmsReoohir6iANAUVURQpKqCCCKfXvff3vrNBzz6csmbNzJ6y/r/nmWcwmbVnnSlrz/z3zFoITCIIoQm0FsXAhP+mvXm2RnX95dMvdRZcyMg0r82hprXv2S4qj5HL4+S6avicaN6k3FVLawhLEJaAgeRpNBlJS9otTX/gtuOHbtapLT4//8CzH6gsW3ToZCocMdbR+ho/eIvqXn/GemLPDvk+lO9FXQ0rFlL90rk6RRGW7ICwBMKEj/XZPDvVbrmABiY38/F7hZv1CSsEJhGF0AR2imhgov46TkkZVZxxldK6O+LkKY/c3v2o7KTztdfd8O5iql9i+7VRhCUIS8BATR+tSD/RYDMYaCUrvybyObqCZyNUlnUaeEvbLW24lpwc6nbWNdojWchQzlWP3WG3GMKSHRCWQBjphCYBDExu5eP3MrfrE1YITCIMoQmIiAYmv+DZr1U+T16LKZlkO+z/WtNquQF5Qru8kMBGghsd8hh59ZPKr/oLhCUIS8BAjR8sp7oFzzj5iP/htkPpNRmn+DyVoRq6fPQull9I3c79Puleriart1PV7Nud3PRS8YSTqGC/AzRLp2j7vX+kVJPyCEUIS3ZAWAJhxsf+LJ7NUF0+YIGJ508Zhg0Ck4hDaAIRDUykN/Ifq3ye9DxeOOowpXW3lUokqOrhm9IdAzpQNHYKFQ4/VLMOLbT97t+r/mLcwNtP76fQCEBYAqZqfG8p1S16wclH/ILbjuvcqk9n+DwdzjOlR/Zy+w7g8/Ic7XXVvvI4Na1dqV1e5O05iEqPO0u7fPXT91o34IpO4/0wS3tlAYKwBEzH54A8XqY0JHuAApPv8vF7m+sVCTkEJgZAaGK2iAYmysl96dEzKW/gEKV1t2X1BTB3tlbZ1px2Wlj575soWVOptKxqp7lRg7AETNXwzkKqf0Orn4ydfsTtxu/dqk9X+FyVGwil91QKhoym4vEnaq0n1VBH2x/8i5O+XNLktZwzr6ZYYbFWceloVvpQUZTVfeEVhCUAaXwuKP3aFZDA5Ck+fk92vRIRYOSFtYkQmpgrooHJIp4p9QJYNvVCa7hIHfIqjryS44Zu51xLsYJCrbLVT91NLV9sUFrWxMAEYQmYqn75PGpYPs/JR1zDbcZf3KqPCj5f5UkWpX5SnIxw1rRmZbrzWxfIa53yeqeOhrfmU/2y11QXz9prUV5BWALwDQQm0WDchbXJEJqYKaKByQc820/l88pnXsYXYT2U1t1W1Zx/UeLLz7TKtlV20nmU23svrbI1Lz5sDROqwrTABGEJmKp+6cvUsGKRk4+4nNuLW9yqjyo+Z2/k2dUqyxaPO4YKho3RWk/9G69Qwzuva5Vtq/CAw6no4IlaZRvfe4PqFil3SfI33ifOein3EcISgEwITKLBqAtrQGjiZp3CIqKBiYyzO1Dl8+QLSL6IdFQ+cjMlq7ZplW2rdMpplNdfKePZRe3Lj1LT+lVKy5oUmCAsATOlrP5K5EbcgYu5rfiXWzWyg8/bm3mmNPpC8eHHU8HQg7TWU/f6s9S4aplW2bakDlIXHTY7472N98t3tVbkM4Ql0cb7dzTPxvG0N0+yow7kaShP7d0UyMZcz9M7PEkncGt5WhSVzoztQGASDcZcWMM3EJqYJaKByUc820fl8ypOv5yP1+5K625LRldIbNuiVbat0uPOpLw999YqW/PSLGr++AOlZU0JTBCWgJFSKap7/Rk7fWK052xuJx5wq0p28bn7N54p3RkUH3YcFezf5WA67apf/CI1rFyiVbatguGHUvHYKVplJbSR8EbRLbxvtNo1PyEsiR7ep/IO8TRKhySTeRrlwsd+zpOc/zsDlHUufGagITCJBiMurGFXCE3MEdHARH42PFDl88pPuZjiPfsorbutmhcfoeZPPtQq21bFaZdTTrlecFP97P3Usmm90rImBCYIS8BIqRTVvvYENa1RGmCmPQ2UDkuc92TtAJ+//8ezn6osK6/ByOswOhrff5PqFj6nVbat4nHHUsGwQ7TKNqxYSPVLlTvlvZ73j9IIcEGBsCRaeH/25NnPKb1P9TpeUycdMN3sZ4DrNQQm0RD5C2voGEITM0Q0MHmaZyeofF7psWdQXj+lh1F2Ib9Oyq+UTuWUlFHFGfqvpdt50iXqgQnCEjBSMkm1rzym/GpeO7ZTOixRfjfEK3wOS4evSkMYS/8l0o+JDmkzpe10Q/n0SynefTetsjafdPkl76Nfa63IBwhLooP3pfSuLEHJcT6sfiOlg5OsDG2eTQhMoiHSF9bQNYQm0RfRwOSvPPueyuc5+WUwWV/Ldf8b/yOhVX4nJx0Gyq/K2+/5g+qFXZK3X1xvRcEX1rCk5YtPqWnt+1lfL0RHYttm6yZPk/RcfQ63DY7GHnYLn8dn8kzpF2X5PpLvJV1Vc/5JiS8/1y4v4r36UPm0i7XL2+m0m53L++k+7ZVlEcKSaOD9eCilg5JpfteFvUnp4OQfflfELQhMogGBCSA0ibiIBia/4dlPVD6vYMhoKh5/otK621O3+EVqdPAefCy/kCpOu4xihcVa5RNVX1HVI8oDWazm7afXs2zAhTYscX5xDuCEhCUzuF1wNJyOm/hcHsgzpb4L5Bqj4gylbLxdzRvWWOefE06/Fysf/jslq7erLr4v76s12ivLEoQl0cD78fuU3o+D/a5LG6/ydCVv65V+V8QpBCbRgMAELAhNoiuigcmlPLtN5fPkMWp5nFpXqrmJqmV44cqtWuVLJp5K+XsP015/00crrH4LFN3D2+987ZUFFMISAC3S06jcdKz1uyJt8TktN0RHqixbcebVjs7fuvlPUeOHb2uVzR88ikqO0L9/sJ5SfOBG1cUX8L6aoL2yLEFYEn68Dw/j2U2k2BecTyRlnBGUJ+N0ITCJBgQm8DWEJtEU0cBkJKWHq1NScdY1lFNUorr4LpI1lVT99L3W3I6iQyZR4ajDtNcral+bQ00fKXfyKI+yXuFohQGDsARAi7yCc7/flegIn9d38Uwp3C05cirl7ztSf2XJBNW8/Kid12Isef32ppLJp1Msrv+WY9OalVT76uOqi9/P++wc7ZVlAcKS8ON9eArPHuUpx++6KJDQ5HtheU2tPQhMogGBCWRAaBI9UQxMhJ2RcooPP4EKhjr7IUV+Kax77Qlq3tj1j7WxgiJe5/GUP2h/R+uUjh63P3CjneP6h7z9/uBspcGBsARAy2xuB2b4XYnO8Lktv24rhbt5A/aj0smnOVthKkX1b75CDSsWWf/uVCxGhSPGpvudynF2T1k7dzY1rVPuv+g23m/fdbRCDyEsCT/eh9Kh8C/8rocGGe7qyjC8rtYWApNoQGACu0BoEi0RDkwkGPiByrK5vfeispPOU1p/V5o/XUON779BzTLMb5vOYHPKulPBviOskR1iBc5H45NfRKXDQBuO4O033/GKAwBhCYCWR7kNmOl3JbrC57e03WrhbjxO3c682gqinUps/5Ia311ijTaUamrI+P+kv6n8gUOoYMRYinfr5XhdqaZG63WcVKJFtchPeN/9zvGKPYCwJPx4H0pnaIEN5BRI783yis5CvytiBwKTaEBgAu1CaBIdEQ5M5NfJm1TrUD79Eop331118S7JRXCSL76TDfUUy821jvec4jLXPl/UPP8gNW9Q7n5gLW87vfGTAwZhCYCWWdwGOHwUIzv4HB/PM+Vwt2jM0VQ4cpx7FUilrA615Xspxt84MW674+U9rKdL3NK4cinVLX7BTpGJvP9eda0CLkFYEn68D+/g2be9+OxYbl76B6KcXP6vlNXvW6qhzotVCQlNZvJ+ed2rFbgNgUk0IDCBDiE0iYYIByYHUXoIOiX5+4ygkqOCMGqemsRXX1DVY7ZG1vtf3nb/5VV9sgVhCYCWh/n81x9/1wd8rn/EM6WQV8Lo8tOvcNSfSFYlk1T5yM12+r36mPffQA9rpAVhSfjZef2tK/KUV96ee1Nun70o3qM3xbv1tJ7M2gUf/4ma7Xwds5kSWzZR86Z1fG3+hRtVEPJBE3j/fOTWB3oJgUk0IDCBTiE0Cb+oBiaC/7YVPBuhtHAsRuWnXmKNmhMG8iqOzU4KT+Zt95RX9ckGhCUAWm7ic19/7F2f2HothxWNnUKFww/1sEbuaXz/Tapb+JydIt/mffhPr+qjA2FJ+PE+/BnPrnP0ITlxyh80lPIHH0B5fQdoP4WVrKmiprUrqfGD5XaG2e7I87yPjnP6IdmAwCQaEJhAlxCahFvEAxNbr+Xk8pd92QmBHoTAIh3L1jz3oJ0iW3m7OX/p3kcISwBskyfsruNzf7bfFdHB5/xgnn2ourz8kl0+87uORjzLBrnmqHzkFrvXHsN5P77nVZ3sQlgSfrwPZYhqGQ1H71eieC4VDj2ICkaOc3dfplJWH0INy+dZfQo5cB7vq3vdqpZXEJhEAwITUILQJLyiHJgI1S+jnYonnEgF+422UySr5P3fqtm32x3CONSv4yAsAeiSHGQ1PEmnRot4msPn/PP+Vsk5PvelLwLlsdfzBgyh0snB7tO29pXHrV/SbXiD9+UYr+pjF8KS8ON9uB+l+wjSCkvkOrD4sOOsm3jPpFJWB/r1b75qXfdoOo332Sw3q+U2BCbRgMAElCE0CScDAhP5hUH5sZFYXj6VTb3QlVEQvKBxsS2KeLs1dL1Y8ODiHMBcfP7L8GV32ykT5NC76aMVVPvaE3aLBeZ1HLTH0cD7UXobnmK3nHTgKkFJ/uBRHtSqffLjUO2rj1PLFxt0P+JI3nfz3KyTmxCYRAMCE7AFoUn4GBCY7M8zW48yy4Vd2ckXuDL0r5saViyi+qUv2y12D2+z872oj9dwcQ4A3A4s5pl65yTxuPVqZe7u/byrlIaWLz+jmqfusTOMsHib24JApD9oj6OB96NcD9xlt5xcm5dOOd2fft6SSWtEKen7R8MK3n/ZS3hsQmASDQhMwDaEJuES9cBE8N94H8/OtlMmt/deVHrcmdYvKkHQtGal9SuLTfKI/iG8zT7woEqewsU5AAhuCy7k2b/slIkVFlvXEkF5UjBR+RVVP3W3znCql3F7cKsXdbID7XE08H4cyLMHeLI1Bne8x+58PXSW7/0DNaxYSPVL5+oU/RHvx9+7XR83IDCJBgQmoAWhSXgYEpgMk6I87W+nnHQCK7+oyGs6frLCknlPWL+y2PR73l4/8qJOXsLFOQC0xm3CSzw72k6ZGN/clR1/tu8jn0nHlTV8XZGsU/uOa2UBtwcTvKiTHWiPo4P35e08u8ROGTl/5JpchgwOAs0nbdfxNJ7352ceVMkRBCbRgMAEtCE0CQcTAhPBf+dVPPuL3XLxnr2pdMq3+Jgs01mtYw5+Ufmcp6G8vWz1Dus3XJwDQFvcLgyldCeVPe2Uk5FzSo6eTnl7DPKmYl1o+exjqnn5UZ3rCXk6cAK3CW97UC1laI+jg/fl3jxbY6eMXPeUTb3Il33YmfrFL1LDyiV2iwVyeHUEJtGAwAQcQWgSfKYEJoL/VvmGtT3agDzeXXLkNMrrt7fuqm1LNTVQ3fynreH1NM3kbfWom3XyGi7OAaAjuqE3xWJUdNCRVDjqcOvfWZFKpX8JX/aqzpOB4j+5TbjB7WrZgfY4Wnh//oNnFysXyIlT2cnnU26vvt5VShefXzXPPUjNm9bZKZXk/Rr3qkq6EJhEAwITcAyhSbAZFphIWCK/Umq9Y1Mw5EAqOmSS553BNn/8IdUtek55m7TjfN5O97hZJ6/h4hwAuqIbegvpBLZ4/Amev6Ijr+DULXiGWr74VPcjfO/oFe1x9KjemO9UdOhkKhwx1qvqOJasr6Wq2bfb7Rfop7x/f+tVnXQgMIkGBCbgCoQmwWVSYCL475W/VZ680ApN5D3ewgMOp4KhB7neIWzL5o3WL5Itm9Y7+ZgXeBsd61KVsgIX5wCgwmnoLU+YyJDDhaPHW9cWbpLvsIa3F1Djh2/pPlWyk7yKs8CtetmF9jh6eJ9KvyW3qy6fu9se1kiBWXsiS1PTmnep9tU5dop8wvt4gFf10YHAJBqCfaZAqCA0CSbTAhPBf/P/8eynTj5DgpOCIaMpf/Ao6yJRl1zcNX/yITW+v8zJL5I7bab0xfZqpx+ULbg4BwA7nIbelpwcyh+4v9WG5/bpr39jmEpZ7XbjB29R07r3nAYlYga3C7OdfogutMfRxPtVxuM9SHX5sqkXWqFJGMjoUy1fbLBTZBLv61c8qo5tCEyiAYGJh/gkkZRThvaSjhFKd0w5PDVQusOvtTwtCtPNT1cQmgSPiYGJ4L/7nzy7yI3Pkke88/rtYw1FHO/Vhy8YO+4gVi7o5JHtxOaN1LxpPbVsWufkIq8tX3+ZtAsX5wCgg9uOH/Lsejc+S4ZKle81CU7ifJMYL+tuBSrtSqUoUbWNEl9usjp0bd6whpJ1NW5UQ/yc24X/c+vD7HLSHudU9KCyE85FexxAvF9H8GyF6vJ5A4ZQ6eSZHtbIXRJYVj9l6w3kQL2Wg8AkGhCYuIRPiMmUGY705ukoxeILeZKfLb4OUXiawwftdg+q6jmEJsFiamAi+G+/j2dnu/V5O8mrOnKsWn2dxPP4IjtJqeZGStXXunlx3da3eNs87NWHuw1hCQA4wW3IdTz7mesfnJNjtd85hcVEO1+75PM92VDH31NVbjxF0p7ruV34sRcfrAJhSXTZfR2nbNpFrnf0Kp3YW9fOObnp48TlV31sPmXyHu/z4a5WwAEEJtGAwMQBPgkOpnRIIo/+7+nBKm6mkIYnCE2Cw+TARPDffzfPznPzM7NMhg++GmGJ93BxDhAs3Jb8mme/8LseDv2G2wX3gx9FCEuizc4ryPFefal8misP3lJi2xZqfP9NviFfnXF9F4vnUrx3PyrYdyTl7z2846e5bGhau5JqX3ncTpExvO/fcLxiFyAwiQYEJhr44JcjWr58splgSnhyHR/IG7O4TkcQmgSD6YGJ4G3wV559z+3PzQIJS+Sd94V+V0QVwhIAcNOOa66/+V0PDZ/x9DtuF270qwIIS6KP9/FSnh2ismzxuGOpYJjSoh2SfVK/+EVq/GB5l8vKd3rxESdT7u7OflNOJVqo8v4/U6q5SbXIVbz/A9FmIDCJBgQmNux4p1a+eAb5WI2HKB2cKL+v6CeEJv5DYJLG2+G7PLvFi8/2yHM8XcnbY43fFVGFsAQAvMBti9zlSUewe/ldF0USlkjYvcivCiAsiT7ex8N4tlJ1+Yozvudo9Ci5Jq5+7kFKfPmZeqGcOJUcNY3yB+2vvV5R+/Kj1LR+lerif+JjQOvew20ITKIBgYkCPtiP4NlNPI30uy47bKVvnjhp8LsyXTE4NLmc94/vN+gITL7B22I6pc9ld1/gdd+5vB3u87sSdiAsAQAvcRvTn9Ltd9Av6J+ldNi91q8KICwxA+/ni3n2D5Vl5Xu2fOZ39VeWTFL10/dSy2ZbI9ak5eRQ2XFnUW5f/RF/ZaSqugVPqy5+Ox8H39FemYsQmEQDApNO8EEuMezPefqR33XpwMeU/lJ+yu+KdMXQ0ER6jhvq9yhICEwytTqv5UXe3bxcl4Z1lD6nn/G7InYgLAGAbOH25luUbm8m+lyVtubzdDO3Cff7WQmEJebgff2/lL6e6VL+4FFUcoT+vXDDW/Opftlr2uVzSsqofOZlVqf5OmT0wapHb1NdPDAdvyIwiQYEJh0I0S/R4mI+wP/ldyW6YmhochfvmwtdrpItCEzax9tlP0qf41Oysb4ubKFvnhpTfkk3CBCWAEC27XgVQW4UXR8FTdODlG6/3/WzEghLzML7W/7ma1SWLR57DBUMH6O1nlRjg3Ud52D/WIrGTKLCkYfpFU6laNvd1/NFeUJl6QQfD7l6K3IXApNoQGDSjhD2dSDu4IP8Ur8r0RVDQ5M9ed9scrtOqhCYdI63z/mUvsAcl831tiI/mciF9ic+rV8bwhIA8BO3QXL3JcGJ0necB+QdAWm/X/dp/V9DWGIe3udPkOIrak6u7xpXLaO615/VKtuaHGcVMy/TLl8161ZKVG5VWjbb15IdQWASDYE4mIKED+w/8OwHftdD06N8oM/0uxJdMTA08bUvEwQmanY8cSKhyV1ZWJ2EI/Lo9m+zsC5PICwBgKDg9kher5TgRNqkfI9X10LfPBH4hcfrUoKwxEy839/k2UEqy5afcjHFe/bRWo/NDlc75aTj2epn7qOWzz5WWhaBSRoCE3cE4mAKCj6o5abWQY9IgfAYH+zT/a5EVwwLTXx9LQeBiT28vWQDTKN0eDKZpx4uffQySl9kf8R/4ysufaYvQhuW8IWWXDjg4hwgmrhtKqZv2u+pPO3t0kdL/1LSfm/kaQ63AzUufa5jCEvMxfv+I57to7JsxemX83Vzd631VM2+nRLbtmiVbav0uLMob0+9wUZrXppFzR9/oLSs39eSOyEwiYZAHExB4OQLpyNyQx/vvps1zyksoViedHQUs8YTl/cBk7VV1qNliW2bVd/JU4XQxEMaock83h9HelmnziAwcYa3n3x5yMW3XHjLVaX8mrNnJ0XqeHqPp4U8yUW1jJSwyO93292CsAQAwoLbqwmU2X5LJw7yJddR/wZyMSZDuS+hzPZ7nve1tQ9hidl4/6/nmdLQM3IzLjflOiof/jslq7drlW2r9OiZlDdwiFbZ2rmPUdO695SWDcq1JAKTaAjEweQ3Pph/w7OfOP2cWF4+5fXfj6fBlNd3AMUKi9UKJpPUsmUTNW9YQ03r36dk5VdOqyJm80E/w40P8lKYQ5OqJ+/mf7SoLL6c94XSI5NeQGACbkFYAgAQDAhLgI+BD3k2WGXZ8tMuo3i53gOzVY/dQYmvNmuVbav0+LMpb4+BWmXxhIl9CEzcEYiDyU98IJ/Ls3ucfIbcCBSMOJTy9xmhPVxWay1fbKDG95am3xdMKZ1nHbmbD/wLHFfIY2ENTcISAiAwATcgLAEACAaEJSD4OJAnoZSGvimbdhHl9tIb+LP2lceoaa3akx1dqTjzau1jD32Y2IfAxB2BOJj8wgfxsTx7Tre83KwXHTKR8vcezlvS/U0pY47XvzGXmj9Z7eRj/pMP/hvcqpNXwhiahCUEQGACTiEsAQAIBoQlsBMfC4/x7BSVZUunnGY9Ba+jafU7VDvvSa2yrcW79aLyGd/RLl856xblp/CDci2JwCQaAnEw+YEP4DjPpMtnrbvDgmFjrLDEjSdKuiKBSd2CpylZX6v7EefzCeDoKZpsCFtoEpYQAIEJOIGwBAAgGBCWQGt8PFzPsx+qLFs05mgqHDlOaz3S7+L2B/5sdSHgRNHYKVQ4/FC9wrzubXf/nudKfT628PHi/Q2aAgQm0WDsjQkfwL/k2a/slosVFFHJUadQXj+3Ol5Xk2qoo9pXH6fmjet0isud6lA+CTa5XC3XhSk0CUsIgMAEdCEsAQAIBoQl0BofD5fw7HbV5eVp+JKJSg+jtEv2ofS1qEuuzeXpkli8o/6WOycDZFTNvkN18RV8zIzSWpHLEJhEg5E3JnzwDuXZfJ562imXU85fOMedoT0sl2OpFNUtfoEa33tDp/Tf+SRw/0z0QFhCk7CEAAhMQAcfNzKE5mU6ZRGWAAC4B2EJtGY3LBFOb8ibVq+g2nlP6BWOx61jMHf3zgYY7FzjqmVU9/qzqovfwseNqyOf6kJgEg1G3pjwwfsSz462U0beu7NuAIpKPKqVuvplr1HDW/PtFpMTdhKfCK96UCXXhSE0CUsIgMAE7DI4LPkPPv5udLNOAABOICyB1nTCkp3KZ37X+o7WkWpqpO33/1n1lZivyRMlJZOmWyOIOmFnhBz2Bz52lF5V8hoCk2gw7saED9wLefYvO2XkxrvspPN9+cLpSP2SF6nh3SV2i73AJ8KxXtTHC0EPTcISAiAwATsQlgAABAPCEmjNSVhiPeVx4nmUu9se2utPbNtCTeveo6a171OyquvOV+O9+lDJhJMp3mN37XUKOY4q7/+znePpCj5+bna0UpcgMIkG425M+MBdzDPlHodieQVUNu1C7UTWOymqeXEWNX/yod2C4/hkWOxFjbwQ5NAkLCEAAhNQhbAEACAYEJZAa07DktKjZ7p6fZf46gsrOJF+TRLbt3zdIWyssJjy+g6g/H1GUF5/WZ/zS7qmj1ZQ7Wu2Xgc6iI+h5Y5X7AIEJtFg1I3Jjr5L3rdTpuToGZQ/cKhHNXIm1dxIVY/9g5LV2+0Ue4JPhmle1ckLjkOTqRd6ctEQlhAAgQmoQFgCABAMCEugtaCFJbtIpax7EsqJezJ6aPUTd1LLFuVxKwLT4atAYBINRt2Y8EH7FM9OVF0+f98RVHJksLOFli8+peqn7I0YHMYbUiehSelxZ1Lenu6PahSWEACBCXQFYQkAQDAgLIHWAh+WeKx503qqefZ+O0X+k4+jG7yqj10ITKLBqBsT1YNWyPDBFaddZs2Drm7+09T44Vt2ilzLJ8SfvKqPV3RDEwQmCEygYwhLAACCAWEJtGZ6WCLdD1TPuZNavvzMTqEJfCwt8KpGdiEwiQZjbkz4gD2HZ/eqLl80dgoVDlfu6sRXyfpaqnr473a+qFbzCbGfl3Xyik5ogsAEgQm0D2EJAEAwICyB1hCWEDV++DbVzX/KTpE1fCwF6o9GYBINxtyY8AEr4/COV1k2VlRiHbQyFFZYaIyaczifFAu9qo+X7IYmCEwQmMCuHIcl0qGyD8OsIywBgKhBWAKtISwh65qxavbtlGpqsFMsUK/jCAQm0WDEjQkfrPvw7CPV5QsPPIKKeHKLPEqW2LyBktWVlEolKaewmOI9elNu3wEUy8t3ZR3JmkqqfPjvVsdLikL5Ws5OvE+f5dlxKssiMEFgApkQlgAABAPCEmgNYQlZI+5UP3Of1U+jDQ18PAWuHwUEJtFgxI2JrddxYjE+YL9HOSVlDteaoqaP3qX6txdQsrL9scqlJ+n8wQdQ0YETrGG4nKp57kFq3rhWdfG/8UlxleOV+gSBiToEJtAawhIAgGBAWAKtISxJq3v9WWpctcxusT/xMaU1OISXEJhEgxE3Jnyw/hfP/kdl2dw+/amMbwickMfHauc+phxeSFhSMvFUyttjoKP1Nq1+h2rnPam6+AI+KSY4WqGPEJioQ2ACOyEsAQAIBoQl0BrCkrSGt+ZT/bLX7BZbRenOXrd6UCVHEJhEgxE3Jnyw/o5nP1JZtmjMJCoceZj2umQc8uqn76PE1s/tFczhxm7K6ZTXT//GXjp/rXzA1j3BvnxirNFeoY8QmKhDYAICYQkAQDAgLIHWEJakSVAigYmGa/i4+ovb9XEDApNoMOLGhA/WxTxTGvKmbOqFlLvbHtrrqn35UWpav0qrbCy/gMpPvcQ6aXRJB0mJbVtUFz+XT4z7tFfmIwQm6hCYAMISAIBgQFgCrSEsIUolElT3+jPWk/Ia3uDjaozbdXILApNoMOLGhA/WRp513btqTg51P/+H1tMeOpo3rLG+TJzIGzCESifP1C5fO+8JbnBWqC7+Sz4xfq29Mh8hMFGHwMRsCEsAAIIBYQm0hrCEKFG5lWpfedz+k/lpckDKqzi2hgnNJgQm0WDEjYnqwSo3B+Uzv6u9nupn7ueL/PXa5XeqOO1yyinvrlW2YcVCql86V3Xx6/nE+LHWinyGwEQdAhNzISwBAAgGhCXQmulhiTxV0vjuImp4awH/u0X3Y6bysaXceaMfEJhEgxE3JqoHq9xUy821jlRDHW2/353vg6JDJlHhKL1+VJrWvWd1OKvoIT4x9P5gnyEwUYfAxEwISwAAggFhCbRmdFiSTFDjRyusoCRZU+nkk07jY2uWW9XyCgKTaDDixkT1YM3fZwSVHDVNax1uvI6zk5PXcuQJF3nSRdHLfGJM1lqRzxCYqENgYh6EJWbh/X0sz+TLaxxP0tjJnVWer5UCAMcQlkRPWMOSVHOTNY/ldd3DQXsS2zZT05qVVj8lMkiFQ4/zsXWq0w/xGu/rP/DsByrLIjAJNiNuTFQDk4IhB1Lx+BO01tH44dtUN/8prbJtSaez0vmsjpbNG6n6ybtUF1/EJ4b+kEA+QmCiDoGJWRCWmIP39XSe/Zyng/2uCwC4C2FJ9IQ2LGlqoOpnH7BCj7ze/Sm3dz+K9+prXTPESsooFs9tvTSlGuopUb3dGoQiwfclzZ+tpyT/t0vWU7rfko1ufaAX7IQlAoFJsBlxY6IcmAw9kIoPD0BgsvueVHbyBVplbQYmC/nEOFxrRT5DYKIOgYk5EJaYg/f133jm/tUVAPgOYUn0hD4s+fKzDpexApPcPF44mX4SJaV026VjPU8z+Pha7tUK3GA3LBEITILNiBsT5Vdy9h1BJUf6/0pO/qD9qWTSdK2yeCVnVwhMEJiYAGGJOXhfy9XP6X7XAwDch7AkeqIclmTR4zxdGbUnS3ZCYBJsRtyYKHf62m8fKj32DK11uNrp66GTqXDEWK2yTWvfo9pXlDt9fZBPjLO0VuQzBCbqEJhEH8IScyAsAYguhCXRg7DEFWHp4FUrLBHxHrtT+amXuFwjBCZuMeLGRHlY4W69qHzGd7TXU/3MfdYNgFOOhhV+ZyHVv6E8rPBv+cT4qdaKfIbARB0Ck2hDWGIOhCUA0YWwJHoQljj2KU/387H1E78r0hUnYUlOSRmVybVYmd69X2cQmLjDiBsTPoila+euRwzIiVP383/I8xyt9dg8KNsV79mHyk+5WLt87WtPUNNHK1QX/wWfGNdpr8xHCEzUITCJLoQl5kBYAhBdCEuiB2GJYxKWSH8lb/hdka4ENSwRCEzcYcSNCR/IcrIpjSJQPu1iivfqo72umpdmUfPHH2iXLzpkEhWO0h+4pmrWrZSo3GqnyB18clyqvUKfIDBRh8AkmhCWmANhCUB0ISyJHoQljsl1q/RX8onfFelKkMMSgcDEHUbcmPDBfAPPrlVZ1kn/ISLV1EjVT99Dia82a5WvOP0KPnG6aZWVcc0rH9C6jwhdaILARB0Ck+hBWGIOhCUA0YWwJHoQljjyCk8383Hl7HH9LAl6WCIQmLjDiBsTPqB/xbNfqiyb23cAf3md42h9qcZ6qpk7m1o2rVcvFM+lgn2GU/EEpfvadsmrOPJKjqZQhSYITNQhMIkWhCXmQFgCEF0IS6IHYYm29ykdlPzVrwrYFYawRCAwcYcRNyZ8UF/AszuVFo7FqOKMq1z4AktR44fvUMPbCyhZvb39ReK51sg8+YOGcgM5mGJ5+c7W2FhvdTyr+3QLhSg0QWCiDoFJdCAsMYeTsCR3j4GU26uvyzUCADcVDBuDsCRCEJZouY+nG/l4WurHynWFJSwRCEzcYcSNCR/YQ3i2SnX5ooMnUuEBh7u09hS1bN5ILV9soGRNJf9nkmKFJXwx24dy+w50HJLssjZDQhMEJuoQmEQDwhJzOAlL8gYModJJ07U7LweA6EJY4g2EJcrkXkyuZZI8zQlDHyVthSksEQhM3GHMjQkf4It4ptQ5SU5xGZWffgXFuBELIxNCEwQm6hCYhB/CEnMgLAEALyAs8YbBYYlcWw7lqR9Pha0/mqcveVrL07s81ez49yI+fpbo19h/YQtLBAITdxhzY2LrtRxWfNhxVLC/0sA6gRT10ASBiToEJuFmcFhyDR8Lf3GzTkGHsAQAvICwxBsGhyV38vFwkZt1CrowhiWiae17VPvKY6qLP8j79Swv6xNWxtyY8IE+gGfrVZePFRZTxWmXUSy/sOuFAyrKoQkCE3UITMILYYk5EJYAgBcQlngDYYk5whqWJL76gu8D77fuBxUF9r7Pb0bdmPAB/wrPjlJdvmDIaCoef6J3FcqCVEMdN4z3Ry40QWCiDoFJOCEsMQfCEgDwAsISbyAsMYdBYYn4Ge/f33hVpzAz6saED/ozePagnTJe3UBmUxRDEwQm6hCYhA/CEnMgLAEALyAs8QbCEnMYFpaIo3kfz/WiTmFn3I0JH/zLeTZadflYQRGVT7uID/huHtbKey6EJrfzSfQdN+vkBAITdQhMwgVhiTkQlgCAFxCWeANhiTkMDEs+5X3c34s6RYFxNyZ8AshN/612ysS79aKyk86zwpMwi1JogsBEHQKT8EBYYg6EJQDgBYQl3kBYYg4DwxKB13E6YeSNCZ8I83g2wU6ZeK8+VHbc2RQrCG8nsCIqoQkCE3UITMIBYYk5EJYAgBcQlngDYYk5DA1L3uf9PMztOkWJqTcmo3g2n6cyO+Xi3Xej0mPPtE6IMLNCExk9Z9sW3Y/wPTRBYKIOgUnwISwxB8ISAPACwhJvICwxh7OwpJzKTjwnjGGJQN8lXTDuxmQnPin+j2c/tVtObkpK+II1t0+4X/NyITT5MZ9c17tZJzsQmKhDYBJsCEvMgbAEALyAsMQbCEvMYXBYcibv64fcrFMUGXVj0hqfGHKHsYqnfrYLx2JUOOowKhx9BMW4QQwrF0KTi/gku9PFKilDYKIOgUlwISwxB8ISAPACwhJvICwxh8Fhya94X/+3i1WKLGNuTNrDJ8g0nj2uWz6nvDsVj5nMF7P7uVir7HIYmtTxNJRPtk9drlaXEJioQ2ASTAhLzIGwBAC8gLDEGwhLzIGwBFQYcWPSGUeN4g7xnn2ocORYyh84lM+e8D1x4jA0uZVPOK2bPicQmKhDYBI8CEvMgbAEALyAsMQbCEvMgbAEVEX+xkQFnzB/5Nn3nX6ODDucP3AI5fXfz+rjJJaXr1YwlaKWrZ9Ty4Y1FN99T8rbY5DTqtjmMDTpySfeV27XqTMITNQhMAkWhCXmQFgCAF5AWOINhCXmQFgCdkT6xsQOPnHu4Nm3XfvAWIzi3XrxtBufUBXpG5y8Av6fY9YXnBzoyZoqSlRutQ7+VHNTulg8l0qmnM43+KEKTbLelwkCE3UITIIDYYk5EJYAgBcQlngDYYk5EJaAXZG9MdHBJ9A/eeZ7oxHC0CTrr+UgMFGHwCQYEJaYA2EJAHgBYYk3EJaYg/f1DTy7VqcswhJzRfLGxAk+kf7Ks+/5XY+QhSYv8El4rJd1aguBiToEJv5DWGIOhCUA4AWEJd5AWGIOhCWgK3I3Jm7gE0r6M/mj3/XwMzRp2byRqp+8S3XxhXwiHu5lfdpCYKIOgYm/EJaYA2EJAHgBYYk3EJaYA2EJOBGpGxM38Yl1Ds9u4qnCz3r4FZokvvycqub8U3XxN/lkPMTL+rSFwEQdAhP/ICwxB8ISAPACwhJvICwxB8IScCoyNyZe4BOsD89+Tj6/ouNHaILApGthCQEQmPgDYYk5EJYAgBcQlngDYYk5EJaAGyJxY+I1PtlOoPTTJtl/N2aHbIcmCEy6FpYQAIFJ9iEsMUdYw5LGVcup5YtPs75eAFDX/PEHCEtchrDEHAhLwC2hvzHJFj7p8in9tMnlPO3mRx2yGZogMOlaWEIABCbZhbDEHGENSxpWLKL6pS9nfb0AkDUIS9qBsMQcCEvATaG+MfELn4Q/oXRw0j/b685WaILApGthCQEQmGQPwhJzICwBgIBCWNIOhCXmQFgCbgvtjUkQ8Ak5kWfjePoRT1k7s7IRmiAw6VpYQgAEJtkR3rBkPdW88DDCEhsQlgBAQCEsaQfCEnM4D0v4Wqysm8u16hrCkmAL5Y1JEPEJOpXS4YncmZfy1JunMV6tz+vQBIFJ18ISAiAw8R7CEnMgLAGAgEJY0g6EJeZAWAJeCd2NSZjwibs/ZYYoZTzJlXIdT1t5quFpLU+P6Hy+l6EJApOuhSUEQGDiLYQl5kBYAgABhbCkHQhLzIGwBLwUqhuTqOKT/ApKj8JjWywvn7qd958u1wiBiYqwhAAITLyDsMQcCEsAIKAQlrQDYYk5EJaA10JzYxJ12qEJX4B3v/AnrtcHgUnXwhICIDDxBsIScyAsAYCAQljSDoQl5kBYAtkQihsTU2iFJghMuoTABIGJ2xCWmANhCQAE0HaeruT2+H6/KxI0CEvMgbAEsiXwNyamsR2aIDDpEgITBCZuQlhiDoQlABAwLTzJd9B13B5/4XdlggZhiTkQlkA2BfrGxFS2QhMEJl1CYILAxC0IS8xhaFiymafdXawOADjzKn0zQMAinuZwW1zjb5WCCWGJORCWQLYF9sbEdNwYpJQWRGDSJQQmCEzcYHBYcjXvk7+6WKXAMzgsmcH7eoGLVQIA8BzCEnMgLAE/BPLGBBCYdAWBiToEJs4hLDEHwhIAgPBAWGIOhCXgl8DdmEAaApPOITBRh8DEGYQl5kBYAgAQHghLzIGwBPwUqBsT+AYCk84hMFGHwEQfwhJzICwBAAgPhCXmQFgCfgvMjQlkQmDSOQQm6hCY6EFYYg6EJQAA4YGwxBwISyAIAnFjArtCYNI5BCbqEJjYh7DEHAhLAADCA2GJORCWQFD4fmMC7UNg0jkEJuoQmNjD2+tXPPulTlmEJeGCsAQAIDwQlpgDYQkECQKTgEJg0jkEJuoQmKjjbXUkz17VKYuwJFwQlgAAhAfCEnMgLIGgQWASUAhMOofARB0CE3W8rZ7j2bF2yyEsCReEJQAA4YGwxBwISyCIEJgEFAKTziEwUYfARA1vp4N59obdcghLwgVhCQBAeCAsMQfCEggqBCYBhcCkcwhM1CEwUaPTdwnCknBBWAIAEB4IS8yBsASCDIFJQCEw6RwCE3UITNTYfR0HYUm4hDYseXcx1S95Sbc4whIACCWEJeHH+7Afz8bxJBfhpTz14qmIJ7nHqeOphqe1PA0hhCUQYAhMAgqBSecQmKhDYKKGt9Nqnin98QhLwgVhCQBAeCAsCR/eZxKGTKNvAhK5ljvay3UiLIFsQWASUAhMOofARB0CEzW8neQKp0+XC+bEqeKM7yEsCQmEJQAA4YGwJDx4X5XRNyHJ97K5boQlkE0ITAIKgUnnEJioQ2CiRvWci+XlU7fz/tPr6uwCYYl9CEsAAMIDYUk48H6SH5d+ztPlPMWzvX6EJZBtCEwCCoFJ5xCYqENgoibIgQnCEvsQlgAAhAfCkuDjfSR9jUhQcp5fdUBYAn5AYBJQCEw6h8BEHQITNUENTBCW2IewBAAgPBCWBB/vI7nwkSdK3L+gVoSwBPyCwCSgEJh0DoGJOgQmaoIYmCAssQ9hCQBAeCAsCTbePxN4dhNPo/ysB8IS8BMCk4BCYNI5BCbqEJioCVpggrDEPkPDki08TUdYAgBhg7Ak2Hj/zODZLL/rgbAE/IbAJKAQmHQOgYk6BCZqghSYICyxz+CwRJ4sme9ilQAAPIewJNh4/9zIs6v9rgfCEggCBCYBhcCkcwhM1CEwUROUwARhiX0ISwAAwgNhSbDx/nmAZ2f6XQ+EJRAUCEwCCoFJ5xCYqENgoiYIgQnCEvsQlgAAhAfCkmDj/SOv4Mzwux4ISyBIEJgEFAKTziEwUYfARI3fgUmyahtVPXYHwhIbEJYAAIQHwpJg4/3zCM9muvV5sdw8ivfoTfFuPSmntIJihcUUi+da/59c6yTraylZU0mJ7Vso8RV/tSUT1v+HsASCBoFJQCEw6RwCE3UITNT4HZi0fLGBqp+6W7c4whIbEJYAAGQXwpJgc+s1nJyKHpQ/aH/eV4Mpt2cf5e/ZVKKFEps3UPOGNVQw9GCEJRAoCEwCCoFJ5xCYqENgoibEgQnCEhsQlgAAZBfCkmDj/fNnnl3j5DPku7Vw+BjK7dPfpVplF8IS6AwCk4BCYNI5BCbqEJioCWlggrDEBoQlAADZhbAk2Hj/nMqzR0nznjC370AqHjvZevUmrBCWQFcQmAQUApPOITBRh8BETQgDE4QlNiAsAQDILoQlwcb753CeyXeL7euuWH4hFY87hvL3Hel+xbIIYQmoQGASUAhMOofARB0CEzUhC0wW8Haa4HolAgxhCQBAeCAsCT7eR8t5NtpuudxefamE909OabkHtcoehCWgCoFJQCEw6RwCE3UITNQgMAkuhCUAAOGBsCT4eB9dy7Mb7JbLHziUio+a9vVoN2GFsATsQGASUAhMOofARB0CEzUITIIJYQm0xsfDYTwbx5M06qU8yXfPfjzld1Cklqf3eFrCUw1Pa3laxNv2He9rC2AehCXBx/toMM+e5snWhs7fdwSVHDGVL4TCffuIsATsCvcRH2EITDqHwEQdAhM1CEyCB2EJ8DEgocg0Sockx/M02KWPfounm3laz9v6eZc+E8BoCEvCgffTnTy7wE4Z6zv16BkISxCWGCncR32EITDpHAITdQhM1CAwCRaEJWbj/S9DLvycp8t58vrZ788pHZ5cx9s+4fG6ACIJYUk48H7anWdf2CkT79WXyk46D6/hICwxFgKTgEJg0jkEJuoQmKhBYBIcCEvMxftejmsJSo73qQr3UDo4+cCn9QOEDsKS8OB9dSPPrlZdPpZfQOWnXkI5pRUe1sp7CEvACQQmAYXApHMITNQhMFGDwCQYEJaYife7jNQgQclpfteFNdI3T5x86XdlAIIMYUl48L4q4dk2nvJUy0ifJfmDMXQwwhKzITAJKAQmnUNgog6BiRoEJv5DWGIm3u8XU/rVm6x+jyjYytOVvG8e8rsiAEGEsCRceH+dxbP7VZfP7TuAyk44x8MaeQ9hCbgBgUlAITDpHAITdQhM1CAw8RfCEvPwPh/Gs5t4muhzVbpyLe+jP/ldCYAgQVgSPrzPbuPZparLl59yMcV79vGwRt5CWAJuQWASQNyg8ZU/Paq0cDACExmmUX6Fe9b1inQAgYka3k5jKX1DcrDK8kEITNhFvL3udL0SXUBg4h+EJebhfT6R0t9z3X2uiqrllP6eW+h3RQD8hrAkfHif9aL0946SvP6DqXSK1tdyICAsATchMAkYbtB+zbNfKBcIRmCy0wXcuCjf8TmBwKRrvI2mUvqGRLlb84AEJuJPvM2udb0inUBg4g+EJebhff5jnv3W73poSFJ6vz3ud0UA/IKwJJx2vPr4D9Xl5VUceSXHDamWZmrZtJ5aeNun6mutu8+c4nKK79aX8mQdOXFX1rMTwhJwGwKTAOHGTJ4EuMJWoWAFJuIn3Mj8zu36tIXApHO8fb7Ds1vtlgtQYCL+xdvtYtcr0wEEJtmHsMQ8vM9v4FlWw1CXSWhyFe+/v/tdEYBsQ1gSXnZex8kp70EVp13meJ2p5iZqeHsBNb6/jP/d2O4yMgpP3oD9KH/QMMrbY5Dj73SEJeAFBCYBwQ2Z3Nx+x3bB4AUm4ufc2Pyfm/VpC4FJx3jbSOeJWhfzAQtMxN287S5wuz7tQWCSXQhLzMP7/M88u8b1D47FKKeohGIFRRSL51r/LRfqyYY6SvHkkat5P/7Vqw8HCBqEJeHG++9Fnk1WWbZw9HgqOugoR+tLbNtMNS8+Qsnq7cplYvmF1roLR4zVXm/d689S46plusURlkC7EJgEADdif+TZ97UKBzMwEZdxo2P7CQdVCEzax9tlBs9m6ZYPYGAibuPt910369MeBCbZY2hYIsPTTjc4LPlfSg8b7JiEI7n99qG8Pv0p3qsvxSt6dPhItzwKntj+JSW2bKJmeSR80zorTHHJ2bw/H3DrwwCCCmFJ+PE+nEuKHWyXTb2QcnfbQ3tdiW1bqPrpe7We8ogVFlO3s66xgm8dzZ9+RDUv/FunKMIS6BACE59xA3YVz/6i/QHBDUzEYdz4LHKjPm0hMNkVbxO5gZ7n5DMCGpiI/8fb8H/cqk97EJhkh8FhiTxZ4uj8DCve5xfy7F+OPoT3uTyyXTBkNOX23kv7YjqVSPAF9WpqWrWcmjetc1SlHabwftU+MACCDmFJ+PE+7M+zj1WWjeXmpa9xdNvYlmaqeuwOSlZt0yovyk44m3L7DtRbf3Mjbb/3j/wPtcFGd0BYAp1CYOIjbsDO4NmDuuWlUSsYMZaKDjrSxVqlyRdN3aIXqOmjFU4+Rr6lJnAjtNalan0NgcmueJu8zbNRuuXlZrT4sOMop7jUxVqlNaxcQg3L51vHlQNH8XZ8za06tYXAxHsIS8zD+/xEnj2l/QG8vwuGHkSFow53vW2Sd93rl82j5k8+dPIxH/D0iEtVAggivSfDEJYEBrfD3+LZQyrL5vbuR2Unna+9rvplr1HDW84epCwYeiAVH36CdvmqWbdSonKr6uIIS6BLCEx8smN4r1U89dQpLx0kFY/jm9uSMncr1ob0aF03/2nrwlLTs9wQ6bd6HUBgkom3h9zB/16nrHTuVTL+BNd6Q++I9CVQt/QlalqtHcLJt58EcKtcrNbXEJh4C2GJeXifF1D6e26gTnlpk+Si2XrlxkMtn62n2gXPUrLqK0/XA2AMhCWBwm2xPIr+G5Vl5Sm+4vEnaq0nlWihygf+4vTHMcev5dS8NIuaP/5AdXG8WgldQmDiE268/sSz/7BbTp4qKT78eMrfd6QHtepAMkn1y16lhncW6n7COdwY3e9mlRCYfMPJ47IFQw6korFTrOMqW+TX3Np5T+n2YP4yb0ulTsvsQmDiHYQlZuL9Lq/R/ZftgjlxKh5zNBUMP4SydZkiF/r1i1+gxlXLs7I+gMhCWBI4dvqQKjr4KCo8YLzWepo3rKGa55UeZOlS2UnnpV+/1FC/5EX+/l6iuvgveJ9fp7UiMAYCEx9ww3Uyz56wWy6ntMLqYyLefTcPatU1SWtrX51jvZ9okzyb931ukN5wqy4ITNJ4Owyi9C+4+bYK8s2n/HJbsN8BXlSrS9JrunTKJZ0xariIt+edLlcJgYlHEJaYiff7RJ7NtVtOflksnXI65e6+p/uVUtC0+h2qXfC09UMBANiEsCSQuD2+hWdKnedb14ZDD9Raj7yKI6/kuKHo0Mnao+XID7z1byh//fyW9/tPtVYExkBgkmXcaBVR+ga3v51y8W69qPT4sz3pX8KOls0brfRY43G7x7hBmu5WPRCYpPF2uINn37ZTRobdLJnMFzT99vGiSspSjQ18LD1ILVs22S0qPxucztv0Ezfrg8DEfQhLzMX7fiXPhtkpIz8KlJ1wDuWUdfOoVmqaN66j2pce0flxAMBcCEsCi9tjubg4T2XZkiOnaj/FXvf6M649pVcw/FAqHjtFq2zjyqVUt/gF1cVv5H1v+4l/MAsCkyzTGVoxp6IHlZ14njWUYhBIvyY1z9ynMzTj8dwoPedGHRCYWNvgMJ69bqtQDl/QHHO6J9tDh/RmXv3M/ToXOa4PNYzAxF0IS8xl5335nXJKyq1HsCU0CQLp16RaHi1PJPyuCkDwISwJNG6T7+KZUk+uzgKTZ6lx1TKtsm0VDB9DxWOP0SqLwATchsAki7jBko4iPudJuQc7eTy5fOqFvv/i1lbzhrVU88JDdoftmseNkitD+iAwsbbBkzw7yU4ZJ1+EXknW11L1E3dSsqbSbtF+vF03ulUPBCbuQVhiNt7/Mnyl8lOUsbwCKjv5fN9eN+1I07r3qXbubL+rARBsCEsCj9vkm3l2mcqy0k+ijEymo+HtBVT/5qtaZdsqGnM0FY4cp1cPvJIDLkNgkkXcYP03z/6fcoFYjMqOP0t7LHKv2WyQdjqUG6alTtdtemDCf78MabPeThknjzd6LbH1c6p68i67v+bezNv1CrfqgMDEHQhLzKYzYlfplNMor/9+HtXIGfmOc9DhOUC0ISwJBTsdcBcddCQVjta7vJDXGWuec2fAmbITz6XcPrZ6L/gaOn0FtyEwySJusGRs3t1Vly8cdRgVHTLJwxo5laLqZx6wHl224XFumE51umYEJuffxrNLVZeP99idyqddZL2SE1QNK5dQ/eIXbZVxc7siMHEOYQnwMbCGZ8oNrvySKb9oBlYySdVP3mW9igoArSAsCQ1ul3/Es9+pLCuDARRPsPXw8je4vdz+4F8o1VCnV34H6a+x4oyrtIcVrn35UWpav0p1cQwrDF1CYJIl3FjJFeEzqsvnlPeg8umXUiwe3BtcIaOdVD16mzUkoyo3bnJNDkz4b+/Fsy3KBeRJpakXUm6vvm5VwRupVPrGxF4nsK4NWY3AxBmEJcDHgByTyttC+i0pn/Ed65wKssS2LVT1+D8wcg7ATghLQoXb5tN49rDKsjJCWdnJF2ivq+Ht16n+zVe0ywsnI+QIuS+xMQrj3nw8rNNeGRgBgUmWcGN1E8+UXx+QYRXz+g/2sEbukfcV5b1FGy7gxkn5zrA9hgcmF/PsH6rLO/q1IMtkFCYJTWyYz9v2CDfWjcBEH8ISEHwcyKs4yidHycRTKH/v4R7WyD11i56nxvfe8LsaAP5DWBI63Db349mnSgvHc6m7XONofienEgmqnvNPK2jWEe/Zm8qnXqS//uYm2n7vDap9LLrWtyJEGwKTLOCGSrr930aK29tputsR6SdCOpGVX/XclGpqpMp//82aK1rEDdRhTtZpeGByPc9+qLQwf+FUnH6F+/u8oY4SVdusY9VtNS8+TM2frLZTZB/evmudrheBiR6EJSB2dGou33NKw7lZrwmeKiOih+MyRNq8xg/cGS4TIMxyd+9HuX0HZH29CEuc4TZavvCOVllWRizL7b2X9rqS1duo+sm7rU797cgpLrM6AHcyWlrzpx9RzQv/Vl38KT4mTtZeGRgjHFcqIceNlIx9rnwnVDp5pnUj4RZ597ph+TyrEZE+LOSJg8JRh3OD5N5NtEbHeEO4kfpQd32mBib8d+dS+qakVGV5GRFHRsZxi3z5Na5YZA0bl2ppti6aikZPcPXiyWZwIFx5LQeBiX0IS2AnPhZm8uwR1eXdH7ErxRfplekL9FjMConlPXgACD+EJc5xG/00z05QWVZGp5FRapyQ0KTmxUeUnzSRJ0tKJ5/meGh5m0MbP8THxZmOVghGQGCSBXZex5F0teKM72l3dNSa9AVhBSUb1rSzojgVDB5FhQcc7rhxEtKXSeXDf7dTxNFrOQYHJjN4Nkt1eavvkt32cLzedFCykBrfX9ZufzXSk3nRgUe4FpxUzb7dzuOc/8Xb93+drhOBiT2hDUs0OhduBWFJB+y8jiNPOkqHfm700ZX4ajM1vreUmj7+kFKN9Rn/n4Qm+XsPs0YIQ3gCEE4IS9zBbfTfeHalyrLSdlacIYs6u3SV13Ma+TtXfqToqCNYaZsLRoylwmFjnF8T2O909jd8bPzM2UrBBAhMsoAbKensVWkYgMKRY6lozGRH65Nf/uvlfesP3+56Yb5gtYYQs8Y6d3Y4VD91D9/0qb0iyX7FjdR/667L4MBE+XWcnPLuVHHa5Y7XKY+hy6/x8l5oV/IHDqXi8SdSrKDQ0TptDln9Mm9fZycNITCxA2EJtMXHhAS5M1SWLdj/YCo+TKn57pBciEu71LjqzS7fVY/l5lkjzhUMO8TROgEguxCWuIfb6HN5do/q8qXH8rVzP5eunZNJvsb5hFq2fJa+bo6lfyCW17qtV39c+JFYyMg4MkKODafw8THHlZVDpCEwyQJupGQw8DEqyzp9b1D3y8V6deOIkx01WjYfc7+BGyntu06DAxN55H2myrLSw7j0NO6EzbHsLfGKnlR6wjmOftFNVG6lqlm32imyF2/jDdorJAQmqhCWQHv4uJBto3RMOm2TJbytef4hOwG9JfBDGAPA1xCWuIvbaHkPX17pVvoCzttjEJUef5a3lXKZNdLi5o2qi2/n46O7l/WB6EBg4jFuoPbn2Xsqy1o3Yudcq38zIcOy8pdLy2frtYoXjjrM+hVOV+KrL6jqMeXBW97ihupA3XUZHJhk7e92coMp76KWnXyho0fuKx/k7Vuntn3Z6byNlftPaA8Ck64hLIH28HEhDU077362IyfO588PuG3I1VxbimpeeDjdJ5eGooOOosLR4zXXDQDZgLDEG3ZeyxFlJ51Pub37eVgj9zRvXEs1zz1op8gv+Rj5tVf1gWhBYOIxbpykwf6nyrLS/0PZCedor0uGPJShD51w1OdFKkXb7/mD9UqQgiQ3VNp30wYHJvLrQDeVZbudey3F8vVejUlWbaPK2bcRJRJa5UXh6AnW61665LFKebxS0Y95G1+vvTJCYNIVhCXQET42zubZfSrLyveLfM/okldN6+Y/pV1enqIsP+Xb1ig9ABA8CEu8w201fxGT8jsr6fZaRu0M+O1iMklVj//D7lDGx/Jx8oJXVYJoCfgZEH7cOEl6+QuVZQv2P4SKDztWb0XJBG1/6G+UsjmEV1vyvqK8t6ir+ok7rc5mFbzEDdUU3fUYHJgo3dTnlJRZnSrqqp33JDWtfke7vJBgQTow1g1tGt6aT/XLXlNd/Ne8jX+ptaIdEJh0DGEJdIaPD/mOU/qlrmDIaKufIy2pFFX++yZud6v0yu+Q138wlU7ROpwBwEMIS7zFbbX8UCk/vJWplpH+pqTfqSBrWLGI6pe+bKfIZ3ycOB8RAYyBwMRj3Dj9iWf/obJs8dgpVm/+OmyOO96xWIwqzryacopKtIrXvvIYNa1VegNJ9OMGS/llw9YQmHRORq0pO/FcrXXIKDiV9/1J9UmhThVPOMkaxlpH05p3qfZV5b647uNtrPcH74DApH12H+FtDWGJGfgY+S3PfqyyrLz2Ka9/6mjeuI5qnntAq2xb5adcTPGefVz5LABwDmFJdnB7/Tue/Uh1eek0u0zay4qeHtZKn9UdwBN32n0iGq/jgC0ITDzGDZNc3Sk9slEy8VRrCEQd9UtfooYVi7XK7lIPvsHJH7S/Vtk6vkGRIcQUncYNlvIQuRkFEZh0Kn/QMN6Pp2qtQzpSlBGP3GB1JnzkVK2yzZvWU82z96su7uiJJYHAZFd2H99tLcRhyVaepiMsUcfHyZ08u0Bl2ZIjplL+4JFa66l/8xVqePt1rbJtWcfnZKX+swHAYwhLsmdH56+VdsrEu/WyXs2J5RV4VCs9MpR81Zw7KVm9zU4xeRS/nI+XpEfVgghCYOIxbpie5NlJKsuWHvMtyttrX6311Lw0i5o//kCrbFtFB0+kwgMO1yorr1DIqxSKfsQN1u911oPApHMF+42m4gl6j703rV5BtfOe0CrbVu7u/ajs5PO1yrbwhVP1nH+pLr6Ut7He41k7IDDZFW+TN3hm+1nckIcl8mSJ8rtgYB0nEqpNV1lWQgo5PnTUzp1NTeve1yrbnvJTL0FfJgA+Q1iSfdxm/51nl9spY42ac+y3rI67g0Cehq6RgS5sjpbG/sDHyw+9qBNEFwITj3Gj9DTPTlBZtvTYMyiv3z5a65EhFps3qA1S0BUnnXXa7Hfif7jR+n8660Fg0rmCIQdS8Xilw24XjR8sp7oFz2iVbUseeZdH33Uktn5OVY8r9ZcslvE2dvSSLQKTTLw9pEOl5+yWQ1hiHj5W5N05pUfJpO8Q6UNER82LD1PzJ6u1yrbHyY8DAOAcwhJ/cJu9J8/kB93RdsrlDdiPv99n+PL93pqEJbXyQ7H9+x55RPEkPma2e1AtiDAEJh7jRmk2z5TejSidfJrVGOmQvh6kzwc3FI87lgqGHaJV1uYj03jCxCblV3IGj7QefdchI9PICDVuyNtzEG//s7TKtmzeSNVP3qW6+ELexo7ufBCYZNLpuwRhiZn4WJEhvZXebyk5egblDxyqtZ7a1/h77iN3vudkWOPyb12p3V8XADiDsMRf3G5/h2e32i0n13XSjvv1eo68hiNP1bd8/olO8fP4mLnX7TpB9CEw8Rg3SPITuVKDXnLEyXyjO0prPQ3vLKT6N+ZqlW1LhjaWIY511L3+LDWuWqa6OPowsUn1pt7JKBCJyq1UNcv2d2i7CkeMpaJDJ2uVtdmR8VO8jU/WWtEOCEwy2X0dB2GJufhYuZ1nl6gsK68KyiuDOhpW8PfcUne+5wqHH0pFYx11ewQAmhCWBAO33dJXl+1rCenTREITmWeTdPBa89Kjdvss2el5PmaU7hsA2kJg4jE7wwoXHXQUFY4er7UeGXu8avbtWmVbkyFgu519jfY7inKDKze6ijBKjk2qN/XxXn2ofJreqzCi8uGbdb+QMjgJ3yR4kwBO0S28jW29j9sWApNMvD2+4ll3lWURlpiNj5Vf8UxpWG953VNe+9SR2LaZv+fu0CqbIZ5LFXi6BMAXCEuCg9tu+ZVWOh5UHmZ4J3lKr2jMJCrY/xBrhE1PJZP8Xb84/cq/vdFwdvqCpwl83CjfoAC0hsDEY9wYyVCLv1VZNn+fEVRy1DTtdVU/fa/uI2pfKxw5jhvAo7XLVz5yCyWrvlJZ1NGoJgYHJtKrd5eflb6p/4HKou1yeBNqkV8eymdcql0HWX+D+ohLjjvxQmCSibdHE8/yulou3rM3lU+9CGGJwfhYkXPvepVlHX/PPXWPTid/GQqGj6Hiscc4+gwAsA9hSfBw+y3X4vIetu3QRMgPdMWHTqHcPv3drdgOzRvXUv2Sl6wfhh0Yz8eNO0OsgZEQmHiMGyJ5L0LpvYJ4992ofPql2uuyRhWRschTSvd9u4gVlVDFjO9SrKBQq3yquZG23/tH1fVXceNVobUiMjowkR4PlYZSqjjtcsopV3pAYBepRIKqHrudkpVK4Ve7nG736mfuo5bPPlZd/Arexjdrr4wQmLSl/PrXXvtaI3xlG8KS4OBjRfoveURlWcffc9K3kZwnut9zhcX8Pfcdaw4A2YOwJLi4Df8Nz37i5DMkMJHXsK3RPp0+cZJMUtMnH1Lju4utNt+hX/Fx899OPwTMhsDEY9wI7cUz5cc+up3zfYoVFGmvr4EbF0libcvJobLjztJ+fUI0b1hLNc8/qLr4s9yA6Q3jQkYHJlnpE0fIu6Lya26qucl2WadPKlEyYYVvqZZm1RIH8TZerr9CBCZtBTkwQVgSLDtGXNiguny3c67VDuZFw9sLqP7NV+0X5O85OVa9+D4AgI4hLAk+bsell/3znX5OTnEp5Q0YSnn996Xc3ntRLLfLB1Utcq3Z8vmn1PzpamvwgVRDndOqiH/ycfNtNz4IzIbAJAu4EXqZZ5NUli2ZeArl7z3c0fpklBoZrUaV3ACWHHWK9lCPO9UteoEa31uquvgj3Ijp9UpKRgcmf+HZVSrL5g/an0qkXwkH5CZehvKUXslVFY44dEdHr/p/cvPGdVTz3AOqi6/g7aufDO2AwCRTUAMThCXBxMeL7BSlHp5LJp3K7dMwR+urX/YqNby1QL1APNd6FUh3hB4A0IOwJDy4HX+IZ+59ocdi1uvZMuWUVlhP9u0MUFItTVYokqyutAYbSGz/UvvJwQ48yMeN3jCNAG0gMMkCboBu45nSM8hW54mTlUZn7FTLZ+upbuHz6Qaos/XtMYiKDjuO4hU9HK4xRZUP/U05QGDXc0P2Y921GRyY/AfP/qSyrNzYV5x1jXK63xH5G+sWPU/NH3/Q6XLyZSj9AugOjd1a3YJnqPED5QdGZvP2neF0nQhMMgUxMEFYElx8vEhvrEq/5LkR5grpYLxu4XOUrKnsdLnc3fag4vEnUrzH7o7XCQDqEJaED7fl0o2A9g+aAYGwBFyFwCQLuPGR9wJ/o7RwTpy6nXmVO+9Xp1LUvGGNdaPb8uXnlKqv4T2ewze25ZS7ez/K23sY5fbq63w9ZPuJACE3LrN112dwYDKOZwtVly85YirlDx7pxqqtDrea1qy0OlyUG5RUMkE5fJzGe/axnk7K77+fKx1/phItVPnAjXyh1aha5Abevo4TDAQmmYIWmCAsCTY+Xn7Gs+uUFo7npr/nHLx++jV5152/4zK+5/jSZuf3XL58zzl41RQA9CAsCS+3Xs/xCV7DAdchMMkCbngm8myu6vJOhhf2i83hhCVl6M4NmtbYYMLUwETw3y6Peig9xuF0eGE/NK5aTnWvP2OnyOm8fZU6nOwMApNMQQpMEJYEHx8v0mmRcgdaMhxl4cjDPKwRAPgFYUn4cZsuAfjP/K6HDZ/zdAsfN7/yuyIQPQhMsoQbHhnuQ2nMLasX/9OvsG7MwiCx9XOqevyfdoo4fiLA8MBE+bUc4dXf74lkkipn3ULJ6u2qJaRXMAnf7PdM2wYCk0xBCUwQloQHHzMy3m8/lWVzikqo/FtXUiye63Gt3CGvt9YvfdnvagCEQqLyK0pWaY+yh7AkILhNl/4XZcjhbn7XpQsSlsh3vfIT2AB2IDDJEluv5bDC0ROo6KAjPayRe2qefYCaN62zU8TxEwGGByaH80y5t8N4j95UfsrFzod5ywLpNFg6D7bhSt62f3dj3QhMMgUhMEFYEi62XsthRQdPpMIDDvewRu6x+RQlAOhBWBIw3K7LSBQ38XSU33XpwHOUvhZc43dFILqCfwcVEXaHF5Z3vMtPvcSFzli91bTufaqda6srEleeCDA5MBH896/m2b6qyxePO5YKhh3iZhVcl6yvpapZt1qP8tpwMG/bZW6sH4FJJr8DE422pTWEJT7gY2YfnimnCtIhdfmM71gdRgeZBCUSmACApxCWBBi379IvyOU8Hex3XXaQHw5v5mPmPr8rAtGHwCSL7AwvLHJ335PKTjo/sE8GWDe4s2+3O1a6Wx10hikwcf3mjf/+a3l2g+rycmNSduq3KV4e3ABO4xfcd3mbutOjLSEwacvvwKTh7QVU/+arOkURlviIj5v5PFPuhCu370AqO0EGMwjm95wMqV41+w5K1imPAAcA9iEsCQFu33vz7OeUDk78ep9Seva+mafr+JjpfIg0AJcE8wolorihkWG6bP1MVThyHBWNOdqjGjmQSlH1cw9Qy6b1dkv24AZum9PVhywwEV6EJrLyUtXl5dWcsqkXBLLPgIZ3F1P9EuX+Indy7XUcgcAkU0gDE4QlPuPj5hye3WunTHA7Ok9RzQsP41UcAG8hLAkZbucL6ZvgpGeWViv9lOwMSrQHjQDQgcAky7iRmcOzqXbKlBw5lfL3de2HdFfULXyOGt9/026xu7iRu9CN9YcwMBGu3szxNrieZz+0UyZ/4FAqOXo6BenUtx53f/FhK4Sz4U3ejq6+Y4TAJFMIAxOEJQHBx84rZOd991iMSo+eQXkDhnhWJx31b8ylhnfQhyCAhxCWhBy39yfxbBxPMiCB8o94iuQJEglJ5vJx8rzLnw2gLDh3TYbY0ZeJPLKsNGKOJScnfTHZX2kkWc/VL59HDTzZtImnidzgrXajDiENTIRrN3W8DeTFf3nN6yA75QqGHEjF44+nIJz+LV98SjXPPUiplma7RS/hbfgPN+uCwCRTyAIThCUBwsfOGTx70FaheC6VHfst6xWdINB86g0A1CEsiRBu9+Xx5WmUDk/kolvCkzKeVHv2lj5JJCCRV27W8rSIpzl8jNj6NQ3AC/7fMRmIG5WHZWarUE5O+kmTvYd7UyklKapfOpcaVizSKfxf3Oj9r1s1CXFgItwMTS7h2e12y+UPHkUl40+0jiu/NG9YS7Uvz9IJS17lbTfR7fogMMkUssBEHtH9heuVAG18/DzJs5PslJHXBUuOnsnH1D4e1UqNg/5zAEANwhJD8HeBDFDQOkQpIbmhIKqlVuEIRrmBIENg4gNuPEbzbLlO2aIDj6DCA+U+Kbu7LtXcRHXznqSm9at0in/I01A3U+IgBCaNK5dQXQCGPOVtIVf2tsegzttjEJVMOpViBUVOq2CbNXyw/HqbTNotup2nCbzdVrpdJwQmmRCYgBN8/Ayg9NOU/WwVjMWoeOwxvozqlUokqH7hs9T44dtZXzeAQa7n9vrHflcCAEAVAhOf8MXkD3j2B52ycqNbfOTJlFNc5nKt2tfy5WdU++rjlKz8SvcjjuEvR+1koT1BCExEw8olVO9zaMLbYgSlb0xsj82ZU1JmPbmUrcfgZcSJugXP6AZv4gLeXsqpgh0ITDIhMAGndDo63yl/0P5UfPjxWQt0E5VbqfaVxymx9fOsrA/AQHKtcx36ogCAsEFg4iMnoUksr4CKDjqSCvY/2LPXKlJNDVZ/JY3vvWG3Q87WzuEvx/vdrJcISmAiAhKayFBKj5JGaCLkFZ2iQyZRTlGJk2p0jI+fxtXvWJ0o2hyGurUXeTsd42a1WkNgkgmBCbhBp6PznWLcHhUfOpny95FXUb25XEklWqhxxSKqf/t1Iv43ALhCngZt2xfFAn+rBACgB4GJz/hi8i2eHaBbPqesOxUecDhfUI6gWDzuSp3kKQAZAafh3SVWaOLArfwFeZkrlWojSIGJCEhoYnvUnNZiuXnWY/AFw8ZQTrFLHZ2nUtS07n3r5jexbYuTT5LC8irOh+5UbFcITDIhMAE3aHV03ka8Zx8qGj2B8voPtl7ZcYMEJU2r37GOM82+qHby7Kk3AAAA8B8CE5/xxeR4Sl9MOhIrLLZCE3mMOXe3PWxfVMq72y2b1lPT2pXUvH6VdTHp0Cy+iLTXsa0NQQtMREBCE3ma5ywnnyFPLOX338/qYDi3395WkGKXPNYuQUnTRysoWVfjqDo7HMHbxvF50hkEJpkQmIBb+Fg6mNJPwGmHJiKnrBsVDD6A8vben+LlPbQ+o2XLJut7rumjd60fBxzy9Kk3AAAA8B8CkwDgi8nplL6YdIWEJ7m996LcXn0oXtGLYqXllMP/mwzbaGluomRDLSWrKymxfYt1AZnYvFFntJKOPMYXkdPd+rD2BDEwEQEJTeRYcmf7x+OUu9ueVggX776bdcMij8nHcvPToVyixbrpSNZW8bG01QpKWj7/hJL1ta6sfodLeZvc4eYHtgeBSSYEJuAmPp7O59ldbn1eTnkPyuvTn+K9+lK8W0/KKa2w+jvZGfBKR+XSDiVrtnPb9CUl+Huu5bOP3WybPH/qDQAAAPyHwCQg+GLyQp79y+96uMDzsEQENTARkQtN/PUD3hZ/zMaKEJhkQmACbuNj6iqe/cXverjgU57O9vqpNwAAAPAfApMA4YtJuet4yO96ODCbLyBnZGNFQQ5MREBCk4dl5uQzfCQdxv2Et8Gt2VohApNMCEzAC3xcXcqz2/yuhwMSlkj7/IbfFQEAAADvITAJGL6YnMizm3ga5nNV7LqXLyDPy9bKgh6YiICEJvIqy7edfIYPJCyRv31uNleKwCQTAhPwitNRvXz0JE9X8rH2id8VAQAAgOxAYBJQfEH5E579xu96KPoFX0Bel80V8vZ5hGczVZbNG7AflU6a4dnwy50JSGgSpsfg5Q5ZbkhWZnvFCEwyITABL/HxNYLSPw4c6XddFHzM04/4GPu33xUBAACA7EJgEmA7njaRX+G6+1yVjkgvsXJze3u2V2x3CN28AUOodNJ0k0OTMyh9c9LTyed4SIZluoz/zn/4VQEEJpkQmEA28HF2Cc+y/h1ig4Ql0gYv87siAAAAkH0ITAKOLybl1Ry50Z3oc1VakwvIlyh9k7LWjwrwdpG+UmbZKYPQ5PxePPs5T5fzVODks1z2JqWDt8V+VgKBSSYEJpAtfKwdQenvuZF+16WNOZRumzb4XREAAADwBwKTkOALyospfaN7iM9VCcQFJG8PGSN5G0+ldsqFPDSZztt9ntN68LY7itLByTFOP8uhD3i6mf+mG32uhwWBSSYEJpBtfMzJU4PyPTfI56q8TOm26RGf6wEAAAA+Q2ASMnxBeTWlLyiHZnnVgbuAtPtazk4hDk2+pPSTJo5DE7HjV10JTpQ6z3WRjDIhx1Kg+uhBYJIJgQn4gY+7fPrmSbjdsrz6dyjdNt2S5fUCAABAQCEwCSm+qDyUZ+N48vLX+UqebubpJr+fKGkPbwMZYWEVT33slkVo8o0dT+vsvEHp7dbntuMumbI9+o0qBCaZEJiA3/gYPJ3S7dIkj1clo4nJ99xbHq8HAAAAQgaBScjxBaV04jmN0uHJfuSsrxPpm0T6kZB+SRbxNIcvIJVumvyi05fJTghNdsXbU542kWNJxmEez9M+Dj5uPqUDt3JKH0ubnNfQOwhMMiEwgaDgY3Ev+qZdOpenEQ4/cgml26Y4pdumLQ4/DwAAACIKgUnE8IVlf/rmwlL699ifJ/nfpMPPIp7kJqiGp808rd/xbysg4YtG5buTIOG/+TJKX/zahtCkc7xtJTRpfTzJvPeOf8vNRj2l+1eR12zkaZ/Wx5MvHQLrQmCSCYEJBBUfmwdRZrskr6gOoG++54S0RV9Q+ntuJWW2TauyXGUAAAAIKQQmEAl8Af1vnp2uUxahCQgEJpkQmAAAAACA6RCYQGQgNAEnEJhkQmACAAAAAKZDYAKRgtAEdCEwyYTABAAAAABMh8AEIie0ocm7i6l+yUu6xRGaOITAJBMCEwAAAAAwHQITiCSEJmAXApNMCEwAAAAAwHQITCCyEJqAHQhMMiEwAQAAAADTITCBSENoAqoQmGRCYAIAAAAApkNgApGH0ARUIDDJhMAEAAAAAEyHwASMgNAEuoLAJBMCEwAAAAAwHQITMAZCE+gMApNMCEwAAAAAwHQITMAoCE2gIwhMMiEwAQAAAADTITAB4yA0gfYgMMmEwAQAAAAATIfABIyE0ATaQmCSCYEJAAAAAJgOgQkYC6EJtIbAJBMCEwAAAAAwHQITMBpCE9gJgUkmBCYAAAAAYDoEJmA8g0OT6XyTOd/FKoUaApNMCEwAAAAAwHQITADI2NBkC6WfNEFoQghM2kJgAgAAAACmQ2ACsANCE7MhMMmEwAQAAAAATIfABKAVhCbmQmCSCYEJAAAAAJgOgQlAGwhNzITAJBMCEwAAAAAwHQITgHYgNDEPApNMCEwAAAAAwHQITAA6gNDELAhMMiEwAQAAAADTITAB6ARCE3MgMMmEwAQAAAAATIfABKALCE3MgMAkEwITAAAAADAdAhMABQhNog+BSSYEJgAAAABgOgQmAIoQmkQbApNMCEwAAAAAwHQITABsQGgSXQhMMiEwAQAAAADTITABsAmhSTQhMMmEwAQAAAAATIfABEADQpPoQWCSCYEJAAAAAJgOgQmAJoQm0YLAJBMCEwAAAAAwHQITAAcQmkQHApNMCEwAAAAAwHQITAAcQmgSDQhMMiEwAQAAAADTITABcAFCk/BDYJIJgQkAAAAAmA6BCYBLEJqEGwKTTAhMAAAAAMB0CEwAXITQJLwQmGRCYAIAAAAApkNgAuAyg0OT6XzTusDFKmUVApNMCEwAAAAAwHQITAA8YGhospnST5qEMjRBYJIJgQkAAAAAmA6BCYBHEJqECwKTTAhMAAAAAMB0CEwAPITQJDwQmGRCYAIAAAAApkNgAuAxhCbhgMAkEwITAAAAADAdAhOALEBoEnwITDIhMAEAAAAA0yEwAcgShCbBhsAkEwITAAAAADAdAhOALEJoElwITDIhMAEAAAAA0yEwAciy0IYmKxZR/dKXdYsHPjRBYJIJgQkAAAAAmA6BCYAPEJoEDwKTTAhMAAAAAMB0CEwAfILQJFgQmGRCYAIAAAAApkNgAuAjhCbBgcAkEwITAAAAADAdAhMAnyE0CQYEJpkQmAAAAACA6RCYAAQAQhP/ITDJhMAEAAAAAEyHwAQgIBCa+AuBSSYEJgAAAABgOgQmAAGC0MQ/CEwyITABAAAAANMhMAEIGIQm/kBgkgmBCQAAAPz/9u4DTLKqTvj/6TSxewZGBAkSJYgSjICAiCIYAFkZFUYdA+u6pnXVd/evf//7bvi77rO7rusa1rCYRh1FhmBOBFeQ6CsoSlAkiUSBST09Hes91eMit6eAW7eqp6fr9/k8z33OqvfUPV1dT++c71N1C6ITTGArJJpseYJJkWACAEB0gglspUSTLUswKRJMAACITjCBrVjgaHJE3gD/uo1LelSCSZFgAgBAdIIJbOWCRpMf5A3wse1cz6MRTIoEEwAAohNMYBYIGk2W503wF9q5nkcimBQJJgAARCeYwCwRMJpcmjfBz2r3eh6OYFIkmAAAEJ1gArNIwGiyz5a6l4lgUiSYAAAQnWACs0ywaLLFPpYjmBQJJgAARCeYwCwUKJr8Xd4I//10reehBJMiwQQAgOgEE5ilgkSTD+SN8F9N53r+h2BSJJgAABCdYAKz2GyNJmu//tk0/vs7S52bN8Jb5O+UYFIkmAAAEJ1gArPcbIwm6775+TR2z+9KnSuYNCSYFAkmAAC0nWACHWC2RRPBZHOCSZFgAgDATBNMoEPMpmgimGxOMCkSTAAAmGmCCXSQ2RJNBJPNCSZFggkAADNNMIEOMxuiiWCyOcGkSDABAGCmCSbQgbb2aCKYbE4wKRJMAACYaYIJdKitOZoIJpsTTIoEEwAAZppgAh1sa40mgsnmBJMiwQQAgJkmmECHayWaLDjixWnuPge1eUWCSSOCSZFgAgDATBNMIICq0WTBs16Y5u73lLavRzDZnGBSJJgAADDTBBMIoko0EUw2J5gUCSYAAHQqwQQCaTaaCCabE0yKBBMAADqVYALB5I3wJ/LwxjLnCiabE0yKBBMAADqVYALBCCaNCSZFggkAANEJJhCMYNKYYFIkmAAAEJ1gAsEIJo0JJkWCCQAA0QkmEIxg0phgUiSYAAAQnWACwQgmjQkmRYIJAADRCSYQjGDSmGBSJJgAABCdYALBCCaNCSZFggkAANEJJhCMYNKYYFIkmAAAEJ1gAsEIJo0JJkWCCQAA0QkmEIxg0phgUiSYAAAQnWACwQgmjQkmRYIJAADRCSYQjGDSmGBSJJgAABCdYALBCCaNCSZFggkAANEJJhCMYNKYYFIkmAAAEJ1gAsEIJo0JJkWCCQAA0QkmEIxg0phgUiSYAAAQnWACwQgmjQkmRYIJAADRCSYQjGDSmGBSJJgAABCdYALBCCaNCSZFggkAANEJJhCMYNKYYFIkmAAAEJ1gAsEIJo0JJkWCCQAA0QkmEIxg0phgUiSYAAAQnWACwQgmjQkmRYIJAADRCSYQjGDSmGBSJJgAABCdYALBCCaNCSZFggkAANEJJhCMYNKYYFIkmAAAEJ1gAsEIJo0JJkWCCQAA0QkmEIxg0phgUiSYAAAQnWACwQgmjQkmRYIJAADRCSYQjGDSmGBSJJgAABCdYALBCCaNCSZFggkAANEJJhCMYNKYYFIkmAAAEJ1gAsEIJo0JJkWCCQAA0QkmEIxg0phgUiSYAAAQnWACwQgmjQkmRYIJAADRCSYQjGDSmGBSJJgAABCdYALBCCaNCSZFggkAANEJJhCMYNKYYFIkmAAAEJ1gAsEIJo0JJkWCCQAA0QkmEIxg0phgUiSYAAAQnWACwQgmjQkmRYIJAADRCSYQjGDSmGBSJJgAABCdYALBCCaNCSZFggkAANEJJhCMYNKYYFIkmAAAEJ1gAsEIJo0JJkWCCQAA0QkmEIxg0phgUiSYAAAQnWACwQgmjQkmRYIJAADRCSYQjGDSmGBSJJgAABCdYALBCCaNCSZFggkAANEJJhCMYNKYYFIkmAAAEJ1gAsEIJo0JJkWCCQAA0QkmEIxg0phgUiSYAAAQnWACwQgmjQkmRYIJAADRCSYQjGDSmGBSJJgAABCdYALBCCaNCSZFggkAANEJJhCMYNKYYFIkmAAAEJ1gAsEIJo0JJkWCCQAA0QkmEIxg0phgUiSYAAAQnWACwQgmjQkmRYIJAADRCSYQjGDSmGBSJJgAABCdYALBCCaNCSZFggkAANEJJhCMYNKYYFIkmAAAEJ1gAsEIJo0JJkWCCQAA0QkmEIxg0phgUiSYAAAQnWACwQgmjQkmRYIJAADRCSYQjGDSmGBSJJgAABCdYALBCCaNCSZFggkAANEJJhCMYNKYYFIkmAAAEJ1gAsEIJo0JJkWCCQAA0QkmEIxg0phgUiSYAAAQnWACwQgmjQkmRYIJAADRCSYQjGDSmGBSJJgAABCdYALBCCaNCSZFggkAANEJJhCMYNKYYFIkmAAAEJ1gAsEIJo0JJkWCCQAA0QkmEIxg0phgUiSYAAAQnWACwQgmjQkmRYIJAADRCSYQjGDSmGBSJJgAABCdYALBCCaNCSZFggkAANEJJhCMYNKYYFIkmAAAEJ1gAsEIJo0JJkWCCQAA0QkmEIxg0phgUiSYAAAQnWACwQgmjQkmRYIJAADRCSYQjGDSmGBSJJgAABCdYALBCCaNCSZFggkAANEJJhCMYNKYYFIkmAAAEJ1gAsEIJo0JJkWCCQAA0QkmEIxg0phgUiSYAAAQnWACwQgmjQkmRYIJAADRCSYQjGDSmGBSJJgAABCdYALBCCaNCSZFggkAANEJJhCMYNKYYFIkmAAAEJ1gAsEIJo0JJkWCCQAA0QkmEIxg0phgUiSYAAAQnWACwQgmjQkmRYIJAADRCSYQjGDSmGBSJJgAABCdYALBCCaNCSZFggkAANEJJhCMYNKYYFIkmAAAEJ1gAsEIJo0JJkWCCQAA0QkmEIxg0phgUiSYAAAQnWACwQgmjQkmRYIJAADRCSYQjGDSmGBSJJgAABCdYALBCCaNCSZFggkAANEJJhCMYNKYYFIkmAAAEJ1gAsEIJo0JJkWCCQAA0QkmEIxg0phgUiSYAAAQnWACwQgmjQkmRYIJAADRCSYQjGDSmGBSJJgAABCdYALBCCaNCSZFggkAANEJJhCMYNKYYFIkmAAAEJ1gAsEIJo0JJkWCCQAA0QkmEIxg0phgUiSYAAAQnWACwQgmjQkmRYIJAADRCSYQjGDSmGBSJJgAABCdYALBCCaNCSZFggkAANEJJhCMYNKYYFIkmAAAEJ1gAsEIJo0JJkWCCQAA0QkmEIxg0phgUiSYAAAQnWACwQgmjQkmRYIJAADRCSYQjGDSmGBSJJgAABCdYALBCCaNCSZFggkAANEJJhCMYNKYYFIkmAAAEJ1gAsEIJo0JJkWCCQAA0QkmEIxg0phgUiSYAAAQnWACwQgmjQkmRYIJAADRCSYQjGDSmGBSJJgAABCdYALBCCaNCSZFggkAANEJJhCMYNKYYFIkmAAAEJ1gAsEIJo0JJkWCCQAA0QkmEIxg0phgUiSYAAAQnWACwQgmjQkmRYIJAADRCSYQjGDSmGBSJJgAABCdYALBCCaNCSZFggkAANEJJhCMYLK5/Jz8fR7+d5lzt5JgUvfS/Nyc0/aF/IFgAgBAdIIJBCOYFOXn43N5eE3Z87eiYFL3t/n5+Ye2LyYJJgAAIJhAMILJH+Xn4ow8NLXb38qCSd2H8nP0jnavRzABACA6wQSCEUw2yc/DV/PwsmbnbYXBpK7t0UQwAQAgOsEEghFMJp+DL+bhlVXmbqXBpO7v8nP19+1aj2ACAEB0ggkEEz2Y5J//g3mo/G6MrTiY1LXtRrCCCQAA0QkmEEzkYJJ/9pPycHaq+LevZ5vt0vynH536dt27XUt6UG18LA1fe2Xa+LNLUm1kuJWHOiI/Zz9udT2CCQAA0QkmEEzUYJJ/7mfl4eJU5e9eT0+a/5Rnp3lPPiSl7u52LOdhTQwNpqHLvp9Gbr6u6kP8LD9nB7e6DsEEAIDoBBMIJnAwuSoPTYeE7sVLUv/RL009S7ZvxzJKG7nxmrThku+m2tholen/Kz9v/9bK9QUTAACiE0wgmIjBJP/M78xD0wGhb6c90sLnvjR1zZnb6hIqGb/vrrT+B19NExvWNzv17rTpozk3Vr22YAIAQHSCCQQTLZjkn/eJefh6Pp7QzLy+3fZN/UeflFJ3TyuXb9nE+jVp3Xe+lCbWrW526vfzc3dc1esKJgAARCeYQDABg0nTXyE8GQGet3Ta71dS1mQ0+eaKNLFhXbNTX52fvy9WuaZgAgBAdIIJBBMpmOSfdc88/KaZOT1LdkgDxy9PXb19VS87Lcbvv3symjR5T5NL8vN3eJXrCSYAAEQnmEAwwYLJp/Pw+rLn1+9Vsuglp6XugW2qXnJa1W8EO/ijbzQ7be8q9zIRTAAAiE4wgWCCBZNSm/7/sfDIE9KcvQ+oerktYvDCc9PIzdc2M6XSx3IEEwAAohNMIJgowST/nMvz8Pmy5/futHsaeMGyKpfaoiaGBtPasz6ZaiMbS8+p8hwKJgAARCeYQDCBgsmleTi01MldXWnRSaelnm23r3KpLW7jNZeloSsvaGbK6/Lz+LlmJggmAABEJ5hAMBGCSf4Z98nDDWXPn7Pn/mnhc05q9jKPbGI8Dd94Teru3yb17bR7Wx+6Nj6W1pzx0VTbuKHslCvy83hIM9cQTAAAiE4wgWCCBJOmPo4zcOLrUu92OzZ7mYZq4+Np5FdXp40/vzRNDK6d/O96d9glzTv4iNS3855tuUbdxqsuSkP5aMIT83N5fdmTBRMAAKITTCCYIMHk7/Lwt2XO7XnM49Kil5T+Ip2HNzGRhq//adr480vSxIb1DU/pfexOad5Tj0p9O+/R+uU2rJt8l0mqlb6vbVMfyxFMAACITjCBYIIEkw/k4V1lzp3/zOeleU9u6tMqmxlfe38avODsNH7/PaXOn/OEJ6cFh78odfX0tnTddd/5Uhq789ayp///+bn832VPFkwAAIhOMIFgggST6/KwX5lzF53856ln8ZJmL/Gg8QfunQwXTdxPZFLvDo9P/S84taVosvGXV6Shy88re/q/5+fynWVPFkwAAIhOMIFgOj2Y5J/vmXm4vMy53QsG0uJT3tbMwxfURofT2nNOTxPr11SaP2evJ6eFR51Y+frj99+d1p776bKnX52fy9K/TMEEAIDoBBMIJkAw+Ys8/EeZc/t22zf1P+/kZh6+YMPlP0jDv7yy8vy6/uNOqX4z2FotrV7xr5PfmlPCeH4uS7+dRTABACA6wQSCCRBMPpSHt5c5d97Bh6f5Tz2qmYd/UP0jOKvrN10tFyseVu/jdk0DL3pV5flrv/bpNH7f3aXObea5FEwAAIhOMIFgAgST0/NwWplzFxzx4jR3n4OaefgHDf/qZ2nDxd+qNHeqxaf8Repe0F9p7vrzz0qjt95Q6lzBBAAAyhNMIJgAweTreTihzLn9x7ws9e26dzMP/6B6LKlHk3bof+7JqW/3faut45LvpOHrryp1rmACAADlCSYQTIBgcn4enlvm3IEXLku9O+7ezMM/aP13v5xG77i50typFhxyTJr7pGdWmjt05flp4zWl7nErmAAAQBMEEwhGMPmjVoLJuu+uTGN33FJp7lTzn/m8NO/Jh1SaK5hMEkwAAGg7wQSCCRBM6jcWeVGZc/uf/4q84d+rmYd/0OAPv5ZGbvplpblT1b9auP4Vw1VsuPR7afi6/1PqXMEEAADKE0wgmADBZEUeXl3m3IXPPiHNecIBzTz8gzb+4vI0dMX5leZOtejkN6aexY+pNHfwwnPTyM3XljpXMAEAgPIEEwgmQDB5Xx7eW+bc+U87Ks076PBmHv5BE+seSGvO/HiluQ9VDyX1YFLVdD2XggkAANEJJhBMgGDy7jz8U5lz6x+DqX8cpqr1561Ko7f9qvL8ugWHvyjN3ffgyvNXf/GDqTaysdS5ggkAAJQnmEAwAYJJffd+RplzW313R/1dJmvPOT3VxkYrze/dbsc0cMJr81/ian+KJ9atTmvO/M+yp9+Un8vSN2wRTAAAiE4wgWACBJNd83Br2fMXn/r21D1/YTOXKBi55fo0eOE5KdVK9YUHdS/oTwPHvyZ19y+ufu1f/zwNXvTNsqd/Nj+Xry97smACAEB0ggkE0+nBpC7/jBfm4Tllzl145PFpzt4HNnuJgtFbbkiDF30j1UZHSp1ff2dLPTJ0L9q2pesOXnD2ZLAp6SP5ufyLsicLJgAARCeYQDBBgslH8vDWMuf27bJX6j/2Fc1eYjP1j8cMXXnBIwaMrr45ae7+T5+80WxXb19L16vHmTUrP5Rq42Nlp7wjP5cfKnuyYAIAQHSCCQQTJJi8Iw8fLHVyV1da/PK3pO6Fi5q9TEMT69dM3gh27L67Um1oMD9+9+THbnq33yX17br3ZDRph+Ebrk4bfvztZqYclp/Ly8qeLJgAABCdYALBBAkmh+XhkrLnzzvg0DT/Gc9t9jIzqJbWnv1faXz178tO+FV+Hvdt5gqCCQAA0QkmEEyEYFKXf8769/3uXebc+rs+Fr/szalr3oIql9riRm6+btONZst7W34eP9rMBMEEAIDoBBMIJlAwKf+xnGzufk/NP+8Lqlxqy5oYT2vO+tTkVxo34Rn5efxJMxMEEwAAohNMIJgowaSu7KZ/UlfX5Nf89j52p6qX2yKGrroobcxHE67Nz+GTmr2OYAIAQHSCCQQTLJh8Mw8vLnt+9+IladFLTmv5G2ymy9jv75x87tLERDPTmv44Tp1gAgBAdIIJBBMsmDR189e6OXs+KS18zkuqXnLa1IaH0tqvfWbyW3iacEd+/naucj3BBACA6AQTCCZSMKnLP+95eXheM3PmPeXIND8fW4va+Fha/90vp7G7f9vs1L/Jz9/7qlxTMAEAIDrBBIIJGEyOzsMFzc6b/8znpXlPPqSVS7dFbXw8DV5wVhr97Y3NTq1/S9B++fkrfx+XhxBMAACITjCBYKIFk7r8M38qD29odt68g49I85/67FYvX1ltZDitP/+sNHbnLVWmPz8/d+dVvbZgAgBAdIIJBBM0mOyWh+vzMa/ZuXP22D8tOPLFW/xGsONr7kuD55+Vxlf/vsr0T+fn7U9bub5gAgBAdIIJBBMxmNTln/v1efh0lbndi5akhc8+IfVuX+n+qU2qpeHrr0pDV5yfamOjVR5gJG36KM7NraxCMAEAIDrBBIKJGkzq8s/+7jz8U6XJXV1p7j4HpXlPPSp1z1/YriUVjN17Rxq6/Lz83NzeysO8IT9np7e6FsEEAIDoBBMIJnIwqcs//2vy8Lmq8+sfzZmz71PSvCc9I3X3L27LmurffrPxmsvS6G2/bvWh3pufr/e3Y02CCQAA0QkmEEz0YFJX5auGN9PVlXp33C3N2eOJqW+XJ6TuhQNNTK6l8fvvmQwkIzddW/U+JVO1fN+ShxJMAACITjCBYASTyedg3zxcnI/t2vWY3QPbpN7tdkzdix8z+c6T7rnzU+rtTalWm7wXSW1oME2sW53GV9+bxu69M9WGh9p16bqv5Ofp1HY+oGACAEB0ggkEI5hskp+HI/NwdmpjNJkhZ+Tn6JR2P6hgAgBAdIIJBCOY/NEf3mnysdTqx3Nmzufz8/Pa6XhgwQQAgOgEEwhGMNlcqzeCnQEb8vHh/Ny8Z7ouIJgAABCdYALBCCaN5eflr/Pwz1viWi2qx5KX5ufle9N5EcEEAIDoBBMIRjB5ePm5eW3a9BGdBVvqmk26NB9vyc/JVdN9IcEEAIDoBBMIRjB5ZPn5eXwe3ptKPkdbyDX5+Hh+Lj6+pS4omAAAEJ1gAsEIJuXk5+motCmcPH8mrv8Qp6dNQeCWLXlRwQQAgOgEEwhGMGlOfr6emTaFkxO34GUn8lF/N0k9BNy5Ba/7IMEEAIDoBBMIRjCpLj93b8nDm/LxpGm6xAVp00dvVk3T45cmmAAAEN1WsxEBtgzBpHX5OXxaHg7Nx5756M/Hs/OxX5MPc3U+vpGP9fm4KR+X5Z/19nausxWCCQAA0W11GxFgegkm0+MPH915aER5TD7mp00frxnMx92pGEd+PkNLLUUwAQAgulmxEQHaRzChDMEEAIDobEQgGMGEMgQTAACisxGBYAQTyhBMAACIzkYEghFMKEMwAQAgOhsRCEYwoQzBBACA6GxEIBjBhDIEEwAAorMRgWAEE8oQTAAAiM5GBIIRTChDMAEAIDobEQhGMKEMwQQAgOhsRCAYwYQyBBMAAKKzEYFgBBPKEEwAAIjORgSCEUwoQzABACA6GxEIRjChDMEEAIDobEQgGMGEMgQTAACisxGBYAQTyhBMAACIzkYEghFMKEMwAQAgOhsRCEYwoQzBBACA6GxEIBjBhDIEEwAAorMRgWAEE8oQTAAAiM5GBIIRTChDMAEAIDobEQhGMKEMwQQAgOhsRCAYwYQyBBMAAKKzEYFgBBPKEEwAAIjORgSCEUwoQzABACA6GxEIRjChDMEEAIDobEQgGMGEMgQTAACisxGBYAQTyhBMAACIzkYEghFMKEMwAQAgOhsRCEYwoQzBBACA6GxEIBjBhDIEEwAAorMRgWAEE8oQTAAAiM5GBIIRTChDMAEAIDobEQhGMKEMwQQAgOhsRCAYwYQyBBMAAKKzEYFgBBPKEEwAAIjORgSCEUwoQzABACA6GxEIRjChDMEEAIDobEQgGMGEMgQTAACisxGBYAQTyhBMAACIzkYEghFMKEMwAQAgOhsRCEYwoQzBBACA6GxEIBjBhDIEEwAAorMRgWAEE8oQTAAAiM5GBIIRTChDMAEAIDobEQhGMKEMwQQAgOhsRCAYwYQyBBMAAKKzEYFgBBPKEEwAAIjORgSCEUwoQzABACA6GxEIRjChDMEEAIDobEQgGMGEMgQTAACisxGBYAQTyhBMAACIzkYEghFMKEMwAQAgOhsRCEYwoQzBBACA6GxEIBjBhDIEEwAAorMRgWAEE8oQTAAAiM5GBIIRTChDMAEAIDobEQhGMKEMwQQAgOhsRCAYwYQyBBMAAKKzEYFgBBPKEEwAAIjORgSCEUwoQzABACA6GxEIJG+CD8rDx/JxeJnzt4Zgkv1t3gz/Q9sXwSMSTAAAiE4wgSDyBvj5eTg7H/1l52wlwaTu83lD/Nq2L4SHJZgAABCdYAIB5M3v8jx8vtl5W1EwqTszb4rbvzOnIcEEAIDoBBPocHnj+5o8fK7K3K0smNSdlTfGS9u9HjYnmAAAEJ1gAh0sb3qPSZs+hjNQZf5WGEzqzsib41PauR42J5gAABCdYAIdKm94D8zDxaliLKnbSoNJ3X/mDfJb2rUeNieYAAAQnWACHSpveC/KwxFV5/fttm9acMgxqbt/cRtXtcnorTekDVecnybWrW7lYf40b5I/3a41USSYAAAQnWACHShvdv8sD5+sMrd70bZp4eEvTL077t7eRU1RGx9Pwz+/JA397JKUJsarPsyJeaP8jXaui00EEwAAohNMoMPkjW79pqhnVpk7Z+8D04LDjktdvX1tXtXDG7/vrrT+wnPTxNr7q0z/bT72y5vlDW1eVniCCQAA0Qkm0EHyJnfbPFyfj+2bmtjVlRYcemya+8SnTcu6Hk1tZDgNXnB2Gr3j5irT3583y+9t95qiE0wAAIhOMIEOkje5H8jDu5qa1N2T+o8+afKeJTNqYiIN/vfX0sjN1zU784F8HJ83zJdMw6rCEkwAAIhOMIEOkTe4++fhynwsKD2pqyv1P/fk1LfbPtO2rqbUaml9/Z0mt97Q7Mxv5w3zi6djSVEJJgAARCeYQIfIG9wv5WFZM3Pq9yuZqY/hPJz6zWDXf+eLVb52+Fl503zpdKwpIsEEAIDoBBPoAHlzOz8PTd34tH6D14VHHj9NK2rNxIb1ae25p6faxqZ+pG/lTfPW+QPNQoIJAADRCSbQAfLm9n15KH3j0+6BbdKiP3nDFv02nGaN/vbGtP4HX21qTt40+5vWJoIJAADR2VxAB8ib2/vysKTs+f3HnZr6dt5jGlfUHoM/PDeN3HRtM1P+v7xx/sfpWk8kggkAANEJJjDL5Y1t/WMo3yh7ft+u+6T+Y5ZO44raZ2JwXVqz6uMpjY+VnfK7vHHeZTrXFIVgAgBAdIIJzHJ5Y/uOPHyw7Pn1j+L0bPvYtq5hYmgwjd/7u7x53nvym3faacPlP0jDv7yymSnH5M3z+W1dRECCCQAA0QkmMMvlje2v8rB3mXP7dtkr9R/7irZde2LDurTx55el4RuumnwXSPfiJWn+QYenOXs9uW3hZGJwbVrz1Y9NfuVwST6W0waCCQAA0QkmMIvlTe1hebik7Pn9x7ws9e1aqq08oslQ8rNL0vCvrk5pfHyz/717YNs0/+DD05wnHNCWcLL+vDPT6G2/Lnv6Z/Lm+bSWLxqcYAIAQHSCCcxizXwcp2vu/LTNqW9Pqbu7pWvW300ydPl5qTY2+qjn9my3Y+p/zkmpe9G2LV1z5Obr0uCF55Q9/ca8eW69CgUnmAAAEJ1gArNY3tR+JA9vLXNu/WMyC486saXrDf3kwrTx55c2NaceagZeuCz1LNmh8nVroyNp9Zc+mNLERNkph+cNdOl33rA5wQQAgOgEE5jF8qb2s3l4bZlzFx55fJqz94GVr1V/Z8mGH3+n0tzuBf1p0Ul/mrrmLah8/XXfWpHG7r697Onvyhvo0jfCZXOCCQAA0QkmMIvlTe11edivzLmLTn5j6ln8mErXqd+zZO1Zn5x8p0dVrb7DZeiK89LGX1xR9vSP5Q10qXfe0JhgAgBAdIIJzGJ5UzuWh55HPbG7J237mr+ufAPW+j1LNv6ydKxoLF97MtosWlJp+sivr0mDF32j7Omfzxvo11a6EJMEEwAAohNMYBYru6ntXrQkLV765xWvUkurv/zhVBsarDj/j+Y/5cg0Lx9VjN3927TuW18oe/pFeQP97EoXYpJgAgBAdIIJzGJlN7W9Ozw+Dbz41ZWuMb7mvsmP47RD7067p4EXLKu4jvvzOj5R9vRf5Q30vpUuxCTBBACA6AQTmMVKb2p32Sv1H/uKStcYvf2mtP77X6k0d6rugW3S4pe9udLciaHBtObL/1H29LvyBnrHShdikmACAEB0ggnMYlskmNz267T+vDMrzZ2qe8FAWnzK2yrNbTKY3JM30NW/xxjBBACA8AQTmMVKfyRnx93TwAurfRRm7J7b07pvrqg0d6qeJdtPfr1wFRPr16Y1X/1o2dNvyxvo3SpdiPrr6q/y8C9lzhVMAADoVIIJzGJlg0nPkh3SopNOq3SN2uhwWv3FD+b/o9SlHtGcvQ9IC488odLc8fvuSmu/9pmyp1+VN9BPrXSh4PJr6tN5eH3Z87eSYFJ3Zv6dt38hAACEJZjALFY2mHTNW5C2WfaXla+z7jtfSmN33lp5/v9Y+NyXpjm771dpbpMfDfp63jy/pNKFAsuvpzPy0FR02IqCSd25+ff+J21fDAAAIQkmMIvlDe59eVhS5txtXvmO1DV3fqXrjN56Q1p//lmV5v6P7oWLNt3wtbu70vyN11yWhq68oOzp/5o3zn9d6UJB5ddSvUYtbXbeVhZM6kQTAADaQjCBWSxvcn+Qh2PKnNv/glNT3057VL5Wq+8yaeXdJXWDPzw3jdx0bdnT/zZvmv+h8sWCya+j+tcgVbor8FYYTOpEEwAAWiaYwCyWN7rn5OGkMufOO/iINP+pz658rYkN69O6b3w2TQyua3ru3Cc+LS047LjK165b85WP5DWUvvar84b5iy1dMIj8GvpEHt5Ydf5WGkzq3NMEAICWCCYwi+XN7r/l4Z1lzu3dbsc0cOLrWrrexLoH0rrvn5Em1txfes7c/Z+eFhzy/PzXpvqfm/H770lrzz29mSl7583yjZUvGER+/dRDySeqzu9e0J/mP/OYNGfP/du4qk3G7r0jbbj4W2n8gXtbeZgP5dfBO9q1JgAAYhFMYBbLG96X5eGrZc9f/PK3pO7+xS1dszY6koZ++t9p+LqfpjQx/rDndQ9skxbkzXTfbvu0dL26oZ/+KG28+uKyp1+SN8mHt3zRDpdfO/WPrJxdaXJXV5r3pGemeU85MnX1zWnvwh6qVkvD1/80Df3kwsnXXUXH5NfD+e1cFgAAMQgmMIvlTe/cPDyQj1J3c231YzkPNTE0mEZvvjaN3nnb5DtPauNjqXvugtSzZPvJj2n07bJXS+8qeVDeNK/56sfSxODasjO+mDfIr279wp0rv24W5eH6fOzY7Nx6cFv4nJek3u13af/CHsbE+jWT97AZu+d3VabXXzhH5NfENW1eFgAAHU4wgVmumY/ldM1fmBa//K2pq6dnmlfVPiO3XJ8GL2jqjRBvzZvjj03XejpBfs38cx6a/hah3h13S/3PfWnlb1tqycRE2nDpd9PwDVdXmX1Rfk20pxQCABCGYAKzXN78vicP7y97/oJDj528r8jsUEtrz/1MGr//7mYm7Zo3x7+drhXNdvn1clQevpGPgWbm1b/hqP7OktQ9s7Ft41UXpaF8VPBn+XXxX+1eDwAAnUswgVkub4CflIdflD2/a96CtPhlb0pdfXOncVXtMfKbX6TB//56M1N8nfCjyK+X7+fh+c3M6dtt39R/9J+k1N09TatqTsVoclU+Dsmvj9FpWBIAAB1IMIEOkDfBX8vDiWXPn/vEp6cFhx07jStqXW1kOK09+5OTX2fchOPyhvj707Wm2S6/To7OwwXNzKnfq6T/ha/c6j7GteHH367y8Zy/z6+Pv5uG5QAA0IEEE+gAeSN8QB5+3syc/hcsS3077T49C2qD+jtL6u8wacJdeTPc9E1MI8mvk/Py8Lyy53fPX5gGTvrTyXGrMzGR1n37C83eCPae/BrZYbqWBABAZxFMoEPkzfBP8/CUsudPboZfclrqXtA/jauqZvhXV6cNF3+72Wk+jvMI8uuj/n3Sq5uZ03/sKalvlz2naUWtq397ztpz/qvZrxx+fX6dfHa61gQAQOcQTKBD5A3xG/LwqWbm9Gz3uDTwolenrt6+aVpV88buvDWt+95X8m54vJlpt+TjCXkj3NSkSPLr41/y8Fdlz5/zhAPSwmefMI0rao/ha3+SNlzW1Kewrsyvk2dO13oAAOgcggl0kLwp/lEejmxmTu9Ou6f+5788dfX0TtOqyhv7/Z1p/XdWptrocLNT/5+8Cf6X6VhTJ8ivi/ov94F8lHo7UVffnLRo6Zu2zo/iTFWrf5PS6Wn8gXubmbV/fr1cN11LAgCgMwgm0EH+cC+Ti/OxqJl5vY/bNfUfszR1zZk3PQsrof7OkvXnraoSS36RN78HTMeaOkV+Xbw0D2eVPX/eQYen+U87qu3rGLv79tSz3Y5tv4Hs6K03pPXnl/7x6nwsBwCARyWYQIfJm+MP5uEdzc7rWfyYtPCYpZPjljZ8/VVpw2Xfm7yRZwVH5c3vj9q9pk6SXxOvyMNXSp3c05u2ecVbJ79+uj1qafTWX6Whqy5O4/ffnboXDKR5Bx6W5ux7cBvf1VRLa8/6VBpfc1/ZCe/Lr5m/adPFAQDoUIIJdJi8Oa4Xj+vzsV2zc+sfxZh/yDFp7j4Ht39hDdSGh9KGS7+XRm66tupD/EXe+H6knWvqRPk18cM8lHrLyJy9npwWHlX6G6ofQS2N3HJD2nh1PZTcs9n/Wv+4z9wDD0tz93tqW8LJ8C+vSBsuP6/s6YP52Da/dkZbvjAAAB1LMIEOlDfIL8/DGVXn9+64W1pw6PNTz7bbt3FVD1GrpeFf/zwN/eTCVNu4oeqjuHlnCfm1sFvadFPcUvqPOyX17dzaN+NMrFs9+bXQY/fc/qjndvcvTguPPH7yNdfSNYcG05qvfHjytVXS0vz6aepzPAAAxCKYQIfKG+W35qH6uy+6utKcPfZP8w48NPUs2aE9i5qYSCM3X5s2/uySNL769608Uv17ZI/IG94r27OwztXMx3Hq7zDa5pXvTKm7u/L1xu+7K6377pcn3z1UWr5ePZrU393SinXf+kIau/u3ZU//QH79lP7WIAAA4hFMoIPlzfLH8vDmVh+nd/udJzezfbvuk7oXDjQ3uVZLY/fekUZvuS4N/+aXqTY02Opy6o7Pm91vteOBOl1+DbwnD+8vc27frnun/mNeVvlaExvWp7Vf+3S133F3dxo47tSW3mmy8aqL0lA+Sjo7v4ZOrnwxAAA6nmACHS5vmL+Yh1e26/HqN4Xt2X7n1LPtY1PPom1T1/z+yXcmpK7uvGMeS7XhjWlicG0aX3P/5LsNxu75XXPvNnh0f5k3uv/RzgfsZPn3/495+H/LnDv/ac9J8w56VuVrrT9/1eQNXquqfzxn0clvrHxPk9Hf3ZTWf6/cvW2z7+fX0XGVLgQAQAiCCQSQN80r83DqTK+jDd6bN7ml3i3BJvl3//U8nFDm3Pq7S+rvMqli/Pd3pbVf/0yluQ+14NBj09z9n15p7uR9TL5cuqXdnV9Lj6t0IQAAQhBMIIi8cf5sHl470+uoqP4WlXfnDe6HZ3ohs03+vf8yD/uXOXfRS/8s9WzT9JcrTdpw2ffT8LU/qTT3oXq22zEtOvF1leevXvGvqTZW7stv8uvJ/w8EAOBh+cciBJI3z/+Uh3fP9DqaVI8lL82b2+/O9EJmo/w7vz8P25Y5t37D16658ypdZ+05/5XGH7i30tzN1vHqd6WuvrmV5q458+NpYt0Dpc4VTAAAeCT+sQjB5A30i/Nwdj7mzPRaSrgsH2/JG9ufzvRCZqv8+x7LQ0+Zc7d93Xsmvx2pimbe2fFoFp10WuVvZlr7tc9M3junDMEEAIBH4h+LEFDeRD8jD/Vv0HnGTK/lYdQ3+W/PG9r/nOmFzHb5dz2RSv6t3/b17yl76mYe+Ez7bi0zcPxrJr+ZqYp13/jc5LcylSGYAADwSPxjEQLLm+m35eFN+XjiTK/lIf5P2vSukstneiGdIP+O6x9pKvU5m21e89eVv6Fm9Zf+vW3fhrTo5D9PPYuXVJq79tzT0/j995Q6VzABAOCR+MciBJc31PVY8t7Uxq8eruiGfHzcVwa3V/793pmHUt8Gs/jUt6fu+QsrXWfdt7+Yxu66rdLch+rq7UvbvOpdKXV3V5q/5oyPTn6tdRmCCQAAj8Q/FoFJeWO9T9oUTpZv4UvfkjaFkn/ZwtcNIf9e619d87Qy5y468fWpZ7tq37S78ZpL09CVF1aa+1B9u+2T+p+3tNrkWi098Pl/TmlioszZ4/k1V+3tNAAAhCCYAJvJm+w/S5s+qnPwNF7mk/lYmTetP5rGa4SXf5cr83BqmXMXPuclac6eT6p0nYmhwbT2zP9s+cav/cedmvp23qPaGtY+kNas+njZ02/Mr729K10IAIAQBBPgYeXN9oF5ODQfe+bjOfk4pOJD3ZyPG/NxU9r0zTdfz5vV+9uxRh5Z/h1+Kg9vKHPuvAMOTfOf8dzK19p49cVp6KfV+1ffLnul/mNfUXn+yM3XpcELzyl7+pn5NfjyyhcDAKDjCSZAaXnzvW/6Y0Dpz8deadP9MQbyUf94w3A+6iHkt/lYn/4QSPLG9KIZWTD139m78/BPZc6tfzNN/RtqKpuYSOu+/5U0dsctTU/tXrgoDZz4usr3UKnbcNkP0vC1V5Y9/bP5dfn6yhcDAKDjCSYAHWzpsuXPyUO5m4t0daVtlr0jdc0t9aU6DdVGR9Lg+Wel0TtuLj2ne9G2aeDYUybHVqw56xNpYk3pNy79zaqVK97X0gUBAOhogglAh1u6bPmtedi1zLkLjzw+zdn7wNYuWKuljb+4LG28+seTAeVhdXWlufscPPkxoK45c1u65PgD96S155zezJTnr1q54ryWLgoAQEcTTAA63NJlyz+ch7eVObf3cbumgRe9qi3XrQ1vTCO/+UUavf03aXz17yf/c1dfX+petCT17bhbmvOEA1L3wDZtudbQFeeljb+4ouzpd6xauWLntlwYAICOJZgAdLily5b/ZR7+vez5i046LfUs2WEaV9Re9XexrDnjo6k2srHslC+tWrmiPVUIAICOJZgAdLily5bXb9R7adnz5+yxf1p49EnTuKL22njNpWnoynK3afmDt61aueKj07UeAAA6g2ACEMDSZctvyMM+Zc+vf2NN73Y7TuOK2qM2PJTWrPrE5NiE3VatXHHbdK0JAIDOIJgABNDsx3LqsWTghNdO3ph1a7bhx99Owzdc3cyUV61aueJL07UeAAA6x9b9L2EA2mbpsuW1Zs6f//Sj07wDD5uu5bRs9Hc3pfXf+0qz056wauWK30zHegAA6CyCCUAQS5ctX5GHV5ee0N2dBl74qtS7wy7Tt6iKJjasS2u/9plUGxpsZtqPV61cccR0rQkAgM4imAAEsXTZ8n3zcH0zc7rmLUiLTnht277+tx1qY6Np3be/kMZ/f1ezU30cBwCA0gQTgECWLlv+6Ty8vpk53Yu2TQMvenXqXtA/TasqrzY+ngbP+2oa/d3NzU793qqVK14wHWsCAKAzCSYAgSxdtnzPPHwuH0c2M697YNs08IJTZ/SdJrXRkbT+/FVp7I5bmp1afyvKEe5dAgBAMwQTgGCWLlt+ah5WNjuv/vGc/uednHp3ePw0rOqRTaxbndafd2Yaf+DeKtM/sGrlir9q95oAAOhsgglAQEuXLf92Hl7Y9MTu7jT/4CPTvIOetcW+cnjk5mvThh9/N9VGNlaZfnc+9lu1csXqNi8LAIAOJ5gABLR02fI98nBxPnaqMr/nMTukBYe9IPVuv3N7F/YQ9XeVbLj8B2n0tl+38jBLV61ccVa71gQAQByCCUBQS5ctPyQPZ6eK0aSub7d90ryDDk+92+3YtnVNrF+TNl5zWRq+4er8H8Zbeag3r1q54uPtWhcAALEIJgCBLV22/H/l4V9bfZzex+6U5ux9YOrbbd/UPX9h0/PrN3Qdvf3GNHLjL/L4m/xf1Fpd0sdWrVzx1lYfBACAuAQTgOCWLlv+wTy8o12PV/+4Tv3GsD1Ldkg9i5ek7gUDqWvuvJS6e1KqTaTayHCa2LA+Tax7II3ff08au+d3k0eL7yZ5qC+tWrniVe16MAAAYhJMAKhHk4/l4c0zvY42OGPVyhWnzPQiAACY/QQTACa1+50mM+ALq1auWD7TiwAAoDMIJgA8aOmy5e/Mw7/N9Doq+OCqlSveNdOLAACgcwgmABQsXbb8aWnTt+fsOtNrKenUVStXfGWmFwEAQGcRTADYzNJlyx+fh/p9TU6Y6bU8guvz8ZZVK1dcMNMLAQCg8wgmADyspcuWvywPb8rH0TO9loe4PR8fX7VyxftneiEAAHQuwQSAR/SHd5u8Nx9vnOm1ZOfm4x9XrVzxk5leCAAAnU0wAaCUpcuW75E2hZPTZuDyX0+bQskVM3BtAAACEkwAaNrSZcv/PG36qM6B03gZH70BAGDGCCYAVLZ02fKD83BoPvbMx4n52LeFh7stHz/Ix035uMzNXAEAmEmCCQBts3TZ8kPSHwNKfz72zscu+dg2H3PyMZaPNfm4Mx+/ycf69MdA8sMZWDIAADQkmAAAAABMIZgAAAAATCGYAAAAAEwhmAAAAABMIZgAAAAATCGYAAAAAEwhmAAAAABMIZgAAAAATCGYAAAAAEwhmAAAAABMIZgAAAAATCGYAAAAAEwhmAAAAABMIZgAAAAATCGYAAAAAEwhmAAAAABMIZgAAAAATCGYAAAAAEwhmAAAAABMIZgAAAAATCGYAAAAAEwhmAAAAABMIZgAAAAATCGYAAAAAEwhmAAAAABMIZgAAAAATCGYAAAAAEwhmAAAAABMIZgAAAAATCGYAAAAAEwhmAAAAABMIZgAAAAATCGYAAAAAEwhmAAAAABMIZgAAAAATCGYAAAAAEwhmAAAAABMIZgAAAAATCGYAAAAAEwhmAAAAABM8X8BUfH85R2Dy6wAAAAASUVORK5CYII=;" vertex="1" parent="1">
          <mxGeometry x="250" y="395" width="310" height="310" as="geometry" />
        </mxCell>
        <mxCell id="g7xP1a6qRHzM_47NsmWZ-33" value="" style="shape=image;verticalLabelPosition=bottom;labelBackgroundColor=default;verticalAlign=top;aspect=fixed;imageAspect=0;image=data:image/png,iVBORw0KGgoAAAANSUhEUgAAAyAAAAMgCAYAAADbcAZoAAAAAXNSR0IB2cksfwAAAAlwSFlzAAALEwAACxMBAJqcGAAAiFtJREFUeJzs3QecHNWV7/FTPTMKg9Io5zQKYMCAwbLJCyxhQQYTjAkmmSzJiCCBJJCEgpHIwmQMmOw1AoEDawMfYLFxABmzPFtWGiUURzmO0kzXO3d6sAmS6Hu7qru66vf9fOpdr9+c1rG6p7r+qrr3egIAAAAAeeIVugEAAAAAyUEAAQAAAJA3BBAAAAAAeUMAAQAAAJA3BBAAAAAAeUMAAQAAAJA3BBAAAAAAeUMAAQAAAJA3BBAAiXPWeRd20+HbevTWo5keHRuOtnq030Ppaj1W6rFMj816zNfjLy+98MyHoTYMAECMEEAAxI4GjL7y+YDRp+E/m/F9PY4J+I+cocfH8vlQ8m7AfwYAALFAAAFQ1DRsHC+fDxtd9Di0oE1lLNLjYT3+V8PI+4VuBgCAqCCAACgaGjaOlM+HjeP06FTQprIzW4+HNYjcV+hGAAAoNAIIgMjSwPEd+Xfg+JYevQrbUc7Mo1omiDxY6EYAACgUAgiAyNDAYULGp4HjAj0qCttRaMwjWYOZvA4ASCICCICC0cDRUodTJRM6zONU/QvbUV5t0+MMDSG/LXQjAADkEwEEQF59YYWqsZLs85AJIVM0hIwsdCMAAORLkr/4AeSRBg/zSNXVEo0VqqLmGQ0hFxW6CQAA8oEAAiAUGjj2kn8/XnVNgdspBg9pCBlc6CYAAAgbAQRAoDR4mJ3Eb5bM3Y6yArdTbIZpCLm70E0AABAmAgiAQGjwOEoyweOEQveyJxUaido3EmlZ6kurMjPqoWMrHZvrf9eidPe1m2pFNtZ6sm6nyIrtIit3iCza6tWPAbpQQ8izgb4iAAARQgABkDMNHzdI5o5HZaF7MZqWiPRoItK5iS8dG4t0aGRChy8d9D83TgX/55lAMnOzJ9M3iHy00ZOdfk4vt0mPvTWELAumOwAAooUAAsCZBo/DdTCb6h1QqB7MHYyeTX09JHOU+/V3OAplW1rk/fWevFqd050R5oMAAGKLAALAiYaP03WYlu8/t0sTkf57+XpkxnYFDBt7UueLvLvWk+eXefWhxJK5h9JHQ8j84DsDAKCwCCAArGn4uF+HIfn4s7pq4Ph6c1++1kykrwaOZiX5+FODs2y7yL0LUvWjpSc1gFwaQksAABQUAQSAlYb9PJ4J6/VNwNhPA8fXm2eCR0UM1tHaWicyvioln2yzLu2oIaQ6hJYAACgYAgiArDTsYG7mexwf9Gt3aizyjRa+HNzSl357xfPEZCaqj5mbkrU7rcqu0ADy05BaAgCgIOL4PQ8gYA2Tzc18j/ZBvWbvcpFvt/Lrg4cJIEkwe0vmTogFHsMCAMQOAQTAHgX5yJVZneqwCl+OqEhO6PiiOxd48n8bsz71TtcAMiDMfgAAyDcCCIDd0vAxUofbcnmNEj3LHNzClxPa+rJPs4AaK2Lza0RGz7W6C/I1DSEzw+oHAIB8I4AA2CUNH/fqcG0ur3F4hS/ndfbrdxnHvw35Z6p+TkiWfqgB5GchtgMAQF4RQAB8iYaP7+nwomt9Cw0cJngcWZHbluBx9eAnnvxpXdan34kaQEaH2Q8AAPlEAAHwLxo8uklmpavvuL5G9yYiw3unpXUMls8Ny29XefLcsqxPv1M0gFwXZj8AAOQTAQRAPQ0fB0tmpavurq9xQHNfftTDl6ZFtllgvr2z1pPHF2d9+n1cA8jlYfYDAEA+EUAAmPBxkQ5P5fIax7bx5eIufv2kc+zZe+s8efiTrP+intMAckGY/QAAkE9cKgAJl+tKV+Ykcm5nX05px3yPbP1+rSePZn8H5CkNIJeE2Q8AAPlEAAESLNeVrsr0DDK4hy/fbEn4sPHick9+uTLr0+8DGkB+FGY/AADkEwEESCgNH2aH7cdd681KV8N6paWyPMCmEuK+hZ58sCHr0+/1GkDuDbMfAADyiQACJIwGj30ls9LV0a6v0bmxyI2909KuUXB9JcmwWSlZvj3rHz9MA8ifQ2wHAIC8IoAACaLh4xjJrHTVyvU1Dmrhy5AevjSx2swbnzLBwwSQLM3V8NEvzH4AAMg3AgiQEBo+ztfhuVxew2wseFk3X0o5czhjDxAAQNJxGQEkgIaPm3SYnMtrfK+jL9/twGTzXE2oSsmsLVn/OLugAwBihwACxJyGj7t1uN61vlFKZHB3Xw5hpaucrdwhct1Mq2fXfqgB5Gdh9QMAQCEQQIAY0/Bxpg4vudaz0lWwXq32ZOoKq9Pu1zSAzAyrHwAACoEAAsSQBo8uklnp6jTX1+jSRGR4L1a6CtL1s1JSnf3qV9M1fAwIsR0AAAqCAALEjIaPgySz0lVP19fYt5kv1/b0pbwksLYSb16NyJi5Vo9fna0BZGpY/QAAUCgEECBGNHyYOx4mfDgvkntsG18u7uJLCWeHQD211JM3V1v9pXbXALI4rH4AACgULjGAmNDw8SMdfuJab04GF2jwOLEtk82DVqt/pYNnpGRzXdYl72j4ODbElgAAKBgCCBADGj5+rMMo1/oyPRMM6u7LgFaEjzB8uNGTexZYnW55/AoAEFsEEKDI5brSVfOGla76sNJVaO5b6MkHG7I/3Wr44NwMAIgtvuSAIhXESledGovc2Dst7VnpKjQ1dSKDZqRkZ/Y3l9h8EAAQawQQoAgFsdLV3nuJXNcrLc1Y6SpU76z15PHFVqfagRpAXgurHwAACo0AAhQZDR+nSCZ8ON+3OKzClyu7+VLKGSB046tSMntL1j++RsNH2xDbAQCg4Lj8AIqIho+rdXgol9c4s6MvZ3Rgsnk+rNwhct1MqxWRr9EAcn9Y/QAAEAUEEKBIaPiYoMMtrvXmbselXX05qjXhI19erfZk6gqr0+wADSDTw+oHAIAoIIAARUDDx8M6XOVab3Y0Nzubmx3OkT/Xz0pJ9fasf3ymho+vhdgOAACRQAABIk7Dx6U6PO5a366RyPBeaenSJMCm8JXm1YiMmWv1+BV7fwAAEoEAAkSUBo99JbPM7tGur9FvL5Hre6br9/pAfj211JM3V1udYrtrAFkcVj8AAEQFAQSIIA0fx0hmpatWrq9xaKvMSldlVv8IjyDU+iKDZ6Rkc13WJe9o+Dg2xJYAAIgMAggQMRo+LtLhqVxeg5WuCuvDjZ7cs8Dq9MrjVwCAxCCAABGi4WOcDmNc60v0N/qSrr4cw0pXBTVloSfTN2R/etXwwbkYAJAYfOkBEaHhw8z3GORa37REZGgPX/ZvTvgoJPPYlXn8qjb7t2GiBpDRIbYEAECkEECACMh1pas2jURu7JWWrqx0VXBvr/HkiSVWp9aBGkBeC6sfAACihgACFFAQK131bCoyvHdaWrHSVSSMr0rJ7C1Z//gaDR9tQ2wHAIDIIYAABRLESlcHtfBlSA9fmrDSVSSs3CFy3UyrN2OIBpAHw+oHAIAoIoAABaDh43wdnsvlNU5o68uFXXx+iSNkWrUnL6+wekcO0QDyYVj9AAAQRVy7AHmm4eMmHSa71ptf2gs0eJzYlsnmUXP9rJRUb8/6x2do+NgvxHYAAIgkAgiQRxo+7tbhetf6RimRwd19OaQl4SNqqmpExs61evzqLA0gL4fVDwAAUUUAAfJEw8eZOrzkWt+6TGR4r7R0bxpgUwjMU0s9eXO11Sm1qwaQpWH1AwBAVBFAgAYaEI7U4dt69NajmR499ejacOxqjam0HqsbjpV6LNFjsx7z9fiLXlz+oeF1u0hmpavTXHvr0TQTPirKXF8BYTJ7fpi9P8weIFl6Sz8f/xliSwAARBYBBIm0i7BxuB69Av5jFujRQTLhpKfrixzQ3JdrerLSVZR9uNGTexZYnU55/AoAkFgEECSCBg4TLk6VTOj4lgQfNkJxXBtfLuriSwm/qZE2ZaEn0zdk/yZp+OAdBQAkFl+CiC0NHRXy79BxVYHbscJKV8XDPHZlHr+qzf6tmqgBZHSILQEAEGkEEMROw+7iJnQ8XuheXJTpb+Wg7r4MaEX4KAZvr/HkiSVWp9KBGkBeC6sfAACijgCC2NDgcakOV+txcKF7cdWiVOSGXmnpU17oTpCtcVUpmbMl6x9fo+GjbYjtAAAQeQQQFD0NHpdIJnh8s9C95KJzY5HhvdPSvlGhO0G2Vu4QuW6m1eoAQzSAPBhWPwAAFAMCCIqWBo/zJRM8Di90L7nap5kv1/b0pVlJoTuBjWnVnry8wuo0eogGkA/D6gcAgGJAAEHR0eBRKZl9NU4sdC9BOLzClyu6+VLKb2PRuX5WSqq3Z/3jMzR87BdiOwAAFAUueVA0NHj00+FmPU7Qo2OB2wnEmR19OaMDk82LUVWNyNi5Vo9fsfcHAABCAEGR0PBhHrUyx/6F7iUIZl+Pi7v4cmwbwkexenqpJ2+stjqFdtUAsjSsfgAAKBYEEESaBo+DJPO41aFh/1ktS0V6lfvSq6lIx8Yi7Rr50rpM6o9dbQRoosOm2syxUY81Oz1ZsT0zMXnVDq/+0ZwNtV+uMzuam53NzQ7nKE51+tYN/meq/r3P0lsaPv4zxJYAACgaBBBEkgYP82yLedxqhB6hLEprgsV+GgL2bSbytWaZsBG07WmR5RpElm3zZPE2qQ8op3fwpXvT4P8s5M9HGz25a4HV6ZPHrwAAaEAAQeRo+DheMnc9+gb92u0aZSZ9H9bKly5Ngn51JMV9Cz35YEP2p08NH5xrAQBowJciIqVhad3ngnxNs7P4ERo6jmrtS7+9gnxlJFFNncigGSnZmf0TdLdpALk5xJYAACgqBBBEggaPVpJ55GpYUK9ZUSbynfYaPDR8NGV/DQTkrTWePLnE6tR5qgaQX4fVDwAAxYYAgoLT8HGmZB656hDE6zUvFTlNg8cxbfz6Cd9AkCZUpWTWlqx/fJ2Gj9YhtgMAQNEhgKCgGpbXfSiI1yovyQSP49v60pjggRCYBQWGzbL6cA3SAPJwWP0AAFCMCCAoGA0fN+hwV66vY5bINftpmA39WpQG0BiwG69WezJ1hdVp8xsaQD4Kqx8AAIoRAQR5p8HjcMk8cnVArq9VWS5yade09GBZW+SBufth7oJk6e8aPr4eYjsAABQlAgjySsPH6TpMy/V1zONW53TK7CTOhxj5MK9GZMxcq8evztYAMjWsfgAAKFZcuyFvNHwcI5nw0SqX1zmkpS+XdPWlFY9bIY+eXurJG6utTpndNYAsDqsfAACKFQEEeaHhY18d3pMcwkezEvO4lS8DWmW/AQMQhFr9yA2ekZLNdVmXvKPh49gQWwIAoGgRQJAXGkD+V4ejXevNXI/B3dPSoXFwPQHZ+nCjJ/cssDpd8vgVAAC7QQBB6DR8XKrD4y615gP63Q6+nK5HCZ9WFMh9Cz35YEP2H0ANH3xaAQDYDb4kESoNHxfo8IxLrdlQcHB3X/ZvziNXKJyaOpFBM1KyM/uP4UQNIKNDbAkAgKJGAEFoNHx01mGWHs1ta/dt5suQHuzrgcJ7a40nTy6xOlUO1ADyWlj9AABQ7AggCI0GELPXxyDbuuPa+HJhF19K+XQiAsZXpWT2lqx/fI2Gj7YhtgMAQNHjEg+h0PBxuQ6P2dSYwHFZN1+OrOCRK0TDqh0i18602vtjkAaQh8PqBwCAOCCAIHAaPk7T4VXbOnPX48S2hA9Ex0srPHml2uo0+Q0NIB+F1Q8AAHFAAEGgNHw0k8y8jy42dQc09+XG3oQPRMuwWSlZvj3rH/+7ho+vh9gOAACxQABBoDSATNJhhE1Ny1KRyf3TTDhHpMyrERkzl8evAAAIGgEEgdHwcYoO0/RolG2N+QCO7pOW/nuF1hbgxKx8ZVbAyhZ7fwAAkB2+MBEIDR/f1OE9sQgfxqntffl+Jx69QrTU6kdyyD9Tsqk265LHNYBcHmJLAADEBgEEgdAA8oEO37Sp6VMuMqZPmh3OETkfbvTkngVWH8zLNIA8EVY/AADECZd+yJmGjx/p8BObmmYlIpP6p6V1WUhNATm4d6Enf91gdXpsrwFkVVj9AAAQJwQQ5ETDx6GSmffR0aZueC9fDmzBo1eIHvPYlXn8qjb7j+dEDR+jQ2wJAIBYIYDAmYaPSsnM+7AKH8e39eXiLoQPRJOZeG4moFsYqAHktbD6AQAgbgggcKYB5Hc6nGhT06OpyPi+6fpdz4EoGjs3JVU1Wf/4Gg0fbUNsBwCA2OEyEE40fJyvw3M2NY1SIhM1fHRpElJTQI7MpoNm80EL7P0BAIAlAgisafg4U4eXbOsu6+bLMa159ArR9dIKT16ptjotfkMDyEdh9QMAQBwRQGBFw0crHWbp0cGm7rAKXwZ3J3wg2q6dmZJVO7L+8b9r+Ph6iO0AABBLBBBY0QBypw7DbGraNRKZ1C8tTUtCagoIwJwtIuOqePwKAICwEUCQNZd5H2ay+dg+aeldHlJTQECeWOLJ22uyPyVq+OD8CQCAA75AkRUNH8fr8IZt3bmdfBnYnkevEG1mz4+rZ6Skpi7rkkc0gFwdYksAAMQWAQRfScOHeS7FzPvoa1O3XzNfRlT6fMgQedM3eDJlodUn9WINIE+H1Q8AAHHGtSG+kgYQs8vzeJualqUik/unpUVpSE0BAbpXw8dfN1idDltrAFkXVj8AAMQZAQR7pOHjOB2m6dEi2xrzobqpty/7N+fRK0TfplqRIf9M1T+GlaVbNXyMC7ElAABijQCC3dLwsb8O74lF+DBOaefLeZ0JHygOb6725KmlVqfCkzSAvB5WPwAAxB0BBLulAeT3OhxpU9OnXGRMn7SU8MlCkRg7NyVVNVn/eLWGj44htgMAQOxxmYhd0vBxuQ6P2dSYfT5u65eW9o1CagoI2PLtIsNmWe39cZUGkEfD6gcAgCQggOBLNHxcoMMztnVDe/gyoBWPXqF4vLTCk1eqrU6DB2oA+TisfgAASAICCD5Hw0dnySy529ym7qjWvlzZjfCB4nLtzJSs2pH1j3+s4ePAENsBACARCCD4HA0gD+owyKamc2ORif3S0tjqSRagsOZsERlXxeNXAADkGwEE/+Iy76PMy4SPrk1CagoIyRNLPHl7TfanQA0fnC8BAAgAX6iop+HjNB1eta27qIsvJ7Tl0SsUF7Pnx9UzUlJTl3XJIxpArg6xJQAAEoMAAhM+mklm3kcXm7pvtPDlhl6EDxSf6Rs8mbLQ6vR3sQaQp8PqBwCAJCGAwASQSTqMsKlp00hkcr+0lJeE1BQQorsXePK3jVanv9YaQNaF1Q8AAElCAEk4DR/f0WGaHqXZ1pgPzeg+aem/V2htAaHZVCsy+J8pqcv+5t2tGj7GhdgSAACJQgBJMA0f39LhPbEIH8bpHXw5qyOPXqE4vbnak6eWWp36TtIA8npY/QAAkDQEkATTAPJXHQ62qdm3mS8jK30+OChaY+empKom6x+v1vDRMcR2AABIHK4jE0rDx1AdptjUNCsRmdQ/La3LQmoKCNny7SLDZrH3BwAAhUQASSANH4dKZt6H1b/sDu/ly4EtePQKxWvqCk9erbY67R2oAeTjsPoBACCJCCAJo+GjUjLzPqzCx/Ftfbm4C+EDxe2amSlZsyPrH/9Yw8eBIbYDAEAiEUASRgPI73Q40aamR1OR8X3TUsqnBUVs9hb9HFfx+BUAAIXGJWWCaPg4X4fnbGqa6PXabf3S0qFxSE0BefLEEk/eXpP9KU/DB+dHAABCwBdsQmj4OFOHl2zrrujmy9GtefQKxa1WP8JXz0hJTV3WJQ9pABkcYksAACQWASQBNHy00mGWHh1s6g6r8GVwd8IHit/0DZ5MWWh1urtQA8izYfUDAECSEUASQAPInToMs6lp10hkUr+0NC0JqSkgj+5e4MnfNmZ9ujOpu0IDyIYQWwIAILEIIDHnMu/DTDYf2yctvctDagrIo021IoP/mZK67G/m3arhY1yILQEAkGgEkBjT8HG8Dm/Y1p3byZeB7Xn0CvHw5mpPnlpqdao7SQPI62H1AwBA0hFAYkrDh1lv1Mz76GtTt39zX27q7fPBQGyMmZuSeTVZ/3i1hg+rPXIAAIAdrjNjSgPIaB3G29S0LBWZ3D8tLUpDagrIs+XbRYbNYu8PAACihAASQxo+jtNhmh4tsq0xHwRz58PcAQHiYuoKT16ttjrNHagB5OOw+gEAAASQ2NHwsb8O74lF+DBOaefLeZ0JH4iXa2amZM2OrH/8Yw0fB4bYDgAAEAJI7GgA+b0OR9rU9CkXGdMnLSV8GhAjs7eIjK/i8SsAAKKGS84Y0fBxuQ6P2dSYfT5u65eW9o1CagookMcXe/LO2uxPcRo+OB8CAJAHfOHGhIaP7+nwom3d0B6+DGjFo1eIl51pkav/mZKtdVmXPKQBZHCILQEAgAYEkBjQ8NFaMkvutrOpO6q1L1d2I3wgfj5Y78l9i6xObxdqAHk2rH4AAMC/EUBiQAPI3Tpcb1PTubHIxH5paWz1iDxQHO5e4MnfNmZ9ejMpvEIDyIYQWwIAAA0IIEXOZd5HmZcJH12bhNQUUECbakUG/zMlddnf3Buj4WNCiC0BAIDPIIAUMQ0fp+nwqm3dRV18OaEtj14hnt5Y7cnTS61ObSdoAHkzrH4AAMDnEUCKlIaPZpKZ99HFpu6Qlr5c15PwgfgaMzcl82qy/vHlGj46h9gOAAD4AgJIkdIAMkmHETY1LUtFJvdPS4vSkJoCCqx6u8j1s6wmNl2hAeSnYfUDAAC+jABShDR8fEeHaXpkHSXMGz2ity/7NefuB+LrpRWevFJtdVr7ugaQv4fVDwAA+DICSJHR8PEtHd4Ti/BhnN7Bl7M6Ej4Qb9fMTMmaHVn/+EcaPr4RYjsAAGAXCCBFRgPIX3U42KZm32a+jKz0ebMRa7O3iIyv4vErAACijmvSIqLhY6gOU2xqyktEbuuXlnaNQmoKiIjHF3vyztrsT2kaPjj/AQBQAHwBFwkNH4dKZt5HR5u64b18ObAFj14h3hZuFbllTkosPukPaQAZHF5HAABgdwggRUDDR6Vk5n1YhY/j2/pycRfCB+LNfMJN+DAhxMKFGkCeDacjAACwJwSQIqAB5Hc6nGhT06OpyPi+aSnlHUbMOWw8aDJLhQaQDSG1BAAA9oDL04jT8HG+Ds/Z1DRJZeZ9dGgcUlNARKzbKTJsVkq2pa3KePwKAIACIoBEmIaPM3V4ybbuim6+HN2aR68Qf/ct9OSDDdansS4aQJaF0Q8AAPhqBJCI0vDRSodZenSwqTuswpfB3QkfiL+PNnpy1wLrU9hTGj4uCaMfAACQHQJIRGkAuVOHYTY1nRqLTOyXrn8EC4iz7WmR4bOtNh00PtLjbA0gVeF0BQAAskEAiSCXeR9msvnYPmnpXR5SU0CE/Hy5J79ZaX36YuNBAAAigAASMRo+jtfhDdu6czv5MrA9j14h/hZtFRk9NyV1dh/3P2j4OCqklgAAgAUCSIRo+DAPT5l5H31t6vZv7stNvX3eTMSeyRxjNXzMq7Eq26jHERpA/h5KUwAAwArXrBGiAWS0DuNtalqWikzun5YWpSE1BUTI22s8eWKJ9WnrNg0fN4fRDwAAsEcAiQgNH8fpME2PFtnWmDfP3Pkwd0CAuFtfm9nzY2udVdliPfbWAGJ3zwQAAISGABIBGj721+E9sQgfxintfDmvM+EDyfDgJ578aZ31KetUDR+/DqMfAADghgASARpAfq/DkTY1fcpFxvRJSwnvIBLgH5s8mTTf+sP+jIaPi8LoBwAAuOPytcA0fFyuw2M2NU1LRG7rl5b2jUJqCoiQnWmRm+akpHq7VdkMPc7QADInnK4AAIArAkgBafg4SDLzPnra1A3t4cuAVjx6hWR4aYUnr1Rbn6qGaPh4MIx+AABAbgggBaLho4tk5n30tKk7urUvV3QjfCAZlm0XGTk7JbV2H/n3NXx8O6SWAABAjgggBaIB5FUdTrOp6dxYZGK/tDROhdQUEDETqlIya4tVyTbJ7PnxYTgdAQCAXBFACkDDx5k6vGRTU+ZlwkfXJiE1BUTMH9Z58sgn1qeoezR83BBGPwAAIBgEkDzT8HG8Dm/Y1l3UxZcT2vLoFZJhU8OeH5vt9vxYJZk9P9aG0xUAAAgCASSPNHyYh6dm6dHXpu6Qlr5c15PwgeR4bLEn7661Pj2dreFjahj9AACA4BBA8kgDyGgdxtvUtGkkMrlfWspLQmoKiJiZm0UmzrOe6PSiho/vh9EPAAAIFgEkTzR8fEcyS+6WZltj3pzRfdLSf6/Q2gIixax2NWJ2Spbb7fkxTzJ7fvy/cLoCAABBIoDkgYaPb0lmyd2sw4dxZkdfzujAo1dIjl9We/LiCuvT0jANH3eH0Q8AAAgeASQPNID8VYeDbWr2bebLyEqfNwiJsXKHyI2zUrLTLnN/rOHjwJBaAgAAIeD6NmQaPobqMMWmpnmpyKR+aakoC6kpIIImz/fk75usT0lmz48/htEPAAAIBwEkRBo+DpfMvI/2NnVDe/gyoBWPXiE5pm/wZMpC69PRTzR8DA2jHwAAEB4CSEg0fJilds28D6vwYfb6MHt+AElRUydyw6yUbKy1KntXMsvurgynKwAAEBYCSEg0gJjNBo+3qenSRGRC37Q0tl6BFCheLyzz5LVV1qeiazV83BdGPwAAIFwEkBBo+LhAh2dsasr0nZjYLy1dm4TUFBBRH2/y5I75TqeiCzWEPBt0PwAAIFwEkIBp+DhXhxds667o5svRrXn0Csn08+We/Gal9elokx57awhZFkJLAAAgJASQAGn4MPM9ZulRYVN3WIUvg7sTPpBcdfrxH1eVknk11qUPaQAZHEJLAAAgJASQAGkAMc+kX2NT06lx5tGrJsz7QMKZfUBGzk7JtrR16Q80hDwfQksAACAEBJCAaPg4X4fnbGpK9W9/bJ+09C4PqSmgyLy71pPHFjudlk7QEPJm0P0AAIDgEUACoOHDrHb1hm3deZ19OaUdj14Bn/XAIk/+vN761DRXMvNB7O+fAACAvCKA5EjDh3l4ysz76GtTd1ALX4b1InwAX2T2BRk1JyWrdliXjtEAMiGElgAAQIAIIDnSADJah/E2NS1LRSb3T0uL0pCaAorc7C0iE6pS4hDRB2gImR58RwAAICgEkBw0PHo1TY9m2daYv/CbK9OyT9YVQDK9tMKTV6qtT1FL9DhCQ8iiEFoCAAABIIA40vBxgA7viUX4MAa29+XcTjx6BXwVszTvxHkpmbPFuvQ1DSADQ2gJAAAEgADiSAOICR+H29T0KRcZ0yctJfytA1kx80BGzknJ1jrr0nM0hPwihJYAAECOuBR2oOHjSh0esalpWiJyW7+0tG8UUlNATH2w3pP7Fjmdqk7SEPJ60P0AAIDcEEAsafg4SDLzPnra1A3t4cuAVjx6Bbh46BNP/rjO+nQ1TzJL89aG0BIAAHBEALGg4aOLZOZ99LSpO7q1L1d0I3wArszu6LfMScny7dalt2oAGRdCSwAAwBEBxIIGkFd1OM2mpnNjkYn90tI4FVJTQELMr9E0UZWqn5xuyayK9ccQWgIAAA4IIFnS8HGmDi/Z1JR5mfDRtUlITQEJ88tqT15cYX3aWimZEDI3hJYAAIAlAkgWNHyYux6v2tZd3MWX49vy6BUQFPPbNGmeJzM2W5+63tQAckIILQEAAEsEkK+g4cPs8zFLjy42dYe09OW6noQPIGjrdoqMmJ2SzfZL816oIeTZEFoCAAAWCCBfQQPIJB1G2NS0aSQyuV9ayktCagpIuOkbPJmy0On0dYaGkFeC7gcAAGSPALIHDY9emSV3s55Cbv5CR/dJS/+9QmsLgHp8sSfvrLU+hS2XzNK8G0NoCQAAZIEAshsaPg6VzJK7VutXndnRlzM68OgVELbtDUvzLrNfmvcODSA3hdASAADIAgFkNzSA/E2Hg2xq9m3my8hKn79UIE8WbhUZOzcltfaZ/z81hLwVQksAAOArcK28Cxo+rtPhHpua5qUik/qlpaIspKYA7NJrqzx5YZn1qcw8gmWW5v17CC0BAIA9IIB8gYaPwyUz76O9Td3wXr4c2IJHr4BCuHOBJ/+30fp09gcNIEeF0Q8AANg9AshnaPjoK5l5H1bh44S2vlzUhfABFMrGWpGbZqfqR0tXaAj5aQgtAQCA3SCAfIYGkDd0ON6mpkdTkfF901LK3yRQUB9v8uSO+U6/iGdrCJkadD8AAGDXuGxuoOHjAh2esalpkhK5rV9aOjQOqSkAVp5a6smbq61Pa6skszTv2hBaAgAAX0AAkfrwca4OL9jWXdnNl6Na8+gVEBU70yJj5qbkk23WpfdoALkhhJYAAMAXJD6AaPgw8z1m6VFhU3dYhS+DuxM+gKhZquHj5jkp2Wn/63myhpDfhtASAAD4DALIeRfep8M1NjWdGotM7JeufwQLQPS8sdqTp5dan97MfROzNO+HIbQEAAAaJDqAaPg4X4fnbGrMZPOxfdLSuzykpgAE4u4FnvzNfmne9zWAfDuMfgAAQEZiA4iGD7Pa1Ru2ded19uWUdjx6BUTdpoaleTfYL807REPIgyG0BAAAJKEBRMOHeXjKzPvoa1N3UAtfhvUifADF4h+bPJk83xOH39oLNYQ8G3xHAAAgqQFktA7jbWpalopM7p+WFqUhNQUgFM8v8+R/Vlmf6jZJZmneZSG0BABAoiUugDQ8ejVNj2bZ1pi/pJsr07JP1hUAoqLOFxlXlZJ5NdalD2kAGRxCSwAAJFqiAoiGjwN0eE8swocxsL0v53bi0SugWFVvFxk1JyXb0talAzWEvBZCSwAAJFbSAogJH4fb1PQpFxnTJy0lifqbAuLn7TWePLHE+hd5h2SW5p0eQksAACRSYi6rNXxcqcMjNjXlJSKT+6WlTaOQmgKQV/cv8uQv661Pe9M1gAwIox8AAJIoEQFEw8feOvy3HgfY1A3t4cuAVjx6BcRFTZ3IiDkpWbPDuvQaDSH3h9ASAACJk5QAYpbT/IFNzdGtfbmiG+EDiJvZW0QmVKVclub9gYaQ54PvCACAZIl9ANHw0VWHxTY1nRuLTOyXlsapkJoCUFAvLvfklyutT38bJLM074oQWgIAIDGSEEAe1uGqbH++zMuEj65NQmwKQEGZpXnHV6Wkyn5p3gc0gPwohJYAAEiMWAcQDR+H6fBHm5qLu/hyfFsevQLibuWOzNK8W+usS9klHQCAHMQ9gJj1+0/O9uf3b+7LiN6EDyAp3lnryeOLnU6DJ2kIeT3ofgAASILYBhANH5WS2XSwY7Y1k/qlpXvT8HoCED0PfuLJn9ZZnwrnSWY+SG0ILQEAEGtxDiC/0+HEbH9+v2a+jKzk7geQNJvrREbOTsnandalt2oAGRdCSwAAxFosA4iGj/N1eM6mZmyftPTbK6SGAETarC0iE92W5j1EQ8iHwXcEAEB8xTWAmEevDs/25w9t5cuQHtz9AJLMcWneT/Q4QkOI1VLfAAAkWewCSMPcj6psf94su3vPPmlpXRZiUwAizyzNO64qJfPsl+b9tQaQU0NoCQCAWIpjALlPh2uy/fnT2vtydifufgDIaWneszWETA2hJQAAYidWAUTDh5nFsU6PrO5ntCzN3P1owo7nABpM3+DJlIVOp8aBGkJeC7ofAADiJm4B5FwdXsj258/t5MvA9tz9APB5jkvzLpLM0rzbQmgJAIDYiFsAyfrxKzP34/6vpaV5achNASg65hGskXNSsmqHdelEDSCjQ2gJAIDYiFsA+bUOA7P52aNb+3JFN+5+ANi1hVtFxs5NSa39aeJUDSG/DqElAABiIW4B5B0d/iObn72lMi37NAu3HwDF7dVqT6ausD5Nmt3RzdK874fQEgAARS9uAWS7Do2+6ufMpPNH90tLaaz+1wMImrn5YTYoNBsVWvpQA8ghwXcEAEDxi9UluAaQrB6WqCwXGd83HXY7AGJg7U6RkbNTstl+ad5rNYTcF0JLAAAUtUQGkMMqfBncnfkfALLz4UZP7lngdLo0j2L9Meh+AAAoZokMIMe09uUyJqADsPD0Uk/eWG19ylwpmRAyN4SWAAAoSokMIKyABcDWzrTImLkp+cR+l483NYCcEEJLAAAUpUQGkP2a+TKykgACwM6y7SI3z0nJDvspZBdqCHk2hJYAACg6iQwgFWUiD3yNSegA7L271pPHFjudOn+gIeT5oPsBAKDYxC2AzNRh72x+9s6909K5ccgNAYilBxZ58uf11qfPDXrsrSFkRQgtAQBQNOIWQG7X4cZsfvbcTr4MbM9jWADsba0TGTUnJSt3WJc+oAHkRyG0BABA0YhbABmtw/hsfrZ9I5G79k5LSaz+BgDky7wakXFVKamz/3cM5oMAABItVpffGkDO1+G5bH/+6u6+HFHBXRAAbl5b5ckLy5xOoydpCHk96H4AACgGcQsglTpUZfvzLUszd0HKS0JsCkCs3b3Ak79ttD6VzpPMfJDaEFoCACDSYhVADA0h7+lweLY/f3I7X87vzF0QAG42aoS4aXaqfrR0qwaQcSG0BABApMUxgFg9hmUM7eHLgFaEEABuZm0RmViVEoezyEANIa8F3xEAANEVuwBiaAiZr0OvbH++SUpkXN+0dG0SYlMAYm3qCk9erbY+pZp1tI7QEDI9hJYAAIikuAaQ4TrcYVPTobHIzb3T0qZRSE0BiDWzGpZZFcusjmVpugaQASG0BABAJMUygBgaQv6fDvvb1JhJ6aMquRMCwM3anSIjZ6dkc5116TUaQu4PoSUAACInzgHkSB1+b1tnVsQa0TstleUhNAUg9qZv8GTKQqdT67c1hLwfdD8AAERNbAOIYbMx4Wc11RByY6+09NsrhKYAxN6TSzx5a4316XWZZOaDLAihJQAAIiPuASSlwyw9+trWNtLK63v6sn9zVscCYGdnWmTM3JR8ss269LcaQE4OoSUAACIj1gHE0BByvA5vuNSW6t/OkB6+fLMlIQSAnaUaPm7RELIjbV16noaQn4fQEgAAkRD7AGK47A3yKfMXdGV3X46sIIQAsPPOWk8eX+x0mmV/EABAbCUigBgaQibocItLrflLurSbL8e0JoQAsPPAIk/+vN76VLtIj701hNg/xAUAQMQlJoAYGkLu0+Ea1/rzO/tycjtCCIDsba0TGTknJat2WJdO1AAyOoSWAAAoqEQFECOXOyHGwPa+nNuJEAIge/NrRG6tStVvVmiJ/UEAALGTuABiaAgZqcNtrvWEEAC2frXSk18sdzrlnqMh5BdB9wMAQKEkMoAYGkKG63CHa/1xbXy5pKuf3L9AAFbMP1lMnufJPzZbnzXWSGY+yOrguwIAIP8Sff2sIeRqHR5yrT+swperuvlSkui/RQDZ2lgrMmJ2SjbUWpdO0QByXQgtAQCQd4m/dNYQcoEOz7jWE0IA2Phwoyf3LHA6YVyrIeS+oPsBACDfuGyW+hByug7TXOsPaO7LdT19KUsF2BSA2DJzQcycEAdsUggAKHoEkAYaQk6RTAhp5FK/914iw3qlpWlJsH0BiB+zGtaP56Vk9hbr0nWSmQ+yMviuAADIDwLIZ2gIOVIyIaStS33PpiIjK9PSjBAC4CusrxUZ5TYf5CcaQIaG0BIAAHlBAPkCDSH9dXhQj+Nc6rs00RDSOy0VZcH2BSB+Zmz2ZNI8TxwW9b5KQ8ijwXcEAED4CCC7oUHkIh2ecqnt2iRzJ6RVabA9AYifF5Z58toqp1PxNzSEfBR0PwAAhI0AsgcaQl7W4QyX2jaNRG7unZYOjQNuCkCsmLsf5i7IDPv9QRbqcYSGkKWBNwUAQIgIIF9BQ8hUM7jUEkIAZGPtTpGRs1Oyuc669JcaQL4bQksAAISGAJKFXEJIeYnICA0hleUBNwUgVmZuzqyM5TAf5CwNIS8H3xEAAOEggGRJQ4hZe/8cl1qzNO+NvdLSb6+AmwIQK1NXePJqtdNp+T80hLwbdD8AAISBAGJBQ8jTOlzoUtsoJXJ9T1/2b+7w75sAEsGcHSbP8+Qf9vNB1kpmPsjM4LsCACBYBBBLGkKe0OGHLrWl+rc9pIcv32xJCAGwaxtrRUa47Q/yjgaQY0NoCQCAQBFAHGgIMfuEDHKpNSHkRxpCDiGEANiNjzd5cud8p/1Bfqgh5GfBdwQAQHAIII40hDysw1UuteYv/dJuvhzTmhACYNemVXvy8gqnU/TZGkKmBt0PAABBIYDkQEPInToMc6k1f/GXdPXluDaEEABfVqenhtvmpWTWFqdyJqUDACKLAJKjXEKIcX5nX05uRwgB8GXra0VGuc0HmaEBZL8QWgIAIGcEkABoCBmpw22u9QPb+3JuJ0IIgC+rqhGZUJWSWvtTxAgNIbeH0BIAADkhgAREQ8hwHe5wrT+2jS8/7OrzhgD4kt+u8uS5ZU5nhws1hDwbdD8AAOSC690AaQi5WoeHXOsJIcliJhl3aixyaCvufuGr3b3Ak79tdDo7nKQh5PWg+wEAwBXXugHTEHKBDs+41h9W4ctV3Xwp4Z2Jtb9v8uT2hmVWT2zr188F4j3HntTUidw8JyUrd1iXztNjbw0h9jNJAAAIAZc8IdAQcpEOT7nWH9Dcl+t6+lKWCq4nRMcavYAcoReS5oLyUz2ailzbMy3tGxWuL0Tfkm0io+emZEfauvRWDSDjQmgJAABrBJCQaAg5RYdpejhdUvbfS2R4r7Q0LQm2LxSWWVr1x/NSMnsXS6s20/d6UA+/PoACu/OndZ48+InTqXuUhpBJQfcDAIAtAkiINIScKJkQUu5S37OpyIjeaWleGmxfKJypKzx5tXrPv3ZmVbRzOjEXCLv3xBJP3l7j9Ak5VkPIO0H3AwCADa5xQqYh5EjJhJC2LvVdmoiM1BBSURZsX8i/f2zyZHLDvI+vsk8zX67p4UsLwid2wSzJO3ZuShZutS5dr8cRGkJmBN8VAADZIYDkgYaQ/jo8qMdxLvVmpaRRlWlpTQgpWmZDuZGzU7LRYhqweb+H9kxLH6f7Z4g7M5do1JyUbK776p/9gnc1gPxH4A0BAJAlAkge5TI5vYOGkJt7p6UNk5SLkusSqo1SUr8085EVzAvBl03f4MmUhU6n8cs0hDwRdD8AAGSDAJJnGkJe1uEMl9qWpZk7IV2bBNwUQvWblZ78fHluv2qHawC5vCsro+HLfqGfrV+tdPp8Xash5L6g+wEA4KsQQApAQ8hUM7jUlpdkJqZX8lhOUZizRWTivFT96le5MosSXN+Tu2D4PPPRmjzPk39sdjqdf1tDyPsBtwQAwB4RQApEQ8jPdTjHpdYs13qThpDehJBI22o2jpubkurtwb2mmRdyXU/ee3zeup2ZTQo32G81uEwyk9IXBN8VAAC7RgApIA0hT+twoUutmRtwfU9f9mfPiMgyz+abZ/SDZnZMP7ujX79cL/CpeTUi46tS9StkWfqtBpCTQ2gJAIBdIoAUmIaQn+pwmUutCSHX9mTjuih6d60njy0O99frhLa+/KCzXx9IAOP11Z48s9TpA3GehpCfB90PAAC7wqVLBGgIMUv0DnKpNW/gld1ZJSlKFm0VGTPX6V+irTEvBF/0uAbfd9Y6ndqHaAh5MOh+AAD4IgJIRGgIuV+HIS615l/Ar+jmyxGEkILbmRa5RcPHkm35+zPNvJAbeqXrwwiwXT+D46pS9UHYwdkaQqYG3BIAAJ9DAIkQDSFmScxrXOvP7+zLye0IIYX0yCee/GGd9a/VCj065vLnmhBq3v8T2/L+Q2Rtw6R0m40vG6zSY28NIWuD7woAgAwCSMRoCJmgwy2u9WZi8rmduAgtBBM8TABxcJgeZocP8/jLAbn0cGwbXy7q4kspv9mJN3OzyKT5TktA36MB5IYQWgIAoB6XKRGkIWSkDre51p/ewZezOhJC8mnlDpFRc1L1S+9a+txmcPremwu/u3LpZZ9mvgzt4Uvz0lxeBXFgNij8hdsmmFP0c3ld0P0AAGAQQCJKL0Rv1mGia735l/AfdvV5g/Mgh3kfH+pF3iFf/C9zfe+NirLM5HT2C8EDizz583ompQMAooPr0wjTC9GrdXjItf6wCl+u6sYyrWF7eqknb6y2/ks2T+cfsbtdqPW9P1SHaZLD3JCyhsUJDmNxgkQzAXms+6T0Y/Uz+k7ALQEAEo5L04jTC9ErdXjEtf6gFpnHccpSATaFf/nrBk/uXej0a3SqXtj9ek8/oO99pWTmhZzo8gd8yswLOqcTd8OSbNUOkVvmpGSz/SOC6yUTlGcE3xUAIKm4JikCeiF6umT+NdyJ2ajwup6EkKCtapj3UWN/UTdML+juzvaH9f0/X4fnrP+UzxjQ0peruvvSmM9AYv1jkyeT53vicD/sXf28/kfQ/QAAkosAUiT0IvRMHV5yrd+vmS/X9+ICNCjmIm5iVUpmbbEu/Vgv5g60LdL3f7QO463/tM/ot5doEE1LCyanJ9aLyz355Uqn0/5l+rl9Iuh+AADJRAApInoReqRk7oS0danvrxegw3ulpWlJsH0l0UsrPHml2unXxzzO8keXQn3/j5HM+9/Kpd5o10hkmH4GujZxfQUUMxOc75zvycebnD67I/Sze3vALQEAEogAUmT0IrS/ZOYFHOdS30UvPEf2TtevkgQ3f9eLt9vdHmU5Qy/gXsnlz9b3f1/JvP9Hu74Gk9OTbZuZlO62apvxXf0M/zLglgAACUMAKVJ6IXqRDk+51HZqLDKqMi2tCSHW1tdqgJvttMP0eL1wGxtUH/r+X6rD47m8BpPTk8vMXxqtIWST/edY40v9Xbw/B98VACApuPYoYnoR+rIOZ7jUtmkkcnPvtHRoHHBTMWbuF/x4niczN1v/2izQY2+9aNsRZD9B7BfC5PTkMpPS71jgueyU/pF+lr8RQksAgIQggBQ5vQidagaXWjMZ+eZK5gNk65fVnry4wulX5mS9YPtt0P0Y+v5/T4cXc3mNHk0z80K4I5Y8r6/25JmlTp/p6/UzfW/Q/QAAkoEAEgN6EfpzHc5xqW1ZmnkcixCyZ/NqRMZVpVz+tfhivVB7OoSW/kXffzMfxMwL2df1NZicnlwPfuLJn9Y5fRVM0c/2dUH3AwCIPwJITOQSQpqViNzUOy29ywNuKibMPh9mv49V9g9Q3aUXaMNDaGmX9DNwkw6TXevN6mhm08r9mzM5PUnMTunj56Vkfo1T+VX6GX804JYAADFHAIkRvQB9XofzXGrNxaf5F/C99wq4qRi4b6EnH2yw/lWplsy8j/UhtLRb+hkwF4NXuNaX6P/Mi7v4cmwbQkiSrNspcrOG7A32k9KN/9TP+VsBtwQAiDECSMzoBah53OdCl9pGKZFre/r1O6cj4601njy5xOnX5Cy9KHs56H6y+oPPu3CCDrfk8hqntPPl3M6skJUkVTUiE6pSUmv/679RMitj/T34rgAAccT1RQzpBaiZDzDIpbZUPxFDevjyzZaEkE+2ioyZm5Kd9n8V5+jF2C9CaClrQUxON5+Bq1khK1F+v9aTRxc7fS38QT/zRwXdDwAgngggMaUXoPfrMMSltqRho7ojErxR3fa0yC1zUrJsu3Xpa3ohNjCElqwFMTndzAu6oVdaWpUG1xei7dllnvxuldNXwxX62f9p0P0AAOKHABJjegF6pw7DXOvP7+zLye2SGULuX+TJX9Zb/3oskcyjKItCaMlZrpPTzUppZn4QixQkg/mNv3uBJx9tdPp6eEQ//1cH3BIAIGYIIDGX63yA8zSEnJKgEGLufJjHUJ5y2xthgF58TQ+6pyDkckfMYIWsZDErv90yNyXV9ncAjRH6e3B7wC0BAGKEAJIAuYYQE0BMEIkb879o0VaR2Vs8WVCTGVe671U+SC+6Hg6uu+Dl+jkwJ4tzOvkysH38Pgv4MrPs9GgNIZvcVsbicSwAwG4RQBJCLz5v1mGia/1JGkIuKGAI2ZYWSesfv6UuExzMv9Ca/7umzhP9j7Jd/58d+n/v0J8zk8bN3gZb9TAr+pi7GnX+Z2syr7Fkm+e67OgX/Vkvtg4L5JVCpp8D83jMQ7m8BitkJcfHm7z6x7EcNuA0zOOIfwy4JQBADHANkSB68Wl2Lb7Htf6Y1r5c2i1z4Vl/Md8w+v6/L/a3aSCobQgC2xuCwKfhwfxs3WdqPg0TW+tMrVf/c/+qbQgSOxr+uwgz27eZC62PCt1ItvRz8F86TNPDed/zQ1r6MogVshLhjdWePO32SOJKyfxuzA24JQBAkSOAJIxefF6pwyOF7iNGTtILrNcL3YQt/RwcLJkVsr7l+hpdNb6M6J2WirLg+kI0vbDMk9fcVsZ6U38/Tgi6HwBAcSOAJJBefF6gwzOF7iMGrtKLq0cL3UQu9LMwWIcHXOvbNRK5SUNIp8YBNoXIMTchpyz05K8bnL4yLtTfk2cDbgkAUMQIIAmlF55n6vBSofsoYn/Ui6ojCt1EEPSzYCbPX+Vab5bpNSGkR9MAm0LkmEclb61KyZJtTuWT9fdlZMAtAQCKFAEkwfTC80jJzAVoW+heisxmyTzb/nGhGwlKrosUNEqJXNPDl4NaRHvCDnKzvlZk9JyUrN3pVH6N/s7cH3BLAIAiRABJOL3wPFwyIaR9oXspEiZ8nKEXUm8WupGg5bpCVqmeTa7s5sthFYSQOKuq0aRalapfJMLBD/V352cBtwQAKDIEEJgLz76SmZB8fKF7iTizpOjgON35+CL9LBwqmUDa0fU1zD4h53YihMTZ/2305K4Fnji+y0W5cAMAIDgEEPwLk9N3ywSOh4t9wnm29HNQKZlAeqLraxzV2pfLuvpSwhkmtsyqWGZ1LAdFt3Q1ACBYXB7gc/Ti82Udzih0HwX2oR5v6TFfj7/E+Y7Hnuhn4XwdnnOt/0YLX4b0YK+QOHtyiSdvrXH6GimazTsBAMEjgOBLcl0VKaLM41OHf+G/M3sp/p8e70lmbsengWNGnnuLLP0smDshg1zrK8tFhvdKS/PSAJtCZJgd0m+f78mMzU5fJYP0d+3hoHsCAEQfAQS7pBeeZ+lgVkY6MKQ/YleBYE9MQKjVY71kgsNnx9qG/3+zQGhNw7hNPh8q5gXWecLoZ+F2HW50re/QWOQmDSEd2CsklmrqRMbMTcny7U7lz+jv5kUBtwQAiDgCCPZILz7/S4dT9fi2Hr31aKaHeajmi0Fgox47JHPRb8Ya+XcY+DQ8EAiKlH4Oxupwq2t9m0aZXdM7E0JiaZmGj7EaQkwYcfCQng8GB9wSACDCCCAAsqIh5FIdHnetN49h3dgrLb3LA2wKkWEew7pjvie1bktjTdQQMjrglgAAEUUAAZA1DSHf0+FF13qzV8iPevhySEuW6Y2jDzd6cq/78rzXagi5L9iOAABRRAABYEVDyNGSWaZ3X5d6c9K5vJsvR7cmhMSRWRXLrI7laKCGkNeC7AcAED0EEABONIjcpMNk1/rzO/tycjtCSBw9v8yT/1nl9PVi5o8dpSHk/YBbAgBECAEEgDMNIc/rcJ5r/dkdfTmtAyEkbsw7OmWhJ3/d4PQVs0wyGxUuCLYrAEBUEEAA5ERDyE91uMy1/qR2vlzQmRASNzvTIhPnpaSqxqn8txpATg64JQBARBBAAORMQ8idOgxzrTeT0od096WMXdNjZWudyPiqlHyyzan8PA0hPw+4JQBABBBAAARCQ8gkHUa41u/TzJdhvXxpQgiJlXU7MxsVrt3pVM5GhQAQQwQQAIHREHKzDhNd680eIWavELNnCOJjyTaRcVXOGxUSQgAgZgggAAKlIcRcLD7lWm92Sx9ZmZbWZcH1hMKbuVlk8vyU60aFP9EQMjTglgAABUIAARA4DSHf0WGaHk73MjpoCLm5d1raNAq2LxTWO2s9eXyx89fOPRpCbgiyHwBAYRBAAIRCQ8iRkgkhbV3qW2p0GVWZlq5Ngu0LhfWrlZ78YrnzV89EDSGjg+wHAJB/BBAAodEQ8k3JhJCuLvUVZSIje6elCyEkVh5b7Mm7a52/fkZoCLk9yH4AAPlFAAEQKg0hPXR4UI9TXOrLS0Ru0hDSpzzYvlA4ZhrIA4s8+ct656+gCzWEPBtgSwCAPCKAAMgLDSLf1+G/XWrN0rzDeqVln2YBN4WCqdMUcvcCTz7e5Pw1dLaGkKlB9gQAyA8CCIC80RBi/tX6By61TUtEhmsI6b9XwE2hYMxGhWa39IVbnV/iBA0hbwbYEgAgDwggAPJKQ8hPdbjMpbZUz1jX9PTl4BZua7kiekwImaAhZJFbCNmsxxEaQj4OtisAQJgIIADyTkPI/ToMcakt07PWtRpCDiSExMaaHSK3Vjnvlv5HDSBHBNwSACBEBBAABaEh5D4drnGpNSeuK7v7cmQFISQuVpoQMjclG2qdyq/SEPJowC0BAEJCAAFQMBpCJuhwi0utOXld3s2Xo1sTQuJiyTaRcVUpqalzKn9VQ8jpAbcEAAgBAQRAQWkI+bEOo1zrf9DZl/9qRwiJi6oakR/PS8mOtFM5IQQAigABBEDBaQi5SYfJrvUXd/Hl+LaEkLiYvsGT+xZ64viOEkIAIOIIIAAiQUPIUB2muNZ/v5Mvp7YnhMTFn9Z58tAnziHkJQ0h3wu2IwBAUAggACJDQ8gNOtzlWk8IiZc3V3vy1FLnr6lpGkLODLIfAEAwCCAAIkVDyCU6POlaTwiJl5dWePJKtfNX1YsaQr4fZD8AgNwRQABEjoaQy3V4zLWeOSHxYu6CmLshjngcCwAihgACIJI0hJiJxNNc6wkh8fLEEk/eXsOdEACIAwIIgMjSEPIdyYSQUpf6szv6cloHQkhc5HgnhBACABFBAAEQaRpCjpZMCGntUk8IiZcnl3jylvudkBc0hJwfZD8AAHsEEACRpyHkeMmEkGYu9YSQeOFxLAAobgQQAEVBQ8i3JBNCOrvUX9TFlxOYExILdfo2PrDIkw82OH+F/beGkHOD7AkAkD0CCICikWsI4U5IfJh30WxUaDYsdMQ+IQBQIAQQAEUl1xDC6ljxUatv45SFnny0kRACAMWEAAKg6OQ6J+SHXX05rg0hJA7M41g/WeTJX90fx3pVQ8jpQfYEANgzAgiAopRrCLmimy9HtyaExIG5E3LfQk/+5n4n5EINIc8G2RMAYPcIIACKloaQb0omhHS1rTUnvyE9fPl2K0JIHATwONabegzWIDI3wLYAALtAAAFQ1HIJIWV6BhzWy5f9mhNC4mB7WuSO+SmZtcX5JVbqcYaGkD8G1xUA4IsIIACKXi4hpLQhhOxPCImFAB7HMiHkYg0hvw2wLQDAZxBAAMSChpDjJBNCWtjWNi0RGdU7Lb3Lg+8L+bczLTJlkSf/5x5CtklmXsjUANsCADQggACIjVzuhBBC4sXcz3r0E0/+4L5PiHGehpCfB9QSAKABAQRArOSyOlbzUpHRlWnp0iT4vpB/JoT8dLEn767N6avuBxpCng+oJQCAEEAAxJCGkBMlE0Ks72e0MCGkT1o6Nw6+LxTGs8s8+d2qnL7urtEQcn9Q/QBA0hFAAMSShpDvSCaElNrWtm8kMkZDSEVZ8H2hMJ5Z6snrq3P6yrtNQ8jNQfUDAElGAAEQWxpCztXhBZdacwfEhJDm1vEFUfWL5Z78amVOX3sPaQgZHFQ/AJBUBBAAsaYhxFwwPuBS27WJyFgNIeUlATeFgnltlScvLMvpq+8pDSGXBNUPACQRAQRA7GkIuVqHh1xq+5SLjKpMS+NUwE2hYN5e48mTSzzJYeeXszSEvBxcRwCQLAQQAImgIcQ8vz/RpfagFr5c19OXEs6YsfGndZ48stiTOvcU8ks9BmsQWRpcVwCQDHydAkiMXELI4RW+DOrObulx8pf1njz0SU4hZKEeZ2gI+SiwpgAgAQggABJFQ8iPdRjlUvvdDr58ryMhJE4+0BDyoIaQ2txCyCg2LASA7BFAACSOhpBJOoxwqb2wiy8ntiWExMmMzZ7cu9CTrXU5vcwmPR7W48caRjYG0hgAxBQBBEAiaQh5UIdBLrWXdfPlmNaEkDhZuk1k8vyUrN2Z80stl8zckFdy7woA4okAAiCxNIT8VIfLbOvMifOaHr4MaEUIiZN1Gj7u0BDyybZAXm68ZO6G7Ajk1QAgRgggABJNQ8jPdLjYtq5Uz57De/myX3NCSJzU1InctSAls7cE8nILJHM35LeBvBoAxAQBBEDiaQh5XofzbOvMBoVmo0KzYSHiY1ta5N4Fnvxjc2BfkRdrCHk6qBcDgGJHAAEAqQ8hl+rwuG1dRVkmhLRrFEJTKBizKtYjn3jy5/WBfU3eoSHkpqBeDACKGQEEABpoCPlfHY62rTPhY3zftLQoDb4nFNa0ak9eXhHYV+VTGkIuCerFAKBYEUAAoIEGkH11eE+PVra1vctFbqlMS+NU8H2hsN5Y7ckzSz0JaLbPeewZAiDpCCAA8BkaQo7RYZo4hJABLX25pqfPiTWGfr/Wk8eX5LRr+meZSelmcvqCQF4NAIoM35MA8AUaQk6RTAixntlxUjtfLujMylhxVL1d5P0NnkzXY35Nzi+3TI8zNIS8n3tnAFBcCCAAsAsaQs7X4TmX2h9oAPmvdoSQOPt4kydPL/XqQ0kOTAgZxQpZAJKGAAIAu6EhZLAOD9jWsVFhMpiVsqau8OQ3K3P+Kh2iIeTBIHoCgGJAAAGAPdAQMkGHW2zryvTsOqoyLf32CqEpRMpfN3jyyGJPttbl9DK3aggZF1BLABBpBBAA+AoaQu7V4VrbumYlelXZNy2dGofQFCJl+XaRuxek6sccTNYQMjKglgAgsgggAJAFDSGP6nCFbZ3ZqNDsEdK6LISmECk1dSL3LPRkZm47qLNhIYDYI4AAQJY0hJhN5J60revaJLNbenlJCE0hUsy8kEcXe/KndTl9vf5EQ8jQoHoCgKghgACABQ0hb+twjG3dgS18ub6nLyWcdWPPLD1gVsh6c3VOb/YUDSHXBdQSAEQKX4UAYEEDyD6S2S29tW3tcW18+WFXVsZKil+t9OQXy3P6mn1AQ8iPguoHAKKCAAIAljSEHC2ZjQqtQ8i5nXwZ2J4QkhRmhawHFnmy0/0tf0pDyCUBtgQABUcAAQAHrhsVmpPu8N6+HNCcEJIU/9jkyb0LPdmWdn4JQgiAWCGAAIAjDSHDdbjDtq5JKjMpvXvTEJpCJC3aKjJpfko21Tq/BCEEQGwQQAAgBxpCbtfhRts6szzvhL7p+hHJsGy7yG3zUrJup/NLEEIAxAIBBABypCHkfh2G2Nb1bCoypk9aGqdCaAqRtLwhhKx1DyHPaAi5KMCWACDvCCAAEADXOSEDWvoytCfzQZJkzQ6RiRpCVu5wfglCCICiRgABgIBoCPmdDifa1rEyVvKs0vDxYw0hq9xDCI9jAShaBBAACIgGkErJ7BHS0abOnIiv6+XLwS0IIUliHsMyj2OZx7IcPaYh5MoAWwKAvCCAAECANIQcKpk9QqxCSJmejUf3SUtleTh9IZpq6jKrY82vcX4J7oQAKDoEEAAImIYQ86/Sj9jWtSwVmdgvLa1ZGStRTAi5XUNIlXsIeVxDyOUBtgQAoSKAAEAINISM02GMbV2fcpFbKtNSxspYiRLAnZCHNIQMDrAlAAgNAQQAQuK6MtbhFb4M6s58kKQxIcRMTF+41fklmBMCoCgQQAAgRKyMBRtbG+6EzHO/E0IIARB5BBAACFEuK2MN6+XLgayMlTgBhJCfaAgZGmBLABAoAggAhMx1ZazyEpGJfdPSoXE4fSG6ApgTQggBEFkEEADIAw0hZqnUJ23rejYVubUPk9KTaGNtZsf0pducX2KihpDRAbYEAIEggABAnmgIGanDbbZ1h7T05bqePIqVRAFMTCeEAIgcAggA5JHrylhMSk+uTQ13Qpa43wm5VUPIuABbAoCcEEAAIM9cVsYq0bP1yN5p2adZSE0h0tbtFJmgIaR6u/NLDNEQ8mCALQGAMwIIAOSZ68pYTEpPtgDmhBBCAEQCAQQACsB1ZazOGj7GawhpWhJOX4g2E0ImVKVkmfudkB9qCPlZgC0BgDUCCAAUiIaQy3V4zLaOndKTbc0OkVs1hKzd6fwSP9AQ8nyALQGAFQIIABSQ66T073fy5VQmpSeWCSHj5qXqR0cnaAh5M8CWACBrBBAAKDDXSek3V6al/14hNYXIM6timcexNtc5lW/W47saQt4KtisA+GoEEAAoMNdJ6S1KRW7rl5aKsnD6QvTlGEI26vGfGkKmB9sVAOwZAQQAIsB1Uvree4mMqkzX3xFBMi3amlkdq8YthCzR4wgNIYuC7QoAdo+vLACICA0hQ3WYYlt3egdfzurIfJAk+8cmT+5a4MlOt4/BaxpABgbcEgDsFgEEACJEQ8i5OrxgW3d9L18ObkEISbIcQ8g5GkJ+EXBLALBLBBAAiBgNIf+jw3/Z1JhNCs18kHaNQmoKReHDjZ7ct9CTOrcQ8pKGkO8F3BIAfAkBBAAiRgNIL8lMSu9sU9e7XGRsn7SUcmZPtA/We/KTRZ443g/7bw0h5wbbEQB8Hl9TABBBGkK+JZlJ6VYh5JR2vpzXmUexku7N1Z48tdT5K/4ZDSEXBdkPAHwWAQQAIkpDyA063GVbN7SHLwNaEUKS7g0NIU+7h5BHNIRcHWQ/APApAggARJiGkAk63GJT0yQlMqFfWjo3DqkpFI1fVnvy4grnr/oHNIT8KMh+AMAggABAhGkAaaLDLD162NQxHwSfenaZJ79b5fxBuEtDyPAg+wEAvpoAIOI0hJyiw29s645p7ctl3XgUCzmHkFEaQiYF2Q+AZCOAAEAR0BByiQ5P2tZd29OXb7YkhCSd+QSY5Xmnb3D+2h+hIeT2AFsCkGAEEAAoEhpCRusw3qamaYnIJPYHgTJ7g9yrIeSjjc5f/UM0hDwYZE8AkokAAgBFQgNISjLzQfra1FU2zAcp4YyfeDvTIpPnp2TWFueXOFtDyNQAWwKQQHwdAUAR0RByvA5v2Nad3sGXszryKBZEttaJTJyXkoVbnV/iJA0hrwfYEoCEIYAAQJHREHK+Ds/Z1Ji7H+YuiLkbAqyvFRk3NyUrdziV1+hxhIaQj4LtCkBSEEAAoAhpCBmrw602Na3LRCb1T0uzknB6QnFZu1NkfFVKVrmFkD9rADks4JYAJAQBBACKkAaQUsnMB6m0qTMrYpmVsQCjerumWA0hG2udygdpCHk44JYAJAAB5P+3d99hVlXn4sfffWaGJiC9CwMzBLkmv8SbxFhQrhpjLFFjjYpdEcVgQ0TaACqo2LCjaLBHjV7NtcTYYtRoYnITrxqDzNCLAoK0oc7Zv3fNxig6A7PWrH3KPt/P85xn3T9Y45vkyOzvPWfvBQB5SiPkYF1+Z7tvaM9Q9m5LhCBSVS0yqSolG9JO23+jEXKc55EAJBwBAgB5TCPkFF0esNnTJKUXnN9KS9emMQ2FvFOpEXK1Rsgmtwj5tUbIiZ5HApBgBAgA5DmNkHt0OdtmT2lzkQl901LMbwFs9cGaQKbMCWSL24djD2iEnOZ5JAAJxa8eAMhzGiClEt0PYvWZxuGdQjmxK1/Fwpf+tDKQO+YH4viuuFkj5GK/EwFIIgIEABJAI+QsXabb7DG/AEb2CeXbrYgQfOmVzwK5b6Hz5cH1GiGX+ZwHQPIQIACQEBohl+tyjc2e9k1Erv1WWprzaF58xeNLAnlmqfMlwnCNkBt8zgMgWQgQAEgQjZAPdNnNZs++bUMZ0pNPQbAt8ymI+TTE0TCNkFt9zgMgOQgQAEgQDZCBuvzBdt8ve4WyZxsiBNuatiCQP65wvlQ4SiPkGZ/zAEgGAgQAEkYjxJzL8LjNnlbFItf0S0ub4piGQl6q0Sa9cW4g/1jtdLlgHup7qEbIi57HApDnCBAASCCNEPMd/Ets9uzeOpThvfkUBNvarBkxeXZKZq5z2l6trwEaIX/3OxWAfEaAAEACaYC0k+jRvB1t9p27Syj7tSNCsK31NSITK1Myf4PT9rc1QPb2PBKAPEaAAEBCuXwVq0WRyHX90tK2JKahkLeWbRKZoBGycrPT9vM1Qu70PBKAPEWAAECCaYSM1uUqmz27tQxlVBmfguCbPt0oMl4jZPUWp+2Pa4Sc4HkkAHmIAAGAhNMIMV/F6mez56weoRzQngjBN5l7QSZXpWSz29tjhkbIGZ5HApBnCBAASDgNkAN1edlmT5OUyKRvpaVr05iGQl77cG0g180OZItbhEzXCDnH80gA8ggBAgAFQCPkYl1utNmz604iY8rT/KJAncz5IOacEEc3aoRc6nMeAPmD3ysAUCA0Qv5Xl91t9pzQNZQjOvFVLNTNnJRuTkx3NEYj5Gqf8wDIDwQIABQIDZC9dHlTX6mG7inR3xKT+qWlG1/FQj0eWRzIc8ucLyeGaYTc6nMeALmPAAGAAqIRMlSX22z2dGoiMqFvWlpzSjrqcf+iQH6/3PmS4nCNkOd8zgMgtxEgAFBgNELe0eVHNnvKWoiMLktL0wZ/doJCYr6kd8vcQP6yyumyYpO+9tMI+bPfqQDkKgIEAAqMBsj3JfoqVjObfXvsHMqw0pBfHKiTeSLW9XMCeX+N0ztksb4GaITM8TwWgBzE7xEAKEAaISfq8ojtvmO6hHJ0Z25KR92qa6LT0hducNr+ggbIoZ5HApCDCBAAKFAaIc/rcojtvjN7hHIghxSiHmu2iFRohJhT0x2cpBHyqOeRAOQYAgQACpQGSG+JvorVzWZfkf7muKx3KN9pRYSgbks3aYTMSsnqLU7bH9AIOc3zSAByCAECAAVMI8TcjP6UWEZIs5ReYJanpWfzeOZC/ptdLXJ1VUo2pJ2236URcp7nkQDkCAIEAAqcRshkXUba7mtbIjKxb1ralcQwFBLhw7WBXDc7qL1B3cH1GiGXeR4JQA4gQAAAJkKO0eU3tvvKW4iMKUtLCY/nRT1eWxHI9AWclg7gSwQIAKCWRsjTuhxpu+97rUO5pDSsvTcEqMtvlwby2BLnN8hgjZB7fM4DILv4dQEAqKUB0l2im9JLbfce0D6Us3pwUzrq9+DiQH63zPmy41iNkCd9zgMgewgQAMC/aYTsLtFN6aW2e0/tHsrBHYgQ1O+O+YG8tdL50sOclv6Gz3kAZAcBAgDYhkbIwRJFSAubfeYXykWlofxgZyIEdTM3o0+ZHcgHa50uP97XAPl/vmcCkHkECADgGzRCzCNQ77DdV6K/VcaUp2tvTgfqsr5G5MqqlMxb77R9hEbIFM8jAcgwAgQAUCeNkAm6jLPdt3OxXmD2TUv7JjEMhUT4fIvI+FkpWbbJafuvNUJO9DwSgAwiQAAA9dIIuVWXC2z3dW+mF5jlaWlRFMNQSIRPN+p7pNL5tPT7NELO8jwSgAwhQAAA26URYi70ptvu698ylJF9QinmNw3q0cjT0q/TCLnc80gAMoBfCwCAHdII+YMuA2337dculHN34aZ01O8fqwO5cW4gNW5vk3EaIVd6HglAzAgQAMAOaYDsJtEZIW1s9x7fJZQjOxMhqN+bKwO5c77zJckQjZBpPucBEC8CBADQIBoh+0v0eF6rCDG/aC4sDeWHPJ4X2/HEJ4E8/anzZcnxGiFP+JwHQHwIEABAg2mEnKbLDNt95j6QkX3S0r+l/5mQHPcvCuT3y50vTf5TI+TvPucBEA8CBABgRSPE3Ph7je2+lkUi4/umpWvTGIZCIpjPyKbODeTdVU6XJ3P1NUAjZJHXoQB4R4AAAKxphEzVZZjtvk5NRCZohLQujmEoJMLmtMik2Sn5eJ3T9mc0QI7yPBIAzwgQAIATjZATdPm17b5+O4lc0SctJakYhkIirK2JDipcstFp+7EaIU96HgmARwQIAMCZRsizuhxmu2/ftqEM6clN6aifiY8JlSlZ43ZQ4R0aIUM9jwTAEwIEAOBMA6SXRI/n7WG798hOoRzflQhB/eauF7my0vmgwhs1Qi71PBIADwgQAECjaIT8UKLH81pHyJk9QjmwPRGC+r23JpAb5jgfVDhGI+RqzyMBaCQCBADQaBohp+jygO2+Iv0tNKJ3KN9uRYSgfn9aGcjt7gcVDtYIucfnPAAahwABAHihEXKhLjfb7mteJDKuLC09m8cwFBLjqU8DefIT58uWAzRCXvM5DwB3BAgAwBuNkGt1GWG7r22JyMS+aWlXEsNQSIwZiwJ5ye2gws8lOiPkQ88jAXBAgAAAvNIImabLYNt9pc1FxpanpRmP50U9zBf1bp4byF/dDip8XQPkv7wOBMAJAQIA8E4j5Dxd7rDd973WoQzvHfLLCfUyBxVeVZWSymqn7WdrhNzreSQAlvg7HgAQC42QP+myl+2+wzuFciKP58V2rNwsUlGZks82OW2/TyPkLM8jAbBAgAAAYqEBsrtEZ4S0sN17avdQDu5AhKB+SzU+KmalZLXbQYXXaYRc7nkkAA1EgAAAYqMRcrBEZ4RYRYj55XRRaSg/2JkIQf1mV4tcWZWSTW4HFY7TCLnS80gAGoAAAQDESiNkqC632e4rCaKb0susPz9BIfnH6kBunOt8UCFnhABZQIAAAGKnETJBl3G2+9ptfTxvWx7Pi+14cXkgDyxyvqQ5VCPkBZ/zANg+AgQAkBEaIbfqcoHtvl7NtVx4PC924MHFgfxumdNlzQaJzgj5m+eRANSDAAEAZIxGiHn60HTbfbvuJHJFWVqK+a2F7bhjfiBvrXR6k/xZA2RP3/MAqBt/lQMAMkoj5A+6DLTdt1ebUC7oxU3pqN8WfXtcNzuQD9c6Xd5coBFyu++ZAHwTAQIAyCgNkN0kejxvG9u9P+8cyrFdiBDUb22NyIRZKVm80Wk7Z4QAGUCAAAAyTiNkf4kez2sdIUN7hrJ3WyIE9Vui8TFeI8TEiIMbNUIu9TwSgK8gQAAAWaERcpouM2z3Felvrst6h/KdVkQI6jd3vciESuczQkZphEz2PBKArQgQAEDWaIRcocsk233miVjmyVjmCVlAfcwZIdfPCcQxVQdphDzsdyIABgECAMgqjRBz4+/5tvvabj0jpB1nhGA7Xv0skHsXOl/u7KcR8obPeQAQIACAHKAR8qAug2z3dW8mMr48LS2KYhgKidGIM0KWS3RGyEzPIwEFjQABAOQEjZDLdbnGdl//lqGM7BNyRgjqZb6CNXVuIO+ucnqTvKIB8mPPIwEFjb+uAQA5QyPkA112s923X7tQzt2Fm9JRv81pkUmzU/LxOqftp2uE3O95JKBgESAAgJyhAWIOKPyDy95juoRydGciBPUzj+U1j+dd4nZGyB0aIUM9jwQUJAIEAJBTNEKO0+Vxl71DeoayL2eEYDuWbhKp0AhZvcVp+3iNkAmeRwIKDgECAMg5GiHn6XKH7T5zRsiI3qF8mzNCsB1V1SJXVTmfEXKqRsiDnkcCCgoBAgDISRohFbqMt93XvEhkXFlaenJGCLbjL58Hcss85zNCDtAIec3vREDhIEAAADlLI+RWXS6w3ccZIWiI55cF8vBip0uhzyV6PO+HnkcCCgIBAgDIaRohx+jyG9t9ZS1ERpelpWkqhqGQGNMXBPLaCqfLodc1QP7L7zRAYSBAAAA5TyPkaV2OtN333VahXNo7rL03BKiL+QrWjXMC+d/VTm+SszVC7vU8EpB4/JUMAMh5GiDddXlTX6W2ewe2C2UwZ4RgOzakRSZWpmTeeqftPJ4XsESAAADygkbI7ro8JQ4RcnyXUI7kjBBsx8rNIuNmpWTFZqftPJ4XsECAAADyhkbIzyWKEGucEYIdMZ+AmE9CNrg9nneIRsg0zyMBiUSAAADyikaI+brLbbb7SvQ33qiytHxrpxiGQmK8uyqQqXN5PC8QJwIEAJB3NELM113G2e4zZ4SML09Lj2YxDIXEeHF5IA8s4vG8QFwIEABAXnI9I6RjE42QvmlpUxzDUEiM+zVAfr+cx/MCcSBAAAB5SyPkBF1+bbuvtLnI2PK0NOOMENSDx/MC8SFAAAB5TSPkWV0Os93HGSHYkUY+nvdmjZCLPY8EJAJ/7QIA8poGSC+JzgjpYbt3/3ahnM0ZIdgOHs8L+EeAAADynkbIDyV6PK91hJzYNZTDOxEhqF8jH887WCPkHs8jAXmNAAEAJEJjzgg5r2coAzgjBNvx3ppApsx2fjyveTLWW34nAvIXAQIASAyNkMt0uc52X7H+NhzRJ5TdWhIhqF8jHs+7VKIImeV5JCAvESAAgETRCLlSlzG2+1oWiVT0TUu3pjEMhcRoxON5X9IA+YnveYB8RIAAABJHI+ROXYbY7jNnhEzUCGnNGSGoRyMfz3uqRsiDnkcC8g4BAgBIJI2Qk3V5yHbft3YSGdUnLSWcEYJ6rK8RqahMyaINTtt5PC8KHgECAEgsjZDf6XKw7b49dg5lWGnIL0nUa9mm6PG8q7c4bR+uEXKD55GAvMHfrQCAxNIAKZPojJAutnsPaB/KWT24KR31M4/nHV+Zkk1uj+c9SSPkUc8jAXmBAAEAJJpGyF4SPZ7XOkJO7hbKoR2JENTvH6sDuX6O8+N5f6wR8orfiYDcR4AAABJPI+QYXX7jsndoz1D25owQbMdzywJ5ZLHTJdVMDZBdfc8D5DoCBABQEDRCfqnLLbb7mqRExpSlpaxFDEMhMe6YH8hbK50uq8ZohFztex4glxEgAICCoREyWZeRtvvMY3kn9E1LpyYxDIVE2BKKTKpKycx1Ttuna4Sc43kkIGcRIACAgqIRMk2Xwbb7zBkh4zVC2nBGCOrRyMfzTtIIGe15JCAnESAAgIKjEXKaLjNs95U2FxlbnpZmnBGCepjH846dlZI1bo/nPV8j5E7PIwE5hwABABQkjZCXdTnQdt93W4Vyae9QivgNinqYr2GZr2NtcXt2AU/GQuLx1ycAoCBpgPST6IyQDrZ7B7YLZfAuPBkL9Xvn80Buned0mbVaXwM0Qt73PBKQMwgQAEDB0gjZV6IzQqwj5JguoRzdmQhB/R5fEsgzS50utd7QANnP9zxAriBAAAAFTSPkOF0ed9lrPgUxn4YA9bl9fiB/cns872CNkHt8zwPkAgIEAFDwNEKu0GWS7T5zH4i5H8TcFwLUZXNa5KqqlFRWO22/TiPkcs8jAVlHgAAAILURcoMul9juM0/EMk/GMk/IAupinog1blZKlm5y2n6BRsjtnkcCsooAAQBgK40Q8wjUIbb7dt56UGFHDipEPczZIOaMEHNWiIO9NULe9jwSkDUECAAAX6ERcowuv7Hd162pXmBqhLQsimEoJML7awKZMieQGvtv7H0i0ZOxqvxPBWQeAQIAwNdohDyty5G2+/rtJHJFn7SUcFAh6vH75YHcv8jp8utFDZCf+p4HyAYCBACAr9EA6S7RGSGltnv3bhvK0J7clI763b0gkNdXOF2CDdIIedj3PECmESAAANRBI2R3ic4IKbXd+9OOoZzSjQhB3cxXsK6dHciHa50uw67RCLnC90xAJhEgAADUQyPkZxJFSLHt3kEaIId0JEJQt+oakTGzUvLpRqftQzRCpnkeCcgYAgQAgO3QCDlXl7tc9pqvYpmvZAF1WbIxejxvNU/GQoEhQAAA2AGNkLG6TLTdV6y/ZUf0CWW3lkQI6vbBmkCu48lYKDAECAAADaARcpMuF9nua2XOCClPS+emMQyFRHh2aSCPLuHJWCgcBAgAAA2kEXKvLmfa7mtXEh1UaFagLvcuDOTVz3gyFgoDAQIAgAWNkDN0uc92X49mIuPL09KcgwpRB/MVrMmzA/nI7clYYzRCrvY9ExAXAgQAAEsaIa/qsr/tPnMviLknpJjfvqjD2propnTHJ2OdrhFyv+eRgFjwVyAAAJY0QPpLdFBhO9u9HFSI7Vm89clY692ejHWoRsgLnkcCvCNAAABwoBEyUKIzQqwj5OedQzm2CxGCur23JpApswNxeIfM0deuGiGbvA8FeESAAADgSCPkOF0ed9l7evdQDupAhKBujXgy1kQNkArf8wA+ESAAADSCRsgvdbnFdp/5BXxx71C+35oIQd2mLwjktRVOl2qTNEJG+54H8IUAAQCgkTRCpugy3HZfk5TI6LK0lLeIYSjkPfNkrElVKfnXOqft52uE3Ol5JMALAgQAAA80Qm7V5QLbfRxUiO1ZvUVkzKyUfOZ2V8feGiFvex4JaDQCBAAATzRCzGNQT7XdZ84IqdAIacEZIajD7GqRiZUp2Wz/bb1P9DVAI6TK/1SAOwIEAACPNELO1eUu231lLaKvYzVNxTAU8t5fVwVy01yny7YXNUB+6nseoDEIEAAAPNMIMWeE7GO7b/fWoVzaO+SXM+r0xCeBPP2p07tjkEbIw77nAVzxdxwAAJ5pgHxXooMKW9ruPbxTKCd25clY+Cbzrrh2diDvr3G6fBuuEXKD55EAJwQIAAAx0Ag5SKKDCq0j5ORuoRzakQjBN21IRyelL9rgtP0nGiEveR4JsEaAAAAQE42QM3S5z3af+eV8UWkoP9iZCME3mfgwEWJixNJaiW5Kf8//VEDDESAAAMRII+RyXa6x3Vesv6FH9Allt5ZECL7JfA3LfB3L4d3xlgbIAP8TAQ1HgAAAEDPXgwqbF4mMK0tLz+YxDIW89+zSQB5d4nQpN0QjZJrveYCGIkAAAMgAjZBf6XK67b5OTUQm9E1L62L/MyH/mUfzmkf0OhipEXKt73mAhiBAAADIEI2Q03SZYbuPgwpRn81pkYlVqdrDCh1wUzqyggABACCDNEJe1uVA2339W4Yysk9Ye28I8FWfbRIZMyslq7dYb+WmdGQFf40BAJBBGiD9JDojpIPt3r3ahDK0FwcV4ptmrhOZVJWSLfZ3pXNTOjKOv8MAAMgwjZB9JTojxDpCDusYykndeDIWvuml5YHMWMRN6ch9BAgAAFngej+IMUgD5BAOKkQdpi8I5LUVTpd3F2iE3O57HqAuBAgAAFmiEfJLXW6x3Wd+eQ/rFcoebYgQbKtG3xJXV6Vqv5Ll4AcaIX/zPBLwDQQIAABZpBEyQZdxtvtK9Df4mPK0lLeIYSjktRWbRUZ/7HRT+nyJbkpf4H8q4EsECAAAWaYRYr5/P9h2HwcVoj6V1SJXVjrdlP4/GiBHxDAS8G8ECAAAOcD1oMK2JSITytPSvon/mZDfGnFT+vEaIU/4ngf4AgECAECO0Ag5Q5f7bPd1byYynoMKUYdpCwL5o9tN6SdphDzqex7AIEAAAMghGiGv6rK/7b5ddxIZ2SctJakYhkLeMielj69Mydz1Ttt/rBHyiueRAAIEAIBcogHSX6KDCtvZ7t2nbSjn9+TJWNjWpxtFRs9Kyfoa660zNUB2jWEkFDgCBACAHKMRMlCigwqtI+TA9qGc2YMIwbY+WBPINbMDcXhnjNEIudr/RChkBAgAADlII+RkXR5y2WtOSj+MgwrxNU9/GsgTnzhd+o3SCJnsex4ULgIEAIAcpRFyuS7XuOwd0jOUfdsSIdjWzXMDeXeV0+XfARohr/meB4WJAAEAIIe5HlRYpL/hR/QO5dutiBB8aUNaZOzHKVm80Xrr5xIdUvih/6lQaAgQAABynEbIVF2G2e4zBxWOLUtLLw4qxFeY+BjndlP66xog/+V9IBQcAgQAgDzAQYXw6Z3PA7l1ntNl4NkaIff6ngeFhQABACBPaIScossDtvu6NRWp6JuWlhxUiK94cHEgv1vmdCl4kUbIVN/zoHAQIAAA5BGNkN/rcpDtvrIWIqPL0tKUgwqxVU0oMnl2IB+tdbocNPeDvOV7JhQGAgQAgDyiAdJXooMKO9nu3atNKEN7hfzyx7+t3Kxh+nFKVm2x3rpUogiZ5X8qJB1/BwEAkGc0QvaR6KBC6wg5oH0oZ3FQIb6iqlpkYmVKtti/LV7SAPlJDCMh4QgQAADykEbIzyWKEGuDuoVyCAcV4iteXB7IA4ucLgtP1Qh50Pc8SDYCBACAPKURMlSX21z2nrtLKPu1I0LwpekLAnlthdOl4XCNkBt8z4PkIkAAAMhjGiEVuoy33VesVwAj+6Slf0v/MyE/bUzrG2lWSuZvcNr+E42QlzyPhIQiQAAAyHOuBxU2S4mMLU9LKQcVYqsVm0VGfZySNfY3pa+V6Kb09/xPhaQhQAAASACNEHM43Jm2+1oVRwcVdm4aw1DISx+tNY/nTdU+ptfSWxogA2IYCQlDgAAAkBAaIWfocp/tvk5NNEL6pqV1cQxDIS89tyyQRxY7XSYO0QiZ5nseJAsBAgBAgmiEvKrL/rb7+rQQGcNBhfiKW+cF8s7nTpeKkzRCRvueB8lBgAAAkCAaIP0lOqiwne3ePXYOZVgpBxUisr5GZNyslCze6LT9JI2QRz2PhITg7xgAABJGI2SgRGeEWEfIwR1CObU7j+dFZMnGKEKqa5y276kR8mfPIyEBCBAAABJII+RIiSLE+ktVx3UJ5ajORAgiM9eJTKpyOil9sURPxprjfyrkMwIEAICE0gi5UJebXfYO3iWUgRxUiK1eWh7IDLeT0l/QADnU9zzIbwQIAAAJphEyVpeJtvvMBcLFvUP5fmsiBJH7FgbyymdOl47cD4JtECAAACScRsgUXYbb7mteJDK2LC29OKgQynwF6+qqlHy8zmn7NRohV3geCXmKAAEAoABohJizGQbb7tu5ODojpGOTGIZC3vl8i0bpx6naE9MdDNcIucHzSMhDBAgAAAVCI+Q4XR633WcOKqzQCGnDQYVQizbo+6EyVfuYXge/0Ah5zPNIyDMECAAABUQj5Le6/Mx2X3kLkVEcVIitzAGF5qBCRwdohLzmcx7kFwIEAIACogGyi0QHFfa03du/ZSgj+4RSzNUD1G+XBvLYEqc3w0caIP/hex7kD/4KAQCgwGiEfF+iM0KsI2SvNqEM7cVp6YjcuzCQV92ejDVKI2Sy73mQH/j7AwCAAqQRYr6GZSLE+s6OwzqGclI3Hs8LkRp9G1w7O5AP1zpdUj6kEXKK75mQ+wgQAAAKlEbIGbrc57L3ZA2QQzsSIRBZWyMyflZKlmx02n6HRshQzyMhxxEgAAAUMI2QCl3G2+4zFxAXlobyw52JEIgs1vio0Aipdnsy1niNkAmeR0IOI0AAAChwGiE36XKR7b4ivYq4rHco32lFhEBk5jqRSVWp2gMLHVyiEXKT55GQowgQAABgIuROXYbY7muWEhlbnpZSTkuHevvzQG5zfzzvSRohj/qcB7mJAAEAALU0Qh7W5STbfW1LRCZohLTntHSoRxYH8twy50vMPTVC/uxzHuQeAgQAAPybRshpusyw3WdOS5/QNy2tOS0d6q75gbyx0ukyc7G+BmiEzPE8EnIIAQIAALahEfKyLgfa7uvTQmR0Wbr2a1kobObxvFPmBPL+GqdLzRc0QA71PRNyBwECAAC2oQHST6LT0jvY7t2tZSgjOC0dakNaZGJlSuatd9rO/SAJxl8PAADgGzRC9pXooELrCNm7bShDe/JkLIis3CxSoRHy2San7b/WCDnR80jIAQQIAACok0aIOaX6AZe9P+8cyrFdiBBI7ScgV1alZL3bGSHTNULO8TwSsowAAQAA9dIIOU+XO1z2DuoWyiGclg71r3Ui12iEbHZ7O9ysEXKx55GQRQQIAADYLo2QsbpMdNl7Xs9QBrQlQiDyztYzQhzfDddrhFzmdyJkCwECAAB2SCNkqi7DbPeV6JXGFWVp6bdTDEMh7/x2aSCPLXG+/LxKI2Ssz3mQHQQIAABoEI2QaboMtt1nHss7rjwtvTgtHcoEiAkRR6M0Qib7nAeZR4AAAIAG0wh5UJdBtvtaFUenpXduGsNQyDt3Lwjk9RXOl6EXaYRM9TkPMosAAQAAVjRCztDlPtt9nJaOL5j7QKbODeTdVc6XoqdqhDzocSRkEAECAACsaYS8qsv+tvs4LR1f2JwWmTw7JTPXOf+IozVC/tvjSMgQAgQAAFjTAOkv0Wnp7Wz3/mDnUC4qDbkIgazZIjKhMiVLNjr/iMM1Qp7zOBIygH/3AQCAE42QgRKdlm4dIQe0D+WsHjyeFyLLNkURYk5Nd2DOWP8Fn4TkFwIEAAA40wg5RpffuOw9olMoJ3QlQiDy6cYoQlZtcf4RR2iE/I/HkRAjAgQAADSKRsilulzvspfT0vGFhRtErtQIWVvjtN2ky9FESH4gQAAAQKNphFToMt52n7kQGdYrlD3aECEQqaoWmVSVkg1pp+0mQo7inpDcR4AAAAAvNEKm6DLcdl+xXo1c1juUb7ciQiDy0VqRa2enZLPb28HcE7KfRsif/U4FnwgQAADgjetp6S2LRCr6pqUbBxVCmfNBbp0XSI1bhCzW10kaIa/7nQq+ECAAAMAr19PS2zeJTktvWxLDUMg7b6wMZNr8QBw/F1sh0dex3vA6FLwgQAAAgHeup6X3aCZSoRHSoiiGoZB3XlsRyPQFzperyyWKkLc8jgQPCBAAABAL19PSy7aelt6U09Ihjf4kZKm+BmiEzPI6FBqFAAEAALFozGnp32sdyiWloRRxpQL1+opA7lngHCGfSPSI3re9DgVn/GsNAABi05jT0vdpG8r5PXkyFiImQu52/zqWiZBj+TpWbiBAAABArDRCTtblIZe9R3UO5bguRAgijbwnxHwd61SNkBc9jgQHBAgAAIidRshQXW5z2Tt4l1AGtiNCEPnt0kAeW+J8CVutr+M5rDC7CBAAAJARGiGTdRlpu4/T0vF1LywL5KHFzpex5rBC80nIYx5HggUCBAAAZIxGyO26nG+7j9PS8XXPa4Q87B4hhrkx/b99zYOGI0AAAEBGaYT8SpfTbfc1LxIZU5aW0ub+Z0J+ek4j5JHGRcjZGiH3+poHDUOAAACAjNMIeViXk2z3tSsRGV+erj01HTAeXRLIs0sbdUk7RCNkmq95sGMECAAAyAqNkAt1udl2XyeNj4q+aWlTHMNQyEsmQB51vzHduEQj5CZf82D7CBAAAJA1GiF/1eX7tvt6NhMZW56WFkUxDIW85OHrWMM1Qm7wNQ/qR4AAAICs0QD5kUSnpVt/ntG/ZSgj+4S1N6gDxiufBfKrhc4nphtjNEKu9jcR6sK/sgAAIKs0Qn4m0Wnp1hGyV5tQhvYKuaDBv5nDCu9d0KgIGa8RMsHfRPg6/n0FAABZ15jT0g/qEMrp3Xk8L7709ueB3Dk/kBr3t8U1GiFXeBwJX0GAAACAnNCY09IHdQvlkI5ECL70xspAps1v1CchEzVCKvxNhC8QIAAAIGdohIzVZaLL3sG7hDKwHRGCL/19dSBT5way2f1tcZVGyFiPI0EIEAAAkGM0QqbqMsx2n7moubA0lB/uTITgS++tCeSmOY2KEO4J8YwAAQAAOUcj5E5dhtjuK9ErmyvK0tJvpxiGQt761zqRKbNTsiHt/CNGaoRc63GkgkaAAACAnKQR8itdTrfd17xIZJxGSM/m/mdC/pppImROStbXOP+I0zVC7vc4UsEiQAAAQM7SCDlDl/ts97UtEZlQnpb2TWIYCnlrdrXItbNTstY9Qsbp62oNEffPUkCAAACA3KYR8qou+9vu69xUZLxGSGvr00WQZPPWi0zWCFmzxflHzNLXUI2Ql/xNVVgIEAAAkNM0QPpLdFp6O9u9ZS1ERpelpWnK/1zIX4s3ilxVmZJV7hFizJDo05BKL0MVEAIEAADkPI2QgRKdlm4dIeapWObpWFz04KvmrxeZ1LhPQozX9XWnRshjfqYqDPy7CAAA8oJGyM8kihDrL1Xt0zaU83vyeF5sa+EGkSsrG3VPyBeek+hrWfMaP1XyESAAACBvaIScossDLnuP6BTKCV2JEGzL3BNyVVVKqhsfIQv1dbRGyLuNnyrZCBAAAJBXNEIu1eV6l70ndwvl0I5ECLZVWS0yuapR54R8wUTILRohUxo/VXIRIAAAIO9ohJiTqcfZ7uO0dNTnr6sCuWmut0vj4zVCnvD1w5KGAAEAAHlJI2SqLsNs95nT0i/vk5b+LWMYCnlt2oJA/rjC2+Xx/0h0X8gCXz8wKQgQAACQtzRCpuky2HYfp6WjPuaTkCc/CWT+Bi8/br5E94X8zctPSwgCBAAA5DWNkId1Ocl2X6tikYrytHRtGsNQyHt/+TyQh5YE8tmmRv8oEyFnc3DhlwgQAACQ9zRCTpPoYDgr5rT0CRohrTgtHXUwT8Z68tNAXloeSE3jbhtaK9EnIUSIECAAACAhNEJe1uVA2319tp6W3ozT0lGPuetF7l6Qqn1kbyOYCDlUI+QNP1PlLwIEAAAkggZIP13e1FcH273faRXK8N6hFHNlhHqYT0CeXRrUfiLSiE9DlutrgEbITH+T5R/+NQMAAImhEbKvRKelW0fI3ltPS+fiCNvz8TqRW+alZOVm5x/xigbIjz2OlHf4dwwAACRKY05L/2nHUE7pxhkh2L7VW0yEBPLRWudL6dM1Qu73OVM+IUAAAEDiaIRcqMvNLntP7BrK4Z2IEGyf+RrW9IWNOjdknEbIlT5nyhcECAAASCTX09KNc3cJZb92RAh27OlPA3niE+dL6j00Qt71OU8+IEAAAEBiaYRcq8sI231FeoV0SWko32tNhGDHzGN6ZyxyuqxeKNFN6fM8j5TTCBAAAJBoGiH36HK27b4mqejxvOUtYhgKidOICHlOA+Rw3/PkMgIEAAAknkbIg7oMst3XskhkXHlaujeLYSgkzvPLAnl4sdPl9S80Qh7zPU+uIkAAAEBB0Ag5WZeHbPe1KxGZ0DdduwI7Yj4FMZ+GWHpdX4M0QhbGMFLOIUAAAEDB0Aj5nS4H2+7r1lSkQiPEfCICbI95OtYNcwJ5b431ZfZdGiDnxTFTriFAAABAwdAAKZPotPQutnvNvSCjytLSNOV/LiTL2hp9r3ycks82WW/dRyPkTzGMlFMIEAAAUFA0QvaS6LR06wjp3zKUy3uHUkKEYAfmrhepmJWSLXYPUnteA+SwmEbKGQQIAAAoOBohR0oUIdYpsXfbUIb25PG82LFnPg3kcfszQvbXCPlDDOPkDAIEAAAUJI2Qc3S522XvAe1DOasHEYLtM/eDjJ2Vknnrrba9rAFyUEwj5QQCBAAAFCyNkMt1ucZl7wldQzmiExGC7ft4ncjEypRYvlN20wj5ZzwTZR8BAgAACppGyNW6jHLZe2r3UA7uQIRg++5eEMjrK6wuux/RADk5rnmyjQABAAAFTyPkVl0usN1XpFdSF5aG8v3WRAjqt2KzyCUfpWSzxdtEAySx1+mJ/Q8GAABgQyPkXl3OtN1XoldTV5Slpd9OMQyFxHh0SSDPLrW69L5II2RqXPNkEwECAACwlUbIw7qcZLuvRZHIWI2Qns1jGAqJsHqLyLB/Wn0KMlMDZNcYR8oaAgQAAOArNEJO1OUR232tikUqytPStWkMQyER7l0YyKufWV1+76kR8ue45skWAgQAAOBrNEKe1+UQ232dNT7Ga4S0Lo5hKOS9hRtELp9pdfRMIr+GRYAAAAB8jQZIb13e1Fc3272lzUXGaoQ047R01MGcjl5Z3eA//jcNkB/EOE5WECAAAAB10Aj5kUSnpVtHSHkLkVFlaWlKhOBrzON4zWN5LXxbI+TDuObJBgIEAACgHhoh+0sUIW1s9+6xcyjDSkMutrCN6hqRIR+mak9Jb6CzNUDujXGkjOPfCQAAgO3QCDlDl/tc9u7TNpTze3JGCLY1uSqQD9Y2+DJ8kgbI6DjnyTQCBAAAYAc0Qi7V5XqXvT/vHMqxXYgQfOnF5YE8sKjBl+GvaYAcEOc8mUaAAAAANIBGyARdxrnsPb17KAd1IEIQWbxR5LJ/Wd0g1FMjZEFc82QaAQIAANBAGiHX6jLCZe+5u4SyXzsiBJHzPkzVHk7YQMdrgDwR4zgZRYAAAABY0AiZpstg233FetU1ok8ou7UkQiByw5xA/nd1gy/FR2qAXBvnPJlEgAAAAFjSCHlQl0G2+8zZIOaMEHNWCArb058G8sQnDb4Uv0oDZGyc82QSAQIAAOBAI+RhXU6y3WdOSTenpZtT01G43l0VyM1zG3wp/pQGyDFxzpNJBAgAAIAjjZBzdbnLdl/HJiIVGiFtS2IYCnlhyUaR4Q2/Ef1jDZB+cc6TSQQIAABAI2iEvKnLPrb7zCcg5pMQ84kICo85iPC0/0tJA+8I2qIBkphcJUAAAAAaQQPku7qYCGlpu7ffTiJX9ElLidUTWZEU53+YklUNfBKWBkhirtsT8x8EAAAgWzRCDtLlKXGIkP9sHcpFpaEUcVVWcMbOSsns6ob9WQIEAAAA29AIOVKiCLH+PGNgu1AG78LjeQvNdbMDeW9Nwy7HCRAAAAB8g0bIL3W5xWWvOSndnJiOwjF1biB/WUWAAAAAoBE0Qsx5DRNd9g7qFsohHYmQQjFtQSB/XEGAAAAAoJE0QqboMtxl73k9QxnQlggpBNM1QF4jQAAAAOCDRsjtupxvu89cnF1YGsoPdyZCko4AAQAAgFcaIdN0GWy7r0lKZHRZWspbxDAUcsbdGiCvEyAAAADwSSPkUV1+YbuveZHIWI2QXs1jGAo54dZ5gbzzOQECAAAAzzRCztDlPtt95pR0c1q6OTUdyXNVVSAfrSVAAAAAEAONkFd12d92X6cmIhV909KmOIahkFWXz0zJwg0N+7MECAAAAKxogPTX5U19tbPd27OZyNjytLQo8j8Xsue8D1OyekvD/iwBAgAAAGsaIQMlOi3dOkK+2yqUS3uHUsTVW2Kc+n8pqWngw84IEAAAADjRCDlGl9+47N27bSjn9wy5gEuAtTUi536QaugfX6EB0j7OeTKJ9y8AAECGaYScossDLnsPaB/KWT04IyTfVVWLjJvV4AD5iwbIj+KcJ5MIEAAAgCzQCLlcl2tc9v68cyjHdiFC8pk5gNAcRNhA0zVAzolznkwiQAAAALJEI6RCl/Eue0/tHsrBHYiQfHX/okB+v7zBl+I3a4BcHOc8mUSAAAAAZJFGyBRdhtvuMxdxF/QKZc82REg+urIyJf9a1+A/PkwD5NYYx8koAgQAACDLNELu1GWI7b4SvZIbWZaWXXeKYSjEytyAbm5Eb6A9NEDejXGcjCJAAAAAcoBGyK90Od12nzkbZKxGSM/m/mdCPFZsFvnlPxt8A/pHGh//Eec8mUaAAAAA5AiNkCfMYruvVbHIuPK0dGsaw1Dw7s2Vgdw5v8GX4Q9pgJwS5zyZRoAAAADkEI2Qs3SZbruvXYnIhL7p2hW57S6NjzdWNvgy/C4NkPPinCfTCBAAAIAcoxHyB10G2u7r0UxkbHlaWhb5nwn+nP9hSlZtafAfH6EBMiXGcTKOAAEAAMgxGiC76fKmvtrY7t2tZSgj+oRSzFVeTlq0QYtiZoPv/zD20wB5I655soG3JgAAQA7SCNlfl6fEIUJ2bx3KxaWhFHGll3OeWxbII4sb/D/MHI2PPnHOkw28LQEAAHKURsiJujzisvfA9qGc2YMzQnLNNbMDeX9Ngy/Bx2uATIhznmwgQAAAAHKYRog5AftGl72HdwrlxK5ESK74fIvIsH+mpKbh/5OcqgHyYIwjZQUBAgAAkOM0Qsz/F3ycy96Tu4VyaEciJBe8sCyQhxr+9SvjWxogs+KaJ1sIEAAAgDygETJZl5G2+8zF3gW9QtmzDRGSbWNnpWR2dYP/+NsaH3vHOE7WECAAAAB5QiPkVl0usN1nbka/pDSU77UmQrJl4QaRy+2efnWmBsiv4ponmwgQAACAPKIRcq8uZ9ruK9GrvivK0tJvpxiGwg49uiSQZ5daXXr/hwbIR3HNk00ECAAAQJ7RCHlMl+Nt97UuFhlXnpauTWMYCvUyN51f9FFKVmxu8JZ3NT72iHGkrCJAAAAA8pBGyGm6zLDd17ZEZIJGSPsm/mdC3d5YGchd860uuxP79SuDAAEAAMhTGiEv63Kg7b4ezUQqNEJaFMUwFL5h1Mcpmbe+4X9e4yPR1+iJ/g8HAACQZBog/XR5U18dbPf2aSEyuiwtzazui4atf6wOZMocq0vu4RogN8Q1Ty4gQAAAAPKYRsi+ujwlDhGyW8tQRvQJpZgrwthcVRXIR2ut/gseoAHyVlzz5ALebgAAAHlOI+REXR5x2btXm1CG9gq5KIxBZbVIxSyrj5iqND7K45onV/BeAwAASACNkHN0udtl7+GdQjmxK2eE+Hb9nED+vpqvX30dAQIAAJAQGiGX6nK9y96Tu4VyaEcixJeP1pqvX1l9+rFK46NNXPPkEgIEAAAgQTRCrtVlhMves3cJZf92REhjmf8GR81MyfwNVtuu0QC5Ip6JcgsBAgAAkDAaIVN1GWa7r0ivDC8pDeV7rYmQxnhzZSB32p37YbTSAFkbxzy5hgABAABIII0Qc5Dd6bb7zBOxLusdyrdbESEuNqZFLv1XSlY2/NRz426Nj3NjGinnECAAAAAJpRHyoC6DbPe1LBIZV56W7s1iGCrhnvo0kCc/sbrENqlSrgEyP6aRcg4BAgAAkGAaIafpMsN2X+viKEK6NvU/U1LNXa//nc1KSY3dh0e3aHxcGNNIOYkAAQAASDiNkJd1OdB2XzeNj4q+6dpPRLB9pjnMmR9V1Vbb5uhrTw2QpbEMlaMIEAAAgITTAOmny5vicFr6TzqEclp37gfZkWeXBvLoEutL6xEaH1PimCeXESAAAAAFQCNkX12eEssIMTel39w/LW1L4pkrCRZuEBn9cUq22HXaKxofP45ppJxGgAAAABQIjZDDJIqQJjb7zAGF5qBCfJO532NiZUoq7b56ZRyrAfJkDCPlPAIEAACggGiEnKPL3TZ7SvSKccquaelolS2F4d6Fgbz6mfUl9TMaH0fFMU8+IEAAAAAKjEbIUF1us9mzV5tQLujFpyBf9fqKQO5eYH05PVdfAzRAFvmfKD8QIAAAAAVII+RqXUbZ7Lmyb1r6tIhpoDwzf71IRWVKNqWttw7S+Hg4hpHyBgECAABQoDRCXtDlpw3989/aKTobpNAvIKtropvOl26y3vqixkeD//tOqkJ//wAAABQsDZABurxhs+f07qEc1KFwv4plnnR13exAPlxrfRn9iURfvaqKYay8QoAAAAAUMI2QZ3Q5oqF/vklK5Np+aelUgDekmyde3TQ3kL+vdrqE3lvj423fM+UjAgQAAKCAaYDsocufbfZ8t1UoI/oU3qcgjk+8Mi7S+Jjqe558RYAAAAAUOI2Qe3U502bPCV1DOaJT4UTI/YsC+f1yp0vnv2l8/MD3PPmMAAEAAChwGiB9JDqg8LsN3WNOSK8oL4ynYj23LJBHFjtdNm+R6L4Pq0+Yko4AAQAAgImQc3W5y2aPOZjQPJq3VXFMQ+WAx5cE8sxS50vmIzQ+/sfnPElAgAAAAKCWRsibuuxjs6ffTiKjytK1n4gkifly2a8WBvKK2z0fxkSNjwqPIyVGwt4qAAAAcKUBYr6CZSKkpc2+fduGMqRncu4HMY/avXN+IO987nypPEPj4wyfMyUJAQIAAIB/0wg5UZdHbPf9tGMop3TL/whZs0XktnmBfGB/zscXHtf4OMHnTElDgAAAAGAbGiHP63KI7b6jOodyXJf8jZDKapGpc1OyYrPzjzhV4+NBjyMlEgECAACAbWiA9Jboq1jdbPce2jGUk7qFeXeR+fyyQH69JKg9bNDRSxofP/E4UmLl23sDAAAAGaAR8iOJHs1rHSF7tgllyC6hlKT8z+Xb2hqRexYE8tdVjbosXirR43ZneRor0QgQAAAA1EkjZLQuV7nsNeeDDOuVrn1Ub67644pAHlkS1N730QgmPo7W+HjLz1TJR4AAAACgXhoh9+hytsvelkUig3uG8v3WuXVfyPz1IjMWpWTmukb/qJf0NZRPPuwQIAAAANgujZDHdDnedf/ebaMnZLXO8oGF5pOO3y4N5MXljbrX4wvccO6IAAEAAMAOaYT8ty5Hue43n4Yc0yWUA9qHGT+0cOmm6Cbz11cEsint5UfyqN1GIEAAAADQII2NEKNTkyhEzI3qcYfI3PUizy4N5C+rvHzi8YXpGh/nePtpBYgAAQAAQIP5iBCjVXF0grp59WzuYbCtVm+R2hPMzacdJkA8Wq6v6zU+rvX6UwsQAQIAAAArGiFP6nK0r59nnpT1n61D2a2VSN8WdveKLNskUlUdyKxqkX+uCWT+Bl9TbcPEh3nS1Rux/PQCQ4AAAADAmkbIo7r8Io6fbYKkQ5Ow9utarb4SI2Eosj4dfcqxbFNQGx/VNXFMsI1XJHrS1czY/0kFggABAACAE42Qm3S5KNtzxMTcrn6mhsf92R4kaQgQAAAAONMIOUOX+7I9h2d/l+hTj7ezPUgSESAAAABoFI2Qw3S5XV+9sj1LI5kDBe/U8Lgp24MkGQECAACARtMIaabLaH0N01frLI/j4iF9Xa3x8a9sD5J0BAgAAAC80RD5jkSfhuyb7Vka6FWJwuPVbA9SKAgQAAAAeKchYg7rO09fu2d7lno8LVF4/DXbgxQaAgQAAACx0RC5TKIQ6Z3tWbaaIVF4VGZ7kEJFgAAAACB2GiLmK1l76uu6LPzjzVOtzM3l92Thn42vIUAAAACQMRoiu+hyhEQxcoi+2sfwj1mkrwf1NVtf72h4vB/DPwOOCBAAAABkzdZH+JoY6aOvllv/704WP2Kuvv6ir7XyZXC84nlMeESAAAAAAMgYAgQAAABAxhAgAAAAADKGAAEAAACQMQQIAAAAgIwhQAAAAABkDAECAAAAIGMIEAAAAAAZQ4AAAAAAyBgCBAAAAEDGECAAAAAAMub/A8wrxkydc3kBAAAAAElFTkSuQmCC;" vertex="1" parent="1">
          <mxGeometry x="340" y="397.5" width="280" height="280" as="geometry" />
        </mxCell>
      </root>
    </mxGraphModel>
  </diagram>
</mxfile>
